<svg id="Layer_1" data-name="Layer 1" xmlns="http://www.w3.org/2000/svg" viewBox="0 0 720.0597 124.7396">
  <g id="type">
    <path id="type_CompoundPathItem_" data-name="type &lt;CompoundPathItem&gt;" d="M136.9886,2.9246a12.5163,12.5163,0,0,1,16.0819,0,9.8137,9.8137,0,0,1,3.168,7.5529,9.7607,9.7607,0,0,1-3.1068,7.4318,12.6852,12.6852,0,0,1-16.2043,0,9.7586,9.7586,0,0,1-3.1068-7.4318A9.8055,9.8055,0,0,1,136.9886,2.9246Zm-1.584,27.0271h19.1282V90.1379H135.4046Z"/>
    <path id="type_CompoundPathItem_2" data-name="type &lt;CompoundPathItem&gt;" d="M180.3135,121.5716a25.3806,25.3806,0,0,1-11.27-9.0158,23.5417,23.5417,0,0,1-3.9594-13.5244,25.4541,25.4541,0,0,1,.1217-2.9233h18.3974q-.2456,5.9678,3.35,9.2592,3.5917,3.29,10.417,3.2891,6.0909,0,9.8683-2.7405a8.5438,8.5438,0,0,0,3.7771-7.249,8.25,8.25,0,0,0-3.4725-7.1279q-3.4722-2.4964-9.93-2.497a38.3606,38.3606,0,0,1-17.4831-3.7771,27.4992,27.4992,0,0,1-11.5747-10.66,30.812,30.812,0,0,1-4.081-16.0214,29.4312,29.4312,0,0,1,4.2034-15.6557A28.7305,28.7305,0,0,1,180.374,32.2053a37.0157,37.0157,0,0,1,17.118-3.8376,31.6573,31.6573,0,0,1,13.6454,2.9233l7.0668-8.7712,14.0105,10.1118-8.041,9.3815a24.2909,24.2909,0,0,1,6.0919,16.57,24.5556,24.5556,0,0,1-3.2285,12.3654,26.2149,26.2149,0,0,1-9.077,9.321,22.4218,22.4218,0,0,1,9.4421,7.7358,19.7954,19.7954,0,0,1,3.3508,11.3918,22.3477,22.3477,0,0,1-4.1421,13.3415,26.224,26.224,0,0,1-11.6964,8.8935A45.8888,45.8888,0,0,1,197.37,124.74,42.63,42.63,0,0,1,180.3135,121.5716Zm6.9444-52.6938a15.2913,15.2913,0,0,0,20.4681.0605,13.9959,13.9959,0,0,0,3.8988-10.3552q0-6.4569-3.8376-10.2958T197.492,44.45a13.9555,13.9555,0,0,0-10.2341,3.8377q-3.9,3.8382-3.8988,10.2958A14.0387,14.0387,0,0,0,187.2579,68.8778Z"/>
    <path id="type_CompoundPathItem_3" data-name="type &lt;CompoundPathItem&gt;" d="M242.9362,4.8539h19.1282V36.531q6.9444-7.9192,18.3968-7.92,11.0847,0,17.6054,7.4318,6.5163,7.4337,6.5181,20.1025V90.1379H285.4565V57.2426q0-5.8493-2.8634-9.1382a10.0176,10.0176,0,0,0-7.98-3.289,11.7572,11.7572,0,0,0-9.077,3.777,14.0094,14.0094,0,0,0-3.4719,9.8684V90.1379H242.9362Z"/>
    <path id="type_CompoundPathItem_4" data-name="type &lt;CompoundPathItem&gt;" d="M369.4228,83.6809l7.31-13.1586a36.5378,36.5378,0,0,0,10.173,4.1428,46.8369,46.8369,0,0,0,11.5135,1.4616q7.9182,0,7.9192-4.2639a3.5137,3.5137,0,0,0-2.1931-3.29,21.002,21.002,0,0,0-7.31-1.4617q-11.4526-.608-18.2139-5.7255a16.0266,16.0266,0,0,1-6.7622-13.4021,16.7825,16.7825,0,0,1,7.31-14.3163q7.3105-5.2988,19.7374-5.2993a52.12,52.12,0,0,1,13.4626,1.705,37.6233,37.6233,0,0,1,11.026,4.752l-7.4318,12.7929A32.1352,32.1352,0,0,0,399.76,43.7182q-9.261,0-9.26,4.3862a3.0412,3.0412,0,0,0,1.8885,2.8022,19.6842,19.6842,0,0,0,6.3965,1.4629q12.9121.9768,19.6762,5.8479,6.7619,4.8743,6.7621,13.6454a16.92,16.92,0,0,1-7.4324,14.5586q-7.4328,5.3-20.59,5.3005Q381.2393,91.7219,369.4228,83.6809Z"/>
    <path id="type_CompoundPathItem_5" data-name="type &lt;CompoundPathItem&gt;" d="M525.9791,87.7619A27.6938,27.6938,0,0,1,514.161,76.8582a32.41,32.41,0,0,1-4.1422-16.6923A32.7219,32.7219,0,0,1,514.1,43.7182,28.3958,28.3958,0,0,1,525.4916,32.571a35.0117,35.0117,0,0,1,16.9351-3.96,36.6985,36.6985,0,0,1,17.0568,3.7165A26.1823,26.1823,0,0,1,570.51,42.8051a31.4154,31.4154,0,0,1,3.8376,15.778,52.2843,52.2843,0,0,1-.6091,7.1872h-44.226a11.3564,11.3564,0,0,0,4.9954,7.4937,18.2329,18.2329,0,0,0,10.6,2.8627,29.0269,29.0269,0,0,0,8.7718-1.3405,22.2172,22.2172,0,0,0,7.31-3.7759L571.18,81.7312a35.4772,35.4772,0,0,1-12.1226,7.3108A43.19,43.19,0,0,1,544.1324,91.6,40.14,40.14,0,0,1,525.9791,87.7619ZM556.1939,54.806a11.1741,11.1741,0,0,0-3.8377-8.1633q-3.4722-2.9246-9.32-2.9245a14.294,14.294,0,0,0-9.32,2.9245,11.3778,11.3778,0,0,0-4.0817,8.1633Z"/>
    <path id="type_CompoundPathItem_6" data-name="type &lt;CompoundPathItem&gt;" d="M597.7387,87.7619a27.6941,27.6941,0,0,1-11.818-10.9037,32.41,32.41,0,0,1-4.1422-16.6923,32.7219,32.7219,0,0,1,4.081-16.4477A28.3958,28.3958,0,0,1,597.2513,32.571a35.0111,35.0111,0,0,1,16.9351-3.96,36.6985,36.6985,0,0,1,17.0568,3.7165,26.1823,26.1823,0,0,1,11.0261,10.4775,31.4154,31.4154,0,0,1,3.8376,15.778,52.2843,52.2843,0,0,1-.6091,7.1872h-44.226a11.3563,11.3563,0,0,0,4.9953,7.4937,18.2331,18.2331,0,0,0,10.6,2.8627,29.0259,29.0259,0,0,0,8.7718-1.3405,22.2187,22.2187,0,0,0,7.31-3.7759L642.94,81.7312a35.4767,35.4767,0,0,1-12.1227,7.3108A43.1886,43.1886,0,0,1,615.8921,91.6,40.1409,40.1409,0,0,1,597.7387,87.7619ZM627.9535,54.806a11.1744,11.1744,0,0,0-3.8376-8.1633q-3.4722-2.9246-9.32-2.9245a14.294,14.294,0,0,0-9.32,2.9245,11.3781,11.3781,0,0,0-4.0816,8.1633Z"/>
    <path id="type_CompoundPathItem_7" data-name="type &lt;CompoundPathItem&gt;" d="M62.9885,43.78A27.0245,27.0245,0,0,0,52.7544,32.6919,28.5061,28.5061,0,0,0,37.769,28.7332,26.5113,26.5113,0,0,0,19.1282,35.677V4.8537H0v85.284H19.0059V84.1552c4.9434,4.78,11.1854,7.2008,18.7631,7.2008a28.4838,28.4838,0,0,0,14.9854-3.96A27.0062,27.0062,0,0,0,62.9885,76.3094a35.1433,35.1433,0,0,0,3.6554-16.2648A35.14,35.14,0,0,0,62.9885,43.78ZM43.6169,71.0707A13.6972,13.6972,0,0,1,33.2611,75.274,13.4,13.4,0,0,1,22.9658,71.01a15.4737,15.4737,0,0,1-3.96-10.9655,15.4778,15.4778,0,0,1,3.96-10.9655,13.404,13.404,0,0,1,10.2953-4.2639,13.6972,13.6972,0,0,1,10.3558,4.2033q4.0208,4.2034,4.02,11.0261T43.6169,71.0707Z"/>
    <path id="type_PathItem_" data-name="type &lt;PathItem&gt;" d="M120.25,30.1343a23.87,23.87,0,0,0-8.285-1.5234,18.0456,18.0456,0,0,0-15.1072,7.5665V29.9515H77.7292V90.1377H96.8574V60.8971q0-7.5523,3.5331-11.4523a12.3391,12.3391,0,0,1,9.625-3.8982,14.5638,14.5638,0,0,1,4.63.73,23.0729,23.0729,0,0,1,4.7513,2.3155l8.0416-14.0112A20.4393,20.4393,0,0,0,120.25,30.1343Z"/>
    <path id="type_PathItem_2" data-name="type &lt;PathItem&gt;" d="M356.7306,73.4466a15.3638,15.3638,0,0,1-6.9444,1.7051,6.8776,6.8776,0,0,1-4.9953-1.7668q-1.8274-1.7644-1.8274-5.4216V45.1809h14.9854V29.9515H342.9635V12.8947H323.957V29.9515H313.7229V45.1809H323.957V67.9633q0,12.3079,5.7262,17.8487,5.7258,5.5472,15.5951,5.544a35.2109,35.2109,0,0,0,15.96-3.5337Z"/>
    <path id="type_CompoundPathItem_8" data-name="type &lt;CompoundPathItem&gt;" d="M498.6894,43.78a27.0245,27.0245,0,0,0-10.2341-11.0879A28.5059,28.5059,0,0,0,473.47,28.7332c-7.6425,0-13.8857,2.3809-18.7631,7.08V29.9515H435.7009V116.21h19.1282V84.29q7.43,7.0668,18.6408,7.0662a28.4836,28.4836,0,0,0,14.9854-3.96,27.0062,27.0062,0,0,0,10.2341-11.0866,35.1433,35.1433,0,0,0,3.6554-16.2648A35.14,35.14,0,0,0,498.6894,43.78ZM479.3178,71.0707A13.6971,13.6971,0,0,1,468.962,75.274,13.4,13.4,0,0,1,458.6668,71.01a15.4733,15.4733,0,0,1-3.96-10.9655,15.4775,15.4775,0,0,1,3.96-10.9655,13.4038,13.4038,0,0,1,10.2952-4.2639,13.6971,13.6971,0,0,1,10.3558,4.2033q4.0207,4.2034,4.0205,11.0261T479.3178,71.0707Z"/>
    <path id="type_CompoundPathItem_9" data-name="type &lt;CompoundPathItem&gt;" d="M700.9315,4.8537v31.068a23.5313,23.5313,0,0,0-8.3456-5.3006,29.6026,29.6026,0,0,0-10.66-1.8879,27.9571,27.9571,0,0,0-14.742,3.8982,26.4549,26.4549,0,0,0-10.0512,11.0261,35.9069,35.9069,0,0,0-3.5942,16.3871,35.9,35.9,0,0,0,3.5942,16.3871,26.4483,26.4483,0,0,0,10.0512,11.0261,27.9461,27.9461,0,0,0,14.742,3.8982,28.5437,28.5437,0,0,0,11.94-2.4365,23.3361,23.3361,0,0,0,7.0661-4.89v6.1079H720.06V4.8537Zm-3.7765,66.217a13.6971,13.6971,0,0,1-10.3558,4.2033A13.4,13.4,0,0,1,676.504,71.01a15.4733,15.4733,0,0,1-3.96-10.9655,15.4775,15.4775,0,0,1,3.96-10.9655,13.4038,13.4038,0,0,1,10.2952-4.2639,13.6971,13.6971,0,0,1,10.3558,4.2033,14.2983,14.2983,0,0,1,3.7765,7.84v6.3736A14.2945,14.2945,0,0,1,697.155,71.0707Z"/>
  </g>
</svg>
