<svg xmlns="http://www.w3.org/2000/svg" viewBox="0 0 15.92 15.92"><defs><style>.cls-1{fill:#ffc800;}.cls-2{fill:#ff7725;}.cls-3{fill:#fa4628;}</style></defs><g id="Layer_2" data-name="Layer 2"><g id="Layer_1-2" data-name="Layer 1"><path class="cls-1" d="M3.94,15.92A3.93,3.93,0,0,0,0,12v3.94Z"/><path class="cls-1" d="M0,3.94A3.93,3.93,0,0,0,3.94,0H0Z"/><path class="cls-1" d="M12,15.92A3.93,3.93,0,0,1,15.92,12v3.94Z"/><path class="cls-1" d="M15.92,3.94A3.93,3.93,0,0,1,12,0h3.94Z"/><path class="cls-1" d="M6.58,9.34A9.22,9.22,0,0,0,4.82,8,9.35,9.35,0,0,1,0,9.3a6.59,6.59,0,0,1,4.68,1.94,6.55,6.55,0,0,1,1.94,4.68A9.35,9.35,0,0,1,8,11.1,9.54,9.54,0,0,0,6.58,9.34Z"/><path class="cls-2" d="M6.58,6.58A9.22,9.22,0,0,0,8,4.82,9.35,9.35,0,0,1,6.62,0,6.55,6.55,0,0,1,4.68,4.68,6.55,6.55,0,0,1,0,6.62,9.35,9.35,0,0,1,4.82,8,9.22,9.22,0,0,0,6.58,6.58Z"/><path class="cls-3" d="M0,6.62V9.3A9.35,9.35,0,0,0,4.82,8,9.35,9.35,0,0,0,0,6.62Z"/><path class="cls-2" d="M9.34,9.34A9.54,9.54,0,0,0,8,11.1,9.35,9.35,0,0,1,9.3,15.92,6.62,6.62,0,0,1,15.92,9.3,9.35,9.35,0,0,1,11.1,8,9.54,9.54,0,0,0,9.34,9.34Z"/><path class="cls-3" d="M6.62,15.92H9.3A9.35,9.35,0,0,0,8,11.1,9.35,9.35,0,0,0,6.62,15.92Z"/><path class="cls-1" d="M9.34,6.58A9.54,9.54,0,0,0,11.1,8a9.35,9.35,0,0,1,4.82-1.34,6.55,6.55,0,0,1-4.68-1.94A6.59,6.59,0,0,1,9.3,0,9.35,9.35,0,0,1,8,4.82,9.22,9.22,0,0,0,9.34,6.58Z"/><path class="cls-3" d="M9.3,0H6.62A9.35,9.35,0,0,0,8,4.82,9.35,9.35,0,0,0,9.3,0Z"/><path class="cls-3" d="M11.1,8A9.35,9.35,0,0,0,15.92,9.3V6.62A9.35,9.35,0,0,0,11.1,8Z"/></g></g></svg>