<svg xmlns="http://www.w3.org/2000/svg" viewBox="0 0 31.84 31.84"><defs><style>.cls-1{fill:#ffc800;}.cls-2{fill:#ff7725;}.cls-3{fill:#fa4628;}</style></defs><g id="Layer_2" data-name="Layer 2"><g id="Layer_1-2" data-name="Layer 1"><path class="cls-1" d="M7.89,31.84A7.89,7.89,0,0,0,0,24v7.89Z"/><path class="cls-1" d="M0,7.89A7.89,7.89,0,0,0,7.89,0H0Z"/><path class="cls-1" d="M24,31.84A7.9,7.9,0,0,1,31.84,24v7.89Z"/><path class="cls-1" d="M31.84,7.89A7.89,7.89,0,0,1,24,0h7.89Z"/><path class="cls-1" d="M13.16,18.68a18.76,18.76,0,0,0-3.52-2.76A18.59,18.59,0,0,1,0,18.6a13.24,13.24,0,0,1,9.37,3.87,13.24,13.24,0,0,1,3.87,9.37,18.65,18.65,0,0,1,2.68-9.63A18.82,18.82,0,0,0,13.16,18.68Z"/><path class="cls-2" d="M13.16,13.16a18.76,18.76,0,0,0,2.76-3.52A18.68,18.68,0,0,1,13.24,0,13.24,13.24,0,0,1,9.37,9.37,13.24,13.24,0,0,1,0,13.24a18.68,18.68,0,0,1,9.64,2.68A18.76,18.76,0,0,0,13.16,13.16Z"/><path class="cls-3" d="M0,13.24V18.6a18.59,18.59,0,0,0,9.64-2.68A18.68,18.68,0,0,0,0,13.24Z"/><path class="cls-2" d="M18.68,18.68a18.82,18.82,0,0,0-2.76,3.53,18.55,18.55,0,0,1,2.68,9.63A13.21,13.21,0,0,1,31.84,18.6a18.55,18.55,0,0,1-9.63-2.68A18.82,18.82,0,0,0,18.68,18.68Z"/><path class="cls-3" d="M13.24,31.84H18.6a18.55,18.55,0,0,0-2.68-9.63A18.65,18.65,0,0,0,13.24,31.84Z"/><path class="cls-1" d="M18.68,13.16a18.82,18.82,0,0,0,3.53,2.76,18.65,18.65,0,0,1,9.63-2.68,13.24,13.24,0,0,1-9.37-3.87A13.24,13.24,0,0,1,18.6,0a18.59,18.59,0,0,1-2.68,9.64A18.76,18.76,0,0,0,18.68,13.16Z"/><path class="cls-3" d="M18.6,0H13.24a18.68,18.68,0,0,0,2.68,9.64A18.59,18.59,0,0,0,18.6,0Z"/><path class="cls-3" d="M22.21,15.92a18.55,18.55,0,0,0,9.63,2.68V13.24A18.65,18.65,0,0,0,22.21,15.92Z"/></g></g></svg>