<svg xmlns="http://www.w3.org/2000/svg" viewBox="0 0 63.68 63.68"><defs><style>.cls-1{fill:#ffc800;}.cls-2{fill:#ff7725;}.cls-3{fill:#fa4628;}</style></defs><g id="Layer_2" data-name="Layer 2"><g id="Layer_1-2" data-name="Layer 1"><path class="cls-1" d="M15.77,63.68A15.77,15.77,0,0,0,0,47.91V63.68Z"/><path class="cls-1" d="M0,15.77A15.77,15.77,0,0,0,15.77,0H0Z"/><path class="cls-1" d="M47.91,63.68A15.77,15.77,0,0,1,63.68,47.91V63.68Z"/><path class="cls-1" d="M63.68,15.77A15.77,15.77,0,0,1,47.91,0H63.68Z"/><path class="cls-1" d="M26.32,37.37a37.23,37.23,0,0,0-7-5.53A37.21,37.21,0,0,1,0,37.2,26.42,26.42,0,0,1,18.74,45a26.41,26.41,0,0,1,7.74,18.73,37.23,37.23,0,0,1,5.36-19.27A37.2,37.2,0,0,0,26.32,37.37Z"/><path class="cls-2" d="M26.32,26.32a37.58,37.58,0,0,0,5.52-7A37.21,37.21,0,0,1,26.48,0a26.45,26.45,0,0,1-7.74,18.74A26.45,26.45,0,0,1,0,26.48a37.21,37.21,0,0,1,19.27,5.36A37.58,37.58,0,0,0,26.32,26.32Z"/><path class="cls-3" d="M0,26.48V37.2a37.21,37.21,0,0,0,19.27-5.36A37.21,37.21,0,0,0,0,26.48Z"/><path class="cls-2" d="M37.37,37.37a36.86,36.86,0,0,0-5.53,7A37.23,37.23,0,0,1,37.2,63.68,26.46,26.46,0,0,1,63.68,37.2a37.23,37.23,0,0,1-19.27-5.36A36.86,36.86,0,0,0,37.37,37.37Z"/><path class="cls-3" d="M26.48,63.68H37.2a37.23,37.23,0,0,0-5.36-19.27A37.23,37.23,0,0,0,26.48,63.68Z"/><path class="cls-1" d="M37.37,26.32a37.2,37.2,0,0,0,7,5.52,37.23,37.23,0,0,1,19.27-5.36A26.41,26.41,0,0,1,45,18.74,26.42,26.42,0,0,1,37.2,0a37.21,37.21,0,0,1-5.36,19.27A37.23,37.23,0,0,0,37.37,26.32Z"/><path class="cls-3" d="M37.2,0H26.48a37.21,37.21,0,0,0,5.36,19.27A37.21,37.21,0,0,0,37.2,0Z"/><path class="cls-3" d="M44.41,31.84A37.23,37.23,0,0,0,63.68,37.2V26.48A37.23,37.23,0,0,0,44.41,31.84Z"/></g></g></svg>