<svg id="Layer_1" data-name="Layer 1" xmlns="http://www.w3.org/2000/svg" viewBox="0 0 364.52 594.42"><defs><style>.cls-1{fill:none;}.cls-2{fill:#ff7725;}.cls-3{fill:#fa4628;}.cls-4{fill:#ffc800;}</style></defs><path class="cls-1" d="M205.2,529.62a67.91,67.91,0,0,0-22.94,22.94,67.91,67.91,0,0,0-22.94-22.94,67.91,67.91,0,0,0,22.94-22.94,67.91,67.91,0,0,0,22.94,22.94Z"/><path class="cls-2" d="M192.34,539.7a68.11,68.11,0,0,1,12.86-10.08,68,68,0,0,0,35.16,9.78A48.26,48.26,0,0,0,192,587.72a67.83,67.83,0,0,0-9.78-35.16A67.8,67.8,0,0,1,192.34,539.7Z"/><path class="cls-2" d="M172.18,519.54a67.48,67.48,0,0,1-12.86,10.08,67.83,67.83,0,0,0-35.16-9.78,48.26,48.26,0,0,0,48.32-48.32,68,68,0,0,0,9.78,35.16A67.8,67.8,0,0,1,172.18,519.54Z"/><path class="cls-1" d="M205.2,413.42a68,68,0,0,0-22.94,22.93,68,68,0,0,0-22.94-22.93,68.15,68.15,0,0,0,22.94-22.94,68.15,68.15,0,0,0,22.94,22.94Z"/><path class="cls-2" d="M192.34,423.5a67.71,67.71,0,0,1,12.86-10.08,67.94,67.94,0,0,0,35.16,9.77A48.28,48.28,0,0,0,192,471.52a67.89,67.89,0,0,0-9.78-35.17A67.73,67.73,0,0,1,192.34,423.5Z"/><path class="cls-2" d="M172.18,403.33a67.54,67.54,0,0,1-12.86,10.09,67.83,67.83,0,0,0-35.16-9.78,48.26,48.26,0,0,0,48.32-48.33,68,68,0,0,0,9.78,35.17A67.73,67.73,0,0,1,172.18,403.33Z"/><path class="cls-1" d="M321.4,529.62a68,68,0,0,0-22.93,22.94,68.15,68.15,0,0,0-22.94-22.94,68.15,68.15,0,0,0,22.94-22.94,68,68,0,0,0,22.93,22.94Z"/><path class="cls-2" d="M308.55,539.7a67.73,67.73,0,0,1,12.85-10.08,68,68,0,0,0,35.17,9.78,48.26,48.26,0,0,0-48.33,48.32,67.92,67.92,0,0,0-9.77-35.16A67.4,67.4,0,0,1,308.55,539.7Z"/><path class="cls-2" d="M288.38,519.54a67.73,67.73,0,0,1-12.85,10.08,67.89,67.89,0,0,0-35.17-9.78,48.28,48.28,0,0,0,48.33-48.32,67.86,67.86,0,0,0,9.78,35.16A67.85,67.85,0,0,1,288.38,519.54Z"/><path class="cls-1" d="M321.4,413.42a68.09,68.09,0,0,0-22.93,22.93,68.24,68.24,0,0,0-22.94-22.93,68.39,68.39,0,0,0,22.94-22.94,68.24,68.24,0,0,0,22.93,22.94Z"/><path class="cls-2" d="M308.55,423.5a67.34,67.34,0,0,1,12.85-10.08,68,68,0,0,0,35.17,9.77,48.28,48.28,0,0,0-48.33,48.33,68,68,0,0,0-9.77-35.17A67.34,67.34,0,0,1,308.55,423.5Z"/><path class="cls-2" d="M288.38,403.33a67.79,67.79,0,0,1-12.85,10.09,67.89,67.89,0,0,0-35.17-9.78,48.28,48.28,0,0,0,48.33-48.33,67.89,67.89,0,0,0,9.78,35.17A67.79,67.79,0,0,1,288.38,403.33Z"/><path class="cls-1" d="M205.2,413.42a68,68,0,0,0-22.94,22.93,68,68,0,0,0-22.94-22.93,68.15,68.15,0,0,0,22.94-22.94,68.15,68.15,0,0,0,22.94,22.94Z"/><path class="cls-2" d="M192.34,423.5a67.71,67.71,0,0,1,12.86-10.08,67.94,67.94,0,0,0,35.16,9.77A48.28,48.28,0,0,0,192,471.52a67.89,67.89,0,0,0-9.78-35.17A67.73,67.73,0,0,1,192.34,423.5Z"/><path class="cls-2" d="M172.18,403.33a67.54,67.54,0,0,1-12.86,10.09,67.83,67.83,0,0,0-35.16-9.78,48.26,48.26,0,0,0,48.32-48.33,68,68,0,0,0,9.78,35.17A67.73,67.73,0,0,1,172.18,403.33Z"/><path class="cls-1" d="M205.2,297.21a67.91,67.91,0,0,0-22.94,22.94,67.91,67.91,0,0,0-22.94-22.94,67.91,67.91,0,0,0,22.94-22.94,67.91,67.91,0,0,0,22.94,22.94Z"/><path class="cls-2" d="M192.34,307.29a68.11,68.11,0,0,1,12.86-10.08A67.86,67.86,0,0,0,240.36,307,48.28,48.28,0,0,0,192,355.31a67.86,67.86,0,0,0-9.78-35.16A68.11,68.11,0,0,1,192.34,307.29Z"/><path class="cls-2" d="M172.18,287.13a67.48,67.48,0,0,1-12.86,10.08,67.93,67.93,0,0,0-35.16-9.78,48.24,48.24,0,0,0,48.32-48.32,67.93,67.93,0,0,0,9.78,35.16A67.48,67.48,0,0,1,172.18,287.13Z"/><path class="cls-1" d="M321.4,413.42a68.09,68.09,0,0,0-22.93,22.93,68.24,68.24,0,0,0-22.94-22.93,68.39,68.39,0,0,0,22.94-22.94,68.24,68.24,0,0,0,22.93,22.94Z"/><path class="cls-2" d="M308.55,423.5a67.34,67.34,0,0,1,12.85-10.08,68,68,0,0,0,35.17,9.77,48.28,48.28,0,0,0-48.33,48.33,68,68,0,0,0-9.77-35.17A67.34,67.34,0,0,1,308.55,423.5Z"/><path class="cls-2" d="M288.38,403.33a67.79,67.79,0,0,1-12.85,10.09,67.89,67.89,0,0,0-35.17-9.78,48.28,48.28,0,0,0,48.33-48.33,67.89,67.89,0,0,0,9.78,35.17A67.79,67.79,0,0,1,288.38,403.33Z"/><path class="cls-1" d="M321.4,297.21a68,68,0,0,0-22.93,22.94,68.15,68.15,0,0,0-22.94-22.94,68.15,68.15,0,0,0,22.94-22.94,68,68,0,0,0,22.93,22.94Z"/><path class="cls-2" d="M308.55,307.29a67.73,67.73,0,0,1,12.85-10.08A67.89,67.89,0,0,0,356.57,307a48.28,48.28,0,0,0-48.33,48.32,67.94,67.94,0,0,0-9.77-35.16A67.71,67.71,0,0,1,308.55,307.29Z"/><path class="cls-2" d="M288.38,287.13a67.73,67.73,0,0,1-12.85,10.08,68,68,0,0,0-35.17-9.78,48.26,48.26,0,0,0,48.33-48.32,67.83,67.83,0,0,0,9.78,35.16A67.54,67.54,0,0,1,288.38,287.13Z"/><path class="cls-1" d="M205.2,297.21a67.91,67.91,0,0,0-22.94,22.94,67.91,67.91,0,0,0-22.94-22.94,67.91,67.91,0,0,0,22.94-22.94,67.91,67.91,0,0,0,22.94,22.94Z"/><path class="cls-2" d="M192.34,307.29a68.11,68.11,0,0,1,12.86-10.08A67.86,67.86,0,0,0,240.36,307,48.28,48.28,0,0,0,192,355.31a67.86,67.86,0,0,0-9.78-35.16A68.11,68.11,0,0,1,192.34,307.29Z"/><path class="cls-2" d="M172.18,287.13a67.48,67.48,0,0,1-12.86,10.08,67.93,67.93,0,0,0-35.16-9.78,48.24,48.24,0,0,0,48.32-48.32,67.93,67.93,0,0,0,9.78,35.16A67.48,67.48,0,0,1,172.18,287.13Z"/><path class="cls-1" d="M205.2,181A67.91,67.91,0,0,0,182.26,204,67.91,67.91,0,0,0,159.32,181a67.91,67.91,0,0,0,22.94-22.94A67.91,67.91,0,0,0,205.2,181Z"/><path class="cls-2" d="M192.34,191.09A68.11,68.11,0,0,1,205.2,181a68,68,0,0,0,35.16,9.78A48.26,48.26,0,0,0,192,239.11,67.83,67.83,0,0,0,182.26,204,67.8,67.8,0,0,1,192.34,191.09Z"/><path class="cls-2" d="M172.18,170.93A67.48,67.48,0,0,1,159.32,181a67.83,67.83,0,0,0-35.16-9.78,48.26,48.26,0,0,0,48.32-48.32,68,68,0,0,0,9.78,35.16A67.8,67.8,0,0,1,172.18,170.93Z"/><path class="cls-1" d="M321.4,297.21a68,68,0,0,0-22.93,22.94,68.15,68.15,0,0,0-22.94-22.94,68.15,68.15,0,0,0,22.94-22.94,68,68,0,0,0,22.93,22.94Z"/><path class="cls-2" d="M308.55,307.29a67.73,67.73,0,0,1,12.85-10.08A67.89,67.89,0,0,0,356.57,307a48.28,48.28,0,0,0-48.33,48.32,67.94,67.94,0,0,0-9.77-35.16A67.71,67.71,0,0,1,308.55,307.29Z"/><path class="cls-2" d="M288.38,287.13a67.73,67.73,0,0,1-12.85,10.08,68,68,0,0,0-35.17-9.78,48.26,48.26,0,0,0,48.33-48.32,67.83,67.83,0,0,0,9.78,35.16A67.54,67.54,0,0,1,288.38,287.13Z"/><path class="cls-1" d="M321.4,181A68,68,0,0,0,298.47,204,68.15,68.15,0,0,0,275.53,181a68.15,68.15,0,0,0,22.94-22.94A68,68,0,0,0,321.4,181Z"/><path class="cls-2" d="M308.55,191.09A67.73,67.73,0,0,1,321.4,181a68,68,0,0,0,35.17,9.78,48.26,48.26,0,0,0-48.33,48.32A67.92,67.92,0,0,0,298.47,204,67.4,67.4,0,0,1,308.55,191.09Z"/><path class="cls-2" d="M288.38,170.93A67.73,67.73,0,0,1,275.53,181a67.89,67.89,0,0,0-35.17-9.78,48.28,48.28,0,0,0,48.33-48.32,67.86,67.86,0,0,0,9.78,35.16A67.85,67.85,0,0,1,288.38,170.93Z"/><path class="cls-1" d="M89,529.62a67.91,67.91,0,0,0-22.94,22.94,67.91,67.91,0,0,0-22.94-22.94,67.91,67.91,0,0,0,22.94-22.94A67.91,67.91,0,0,0,89,529.62Z"/><path class="cls-2" d="M76.14,539.7A67.8,67.8,0,0,1,89,529.62a67.93,67.93,0,0,0,35.16,9.78,48.24,48.24,0,0,0-48.32,48.32,67.93,67.93,0,0,0-9.78-35.16A67.8,67.8,0,0,1,76.14,539.7Z"/><path class="cls-2" d="M56,519.54a67.8,67.8,0,0,1-12.86,10.08A67.86,67.86,0,0,0,8,519.84a48.28,48.28,0,0,0,48.32-48.32,67.86,67.86,0,0,0,9.78,35.16A67.8,67.8,0,0,1,56,519.54Z"/><path class="cls-1" d="M89,413.42a68,68,0,0,0-22.94,22.93A67.73,67.73,0,0,0,56,423.5a67.4,67.4,0,0,0-12.86-10.08A67.85,67.85,0,0,0,56,403.33a67.73,67.73,0,0,0,10.08-12.85A68.15,68.15,0,0,0,89,413.42Z"/><path class="cls-2" d="M76.14,423.5A67.4,67.4,0,0,1,89,413.42a67.92,67.92,0,0,0,35.16,9.77,48.26,48.26,0,0,0-48.32,48.33,68,68,0,0,0-9.78-35.17A67.73,67.73,0,0,1,76.14,423.5Z"/><path class="cls-2" d="M56,403.33a67.85,67.85,0,0,1-12.86,10.09A67.86,67.86,0,0,0,8,403.64a48.28,48.28,0,0,0,48.32-48.33,67.89,67.89,0,0,0,9.78,35.17A67.73,67.73,0,0,1,56,403.33Z"/><path class="cls-1" d="M205.2,529.62a67.91,67.91,0,0,0-22.94,22.94,67.91,67.91,0,0,0-22.94-22.94,67.91,67.91,0,0,0,22.94-22.94,67.91,67.91,0,0,0,22.94,22.94Z"/><path class="cls-2" d="M192.34,539.7a68.11,68.11,0,0,1,12.86-10.08,68,68,0,0,0,35.16,9.78A48.26,48.26,0,0,0,192,587.72a67.83,67.83,0,0,0-9.78-35.16A67.8,67.8,0,0,1,192.34,539.7Z"/><path class="cls-2" d="M172.18,519.54a67.48,67.48,0,0,1-12.86,10.08,67.83,67.83,0,0,0-35.16-9.78,48.26,48.26,0,0,0,48.32-48.32,68,68,0,0,0,9.78,35.16A67.8,67.8,0,0,1,172.18,519.54Z"/><path class="cls-1" d="M205.2,413.42a68,68,0,0,0-22.94,22.93,68,68,0,0,0-22.94-22.93,68.15,68.15,0,0,0,22.94-22.94,68.15,68.15,0,0,0,22.94,22.94Z"/><path class="cls-2" d="M192.34,423.5a67.71,67.71,0,0,1,12.86-10.08,67.94,67.94,0,0,0,35.16,9.77A48.28,48.28,0,0,0,192,471.52a67.89,67.89,0,0,0-9.78-35.17A67.73,67.73,0,0,1,192.34,423.5Z"/><path class="cls-2" d="M172.18,403.33a67.54,67.54,0,0,1-12.86,10.09,67.83,67.83,0,0,0-35.16-9.78,48.26,48.26,0,0,0,48.32-48.33,68,68,0,0,0,9.78,35.17A67.73,67.73,0,0,1,172.18,403.33Z"/><path class="cls-1" d="M89,413.42a68,68,0,0,0-22.94,22.93A67.73,67.73,0,0,0,56,423.5a67.4,67.4,0,0,0-12.86-10.08A67.85,67.85,0,0,0,56,403.33a67.73,67.73,0,0,0,10.08-12.85A68.15,68.15,0,0,0,89,413.42Z"/><path class="cls-2" d="M76.14,423.5A67.4,67.4,0,0,1,89,413.42a67.92,67.92,0,0,0,35.16,9.77,48.26,48.26,0,0,0-48.32,48.33,68,68,0,0,0-9.78-35.17A67.73,67.73,0,0,1,76.14,423.5Z"/><path class="cls-2" d="M56,403.33a67.85,67.85,0,0,1-12.86,10.09A67.86,67.86,0,0,0,8,403.64a48.28,48.28,0,0,0,48.32-48.33,67.89,67.89,0,0,0,9.78,35.17A67.73,67.73,0,0,1,56,403.33Z"/><path class="cls-1" d="M89,297.21a67.91,67.91,0,0,0-22.94,22.94A68.11,68.11,0,0,0,56,307.29a67.8,67.8,0,0,0-12.86-10.08A67.8,67.8,0,0,0,56,287.13a67.48,67.48,0,0,0,10.08-12.86A67.91,67.91,0,0,0,89,297.21Z"/><path class="cls-2" d="M76.14,307.29A67.8,67.8,0,0,1,89,297.21,67.83,67.83,0,0,0,124.16,307a48.26,48.26,0,0,0-48.32,48.32,68,68,0,0,0-9.78-35.16A68.11,68.11,0,0,1,76.14,307.29Z"/><path class="cls-2" d="M56,287.13a67.8,67.8,0,0,1-12.86,10.08A68,68,0,0,0,8,287.43a48.26,48.26,0,0,0,48.32-48.32,67.83,67.83,0,0,0,9.78,35.16A67.48,67.48,0,0,1,56,287.13Z"/><path class="cls-1" d="M205.2,413.42a68,68,0,0,0-22.94,22.93,68,68,0,0,0-22.94-22.93,68.15,68.15,0,0,0,22.94-22.94,68.15,68.15,0,0,0,22.94,22.94Z"/><path class="cls-2" d="M192.34,423.5a67.71,67.71,0,0,1,12.86-10.08,67.94,67.94,0,0,0,35.16,9.77A48.28,48.28,0,0,0,192,471.52a67.89,67.89,0,0,0-9.78-35.17A67.73,67.73,0,0,1,192.34,423.5Z"/><path class="cls-2" d="M172.18,403.33a67.54,67.54,0,0,1-12.86,10.09,67.83,67.83,0,0,0-35.16-9.78,48.26,48.26,0,0,0,48.32-48.33,68,68,0,0,0,9.78,35.17A67.73,67.73,0,0,1,172.18,403.33Z"/><path class="cls-1" d="M205.2,297.21a67.91,67.91,0,0,0-22.94,22.94,67.91,67.91,0,0,0-22.94-22.94,67.91,67.91,0,0,0,22.94-22.94,67.91,67.91,0,0,0,22.94,22.94Z"/><path class="cls-2" d="M192.34,307.29a68.11,68.11,0,0,1,12.86-10.08A67.86,67.86,0,0,0,240.36,307,48.28,48.28,0,0,0,192,355.31a67.86,67.86,0,0,0-9.78-35.16A68.11,68.11,0,0,1,192.34,307.29Z"/><path class="cls-2" d="M172.18,287.13a67.48,67.48,0,0,1-12.86,10.08,67.93,67.93,0,0,0-35.16-9.78,48.24,48.24,0,0,0,48.32-48.32,67.93,67.93,0,0,0,9.78,35.16A67.48,67.48,0,0,1,172.18,287.13Z"/><path class="cls-1" d="M89,297.21a67.91,67.91,0,0,0-22.94,22.94A68.11,68.11,0,0,0,56,307.29a67.8,67.8,0,0,0-12.86-10.08A67.8,67.8,0,0,0,56,287.13a67.48,67.48,0,0,0,10.08-12.86A67.91,67.91,0,0,0,89,297.21Z"/><path class="cls-2" d="M76.14,307.29A67.8,67.8,0,0,1,89,297.21,67.83,67.83,0,0,0,124.16,307a48.26,48.26,0,0,0-48.32,48.32,68,68,0,0,0-9.78-35.16A68.11,68.11,0,0,1,76.14,307.29Z"/><path class="cls-2" d="M56,287.13a67.8,67.8,0,0,1-12.86,10.08A68,68,0,0,0,8,287.43a48.26,48.26,0,0,0,48.32-48.32,67.83,67.83,0,0,0,9.78,35.16A67.48,67.48,0,0,1,56,287.13Z"/><path class="cls-1" d="M89,181A67.91,67.91,0,0,0,66.06,204,67.91,67.91,0,0,0,43.12,181a67.91,67.91,0,0,0,22.94-22.94A67.91,67.91,0,0,0,89,181Z"/><path class="cls-2" d="M76.14,191.09A67.8,67.8,0,0,1,89,181a67.93,67.93,0,0,0,35.16,9.78,48.24,48.24,0,0,0-48.32,48.32A67.93,67.93,0,0,0,66.06,204,67.8,67.8,0,0,1,76.14,191.09Z"/><path class="cls-2" d="M56,170.93A67.8,67.8,0,0,1,43.12,181,67.86,67.86,0,0,0,8,171.23a48.28,48.28,0,0,0,48.32-48.32,67.86,67.86,0,0,0,9.78,35.16A67.8,67.8,0,0,1,56,170.93Z"/><path class="cls-1" d="M205.2,297.21a67.91,67.91,0,0,0-22.94,22.94,67.91,67.91,0,0,0-22.94-22.94,67.91,67.91,0,0,0,22.94-22.94,67.91,67.91,0,0,0,22.94,22.94Z"/><path class="cls-2" d="M192.34,307.29a68.11,68.11,0,0,1,12.86-10.08A67.86,67.86,0,0,0,240.36,307,48.28,48.28,0,0,0,192,355.31a67.86,67.86,0,0,0-9.78-35.16A68.11,68.11,0,0,1,192.34,307.29Z"/><path class="cls-2" d="M172.18,287.13a67.48,67.48,0,0,1-12.86,10.08,67.93,67.93,0,0,0-35.16-9.78,48.24,48.24,0,0,0,48.32-48.32,67.93,67.93,0,0,0,9.78,35.16A67.48,67.48,0,0,1,172.18,287.13Z"/><path class="cls-1" d="M205.2,181A67.91,67.91,0,0,0,182.26,204,67.91,67.91,0,0,0,159.32,181a67.91,67.91,0,0,0,22.94-22.94A67.91,67.91,0,0,0,205.2,181Z"/><path class="cls-2" d="M192.34,191.09A68.11,68.11,0,0,1,205.2,181a68,68,0,0,0,35.16,9.78A48.26,48.26,0,0,0,192,239.11,67.83,67.83,0,0,0,182.26,204,67.8,67.8,0,0,1,192.34,191.09Z"/><path class="cls-2" d="M172.18,170.93A67.48,67.48,0,0,1,159.32,181a67.83,67.83,0,0,0-35.16-9.78,48.26,48.26,0,0,0,48.32-48.32,68,68,0,0,0,9.78,35.16A67.8,67.8,0,0,1,172.18,170.93Z"/><path class="cls-1" d="M205.2,413.42a68,68,0,0,0-22.94,22.93,68,68,0,0,0-22.94-22.93,68.15,68.15,0,0,0,22.94-22.94,68.15,68.15,0,0,0,22.94,22.94Z"/><path class="cls-2" d="M192.34,423.5a67.71,67.71,0,0,1,12.86-10.08,67.94,67.94,0,0,0,35.16,9.77A48.28,48.28,0,0,0,192,471.52a67.89,67.89,0,0,0-9.78-35.17A67.73,67.73,0,0,1,192.34,423.5Z"/><path class="cls-2" d="M172.18,403.33a67.54,67.54,0,0,1-12.86,10.09,67.83,67.83,0,0,0-35.16-9.78,48.26,48.26,0,0,0,48.32-48.33,68,68,0,0,0,9.78,35.17A67.73,67.73,0,0,1,172.18,403.33Z"/><path class="cls-1" d="M205.2,297.21a67.91,67.91,0,0,0-22.94,22.94,67.91,67.91,0,0,0-22.94-22.94,67.91,67.91,0,0,0,22.94-22.94,67.91,67.91,0,0,0,22.94,22.94Z"/><path class="cls-2" d="M192.34,307.29a68.11,68.11,0,0,1,12.86-10.08A67.86,67.86,0,0,0,240.36,307,48.28,48.28,0,0,0,192,355.31a67.86,67.86,0,0,0-9.78-35.16A68.11,68.11,0,0,1,192.34,307.29Z"/><path class="cls-2" d="M172.18,287.13a67.48,67.48,0,0,1-12.86,10.08,67.93,67.93,0,0,0-35.16-9.78,48.24,48.24,0,0,0,48.32-48.32,67.93,67.93,0,0,0,9.78,35.16A67.48,67.48,0,0,1,172.18,287.13Z"/><path class="cls-1" d="M321.4,413.42a68.09,68.09,0,0,0-22.93,22.93,68.24,68.24,0,0,0-22.94-22.93,68.39,68.39,0,0,0,22.94-22.94,68.24,68.24,0,0,0,22.93,22.94Z"/><path class="cls-2" d="M308.55,423.5a67.34,67.34,0,0,1,12.85-10.08,68,68,0,0,0,35.17,9.77,48.28,48.28,0,0,0-48.33,48.33,68,68,0,0,0-9.77-35.17A67.34,67.34,0,0,1,308.55,423.5Z"/><path class="cls-2" d="M288.38,403.33a67.79,67.79,0,0,1-12.85,10.09,67.89,67.89,0,0,0-35.17-9.78,48.28,48.28,0,0,0,48.33-48.33,67.89,67.89,0,0,0,9.78,35.17A67.79,67.79,0,0,1,288.38,403.33Z"/><path class="cls-1" d="M321.4,297.21a68,68,0,0,0-22.93,22.94,68.15,68.15,0,0,0-22.94-22.94,68.15,68.15,0,0,0,22.94-22.94,68,68,0,0,0,22.93,22.94Z"/><path class="cls-2" d="M308.55,307.29a67.73,67.73,0,0,1,12.85-10.08A67.89,67.89,0,0,0,356.57,307a48.28,48.28,0,0,0-48.33,48.32,67.94,67.94,0,0,0-9.77-35.16A67.71,67.71,0,0,1,308.55,307.29Z"/><path class="cls-2" d="M288.38,287.13a67.73,67.73,0,0,1-12.85,10.08,68,68,0,0,0-35.17-9.78,48.26,48.26,0,0,0,48.33-48.32,67.83,67.83,0,0,0,9.78,35.16A67.54,67.54,0,0,1,288.38,287.13Z"/><path class="cls-1" d="M205.2,297.21a67.91,67.91,0,0,0-22.94,22.94,67.91,67.91,0,0,0-22.94-22.94,67.91,67.91,0,0,0,22.94-22.94,67.91,67.91,0,0,0,22.94,22.94Z"/><path class="cls-2" d="M192.34,307.29a68.11,68.11,0,0,1,12.86-10.08A67.86,67.86,0,0,0,240.36,307,48.28,48.28,0,0,0,192,355.31a67.86,67.86,0,0,0-9.78-35.16A68.11,68.11,0,0,1,192.34,307.29Z"/><path class="cls-2" d="M172.18,287.13a67.48,67.48,0,0,1-12.86,10.08,67.93,67.93,0,0,0-35.16-9.78,48.24,48.24,0,0,0,48.32-48.32,67.93,67.93,0,0,0,9.78,35.16A67.48,67.48,0,0,1,172.18,287.13Z"/><path class="cls-1" d="M205.2,181A67.91,67.91,0,0,0,182.26,204,67.91,67.91,0,0,0,159.32,181a67.91,67.91,0,0,0,22.94-22.94A67.91,67.91,0,0,0,205.2,181Z"/><path class="cls-2" d="M192.34,191.09A68.11,68.11,0,0,1,205.2,181a68,68,0,0,0,35.16,9.78A48.26,48.26,0,0,0,192,239.11,67.83,67.83,0,0,0,182.26,204,67.8,67.8,0,0,1,192.34,191.09Z"/><path class="cls-2" d="M172.18,170.93A67.48,67.48,0,0,1,159.32,181a67.83,67.83,0,0,0-35.16-9.78,48.26,48.26,0,0,0,48.32-48.32,68,68,0,0,0,9.78,35.16A67.8,67.8,0,0,1,172.18,170.93Z"/><path class="cls-1" d="M321.4,297.21a68,68,0,0,0-22.93,22.94,68.15,68.15,0,0,0-22.94-22.94,68.15,68.15,0,0,0,22.94-22.94,68,68,0,0,0,22.93,22.94Z"/><path class="cls-2" d="M308.55,307.29a67.73,67.73,0,0,1,12.85-10.08A67.89,67.89,0,0,0,356.57,307a48.28,48.28,0,0,0-48.33,48.32,67.94,67.94,0,0,0-9.77-35.16A67.71,67.71,0,0,1,308.55,307.29Z"/><path class="cls-2" d="M288.38,287.13a67.73,67.73,0,0,1-12.85,10.08,68,68,0,0,0-35.17-9.78,48.26,48.26,0,0,0,48.33-48.32,67.83,67.83,0,0,0,9.78,35.16A67.54,67.54,0,0,1,288.38,287.13Z"/><path class="cls-1" d="M321.4,181A68,68,0,0,0,298.47,204,68.15,68.15,0,0,0,275.53,181a68.15,68.15,0,0,0,22.94-22.94A68,68,0,0,0,321.4,181Z"/><path class="cls-2" d="M308.55,191.09A67.73,67.73,0,0,1,321.4,181a68,68,0,0,0,35.17,9.78,48.26,48.26,0,0,0-48.33,48.32A67.92,67.92,0,0,0,298.47,204,67.4,67.4,0,0,1,308.55,191.09Z"/><path class="cls-2" d="M288.38,170.93A67.73,67.73,0,0,1,275.53,181a67.89,67.89,0,0,0-35.17-9.78,48.28,48.28,0,0,0,48.33-48.32,67.86,67.86,0,0,0,9.78,35.16A67.85,67.85,0,0,1,288.38,170.93Z"/><path class="cls-1" d="M205.2,181A67.91,67.91,0,0,0,182.26,204,67.91,67.91,0,0,0,159.32,181a67.91,67.91,0,0,0,22.94-22.94A67.91,67.91,0,0,0,205.2,181Z"/><path class="cls-2" d="M192.34,191.09A68.11,68.11,0,0,1,205.2,181a68,68,0,0,0,35.16,9.78A48.26,48.26,0,0,0,192,239.11,67.83,67.83,0,0,0,182.26,204,67.8,67.8,0,0,1,192.34,191.09Z"/><path class="cls-2" d="M172.18,170.93A67.48,67.48,0,0,1,159.32,181a67.83,67.83,0,0,0-35.16-9.78,48.26,48.26,0,0,0,48.32-48.32,68,68,0,0,0,9.78,35.16A67.8,67.8,0,0,1,172.18,170.93Z"/><path class="cls-1" d="M205.2,64.81a68,68,0,0,0-22.94,22.93,68,68,0,0,0-22.94-22.93,67.54,67.54,0,0,0,12.86-10.09,67.73,67.73,0,0,0,10.08-12.85,67.73,67.73,0,0,0,10.08,12.85A68.17,68.17,0,0,0,205.2,64.81Z"/><path class="cls-2" d="M192.34,74.89A68.11,68.11,0,0,1,205.2,64.81a67.94,67.94,0,0,0,35.16,9.77A48.28,48.28,0,0,0,192,122.91a67.89,67.89,0,0,0-9.78-35.17A67.73,67.73,0,0,1,192.34,74.89Z"/><path class="cls-2" d="M172.18,54.72a67.54,67.54,0,0,1-12.86,10.09A67.83,67.83,0,0,0,124.16,55,48.26,48.26,0,0,0,172.48,6.7a68,68,0,0,0,9.78,35.17A67.73,67.73,0,0,1,172.18,54.72Z"/><path class="cls-1" d="M321.4,181A68,68,0,0,0,298.47,204,68.15,68.15,0,0,0,275.53,181a68.15,68.15,0,0,0,22.94-22.94A68,68,0,0,0,321.4,181Z"/><path class="cls-2" d="M308.55,191.09A67.73,67.73,0,0,1,321.4,181a68,68,0,0,0,35.17,9.78,48.26,48.26,0,0,0-48.33,48.32A67.92,67.92,0,0,0,298.47,204,67.4,67.4,0,0,1,308.55,191.09Z"/><path class="cls-2" d="M288.38,170.93A67.73,67.73,0,0,1,275.53,181a67.89,67.89,0,0,0-35.17-9.78,48.28,48.28,0,0,0,48.33-48.32,67.86,67.86,0,0,0,9.78,35.16A67.85,67.85,0,0,1,288.38,170.93Z"/><path class="cls-1" d="M321.4,64.81a68.09,68.09,0,0,0-22.93,22.93,68.24,68.24,0,0,0-22.94-22.93,67.79,67.79,0,0,0,12.85-10.09,67.79,67.79,0,0,0,10.09-12.85,67.34,67.34,0,0,0,10.08,12.85A67.79,67.79,0,0,0,321.4,64.81Z"/><path class="cls-2" d="M308.55,74.89A67.73,67.73,0,0,1,321.4,64.81a68,68,0,0,0,35.17,9.77,48.28,48.28,0,0,0-48.33,48.33,68,68,0,0,0-9.77-35.17A67.34,67.34,0,0,1,308.55,74.89Z"/><path class="cls-2" d="M288.38,54.72a67.79,67.79,0,0,1-12.85,10.09A67.89,67.89,0,0,0,240.36,55,48.28,48.28,0,0,0,288.69,6.7a67.89,67.89,0,0,0,9.78,35.17A67.79,67.79,0,0,1,288.38,54.72Z"/><path class="cls-1" d="M89,413.42a68,68,0,0,0-22.94,22.93A67.73,67.73,0,0,0,56,423.5a67.4,67.4,0,0,0-12.86-10.08A67.85,67.85,0,0,0,56,403.33a67.73,67.73,0,0,0,10.08-12.85A68.15,68.15,0,0,0,89,413.42Z"/><path class="cls-2" d="M76.14,423.5A67.4,67.4,0,0,1,89,413.42a67.92,67.92,0,0,0,35.16,9.77,48.26,48.26,0,0,0-48.32,48.33,68,68,0,0,0-9.78-35.17A67.73,67.73,0,0,1,76.14,423.5Z"/><path class="cls-2" d="M56,403.33a67.85,67.85,0,0,1-12.86,10.09A67.86,67.86,0,0,0,8,403.64a48.28,48.28,0,0,0,48.32-48.33,67.89,67.89,0,0,0,9.78,35.17A67.73,67.73,0,0,1,56,403.33Z"/><path class="cls-1" d="M89,297.21a67.91,67.91,0,0,0-22.94,22.94A68.11,68.11,0,0,0,56,307.29a67.8,67.8,0,0,0-12.86-10.08A67.8,67.8,0,0,0,56,287.13a67.48,67.48,0,0,0,10.08-12.86A67.91,67.91,0,0,0,89,297.21Z"/><path class="cls-2" d="M76.14,307.29A67.8,67.8,0,0,1,89,297.21,67.83,67.83,0,0,0,124.16,307a48.26,48.26,0,0,0-48.32,48.32,68,68,0,0,0-9.78-35.16A68.11,68.11,0,0,1,76.14,307.29Z"/><path class="cls-2" d="M56,287.13a67.8,67.8,0,0,1-12.86,10.08A68,68,0,0,0,8,287.43a48.26,48.26,0,0,0,48.32-48.32,67.83,67.83,0,0,0,9.78,35.16A67.48,67.48,0,0,1,56,287.13Z"/><path class="cls-1" d="M205.2,413.42a68,68,0,0,0-22.94,22.93,68,68,0,0,0-22.94-22.93,68.15,68.15,0,0,0,22.94-22.94,68.15,68.15,0,0,0,22.94,22.94Z"/><path class="cls-2" d="M192.34,423.5a67.71,67.71,0,0,1,12.86-10.08,67.94,67.94,0,0,0,35.16,9.77A48.28,48.28,0,0,0,192,471.52a67.89,67.89,0,0,0-9.78-35.17A67.73,67.73,0,0,1,192.34,423.5Z"/><path class="cls-2" d="M172.18,403.33a67.54,67.54,0,0,1-12.86,10.09,67.83,67.83,0,0,0-35.16-9.78,48.26,48.26,0,0,0,48.32-48.33,68,68,0,0,0,9.78,35.17A67.73,67.73,0,0,1,172.18,403.33Z"/><path class="cls-1" d="M205.2,297.21a67.91,67.91,0,0,0-22.94,22.94,67.91,67.91,0,0,0-22.94-22.94,67.91,67.91,0,0,0,22.94-22.94,67.91,67.91,0,0,0,22.94,22.94Z"/><path class="cls-2" d="M192.34,307.29a68.11,68.11,0,0,1,12.86-10.08A67.86,67.86,0,0,0,240.36,307,48.28,48.28,0,0,0,192,355.31a67.86,67.86,0,0,0-9.78-35.16A68.11,68.11,0,0,1,192.34,307.29Z"/><path class="cls-2" d="M172.18,287.13a67.48,67.48,0,0,1-12.86,10.08,67.93,67.93,0,0,0-35.16-9.78,48.24,48.24,0,0,0,48.32-48.32,67.93,67.93,0,0,0,9.78,35.16A67.48,67.48,0,0,1,172.18,287.13Z"/><path class="cls-1" d="M89,297.21a67.91,67.91,0,0,0-22.94,22.94A68.11,68.11,0,0,0,56,307.29a67.8,67.8,0,0,0-12.86-10.08A67.8,67.8,0,0,0,56,287.13a67.48,67.48,0,0,0,10.08-12.86A67.91,67.91,0,0,0,89,297.21Z"/><path class="cls-2" d="M76.14,307.29A67.8,67.8,0,0,1,89,297.21,67.83,67.83,0,0,0,124.16,307a48.26,48.26,0,0,0-48.32,48.32,68,68,0,0,0-9.78-35.16A68.11,68.11,0,0,1,76.14,307.29Z"/><path class="cls-2" d="M56,287.13a67.8,67.8,0,0,1-12.86,10.08A68,68,0,0,0,8,287.43a48.26,48.26,0,0,0,48.32-48.32,67.83,67.83,0,0,0,9.78,35.16A67.48,67.48,0,0,1,56,287.13Z"/><path class="cls-1" d="M89,181A67.91,67.91,0,0,0,66.06,204,67.91,67.91,0,0,0,43.12,181a67.91,67.91,0,0,0,22.94-22.94A67.91,67.91,0,0,0,89,181Z"/><path class="cls-2" d="M76.14,191.09A67.8,67.8,0,0,1,89,181a67.93,67.93,0,0,0,35.16,9.78,48.24,48.24,0,0,0-48.32,48.32A67.93,67.93,0,0,0,66.06,204,67.8,67.8,0,0,1,76.14,191.09Z"/><path class="cls-2" d="M56,170.93A67.8,67.8,0,0,1,43.12,181,67.86,67.86,0,0,0,8,171.23a48.28,48.28,0,0,0,48.32-48.32,67.86,67.86,0,0,0,9.78,35.16A67.8,67.8,0,0,1,56,170.93Z"/><path class="cls-1" d="M205.2,297.21a67.91,67.91,0,0,0-22.94,22.94,67.91,67.91,0,0,0-22.94-22.94,67.91,67.91,0,0,0,22.94-22.94,67.91,67.91,0,0,0,22.94,22.94Z"/><path class="cls-2" d="M192.34,307.29a68.11,68.11,0,0,1,12.86-10.08A67.86,67.86,0,0,0,240.36,307,48.28,48.28,0,0,0,192,355.31a67.86,67.86,0,0,0-9.78-35.16A68.11,68.11,0,0,1,192.34,307.29Z"/><path class="cls-2" d="M172.18,287.13a67.48,67.48,0,0,1-12.86,10.08,67.93,67.93,0,0,0-35.16-9.78,48.24,48.24,0,0,0,48.32-48.32,67.93,67.93,0,0,0,9.78,35.16A67.48,67.48,0,0,1,172.18,287.13Z"/><path class="cls-1" d="M205.2,181A67.91,67.91,0,0,0,182.26,204,67.91,67.91,0,0,0,159.32,181a67.91,67.91,0,0,0,22.94-22.94A67.91,67.91,0,0,0,205.2,181Z"/><path class="cls-2" d="M192.34,191.09A68.11,68.11,0,0,1,205.2,181a68,68,0,0,0,35.16,9.78A48.26,48.26,0,0,0,192,239.11,67.83,67.83,0,0,0,182.26,204,67.8,67.8,0,0,1,192.34,191.09Z"/><path class="cls-2" d="M172.18,170.93A67.48,67.48,0,0,1,159.32,181a67.83,67.83,0,0,0-35.16-9.78,48.26,48.26,0,0,0,48.32-48.32,68,68,0,0,0,9.78,35.16A67.8,67.8,0,0,1,172.18,170.93Z"/><path class="cls-1" d="M89,181A67.91,67.91,0,0,0,66.06,204,67.91,67.91,0,0,0,43.12,181a67.91,67.91,0,0,0,22.94-22.94A67.91,67.91,0,0,0,89,181Z"/><path class="cls-2" d="M76.14,191.09A67.8,67.8,0,0,1,89,181a67.93,67.93,0,0,0,35.16,9.78,48.24,48.24,0,0,0-48.32,48.32A67.93,67.93,0,0,0,66.06,204,67.8,67.8,0,0,1,76.14,191.09Z"/><path class="cls-2" d="M56,170.93A67.8,67.8,0,0,1,43.12,181,67.86,67.86,0,0,0,8,171.23a48.28,48.28,0,0,0,48.32-48.32,67.86,67.86,0,0,0,9.78,35.16A67.8,67.8,0,0,1,56,170.93Z"/><path class="cls-1" d="M89,64.81A68,68,0,0,0,66.06,87.74,67.73,67.73,0,0,0,56,74.89,67.8,67.8,0,0,0,43.12,64.81,67.85,67.85,0,0,0,56,54.72,67.73,67.73,0,0,0,66.06,41.87,68.15,68.15,0,0,0,89,64.81Z"/><path class="cls-2" d="M76.14,74.89A67.8,67.8,0,0,1,89,64.81a67.92,67.92,0,0,0,35.16,9.77,48.26,48.26,0,0,0-48.32,48.33,68,68,0,0,0-9.78-35.17A67.73,67.73,0,0,1,76.14,74.89Z"/><path class="cls-2" d="M56,54.72A67.85,67.85,0,0,1,43.12,64.81,67.86,67.86,0,0,0,8,55,48.16,48.16,0,0,0,42.14,40.89,48.16,48.16,0,0,0,56.28,6.7a67.89,67.89,0,0,0,9.78,35.17A67.73,67.73,0,0,1,56,54.72Z"/><path class="cls-1" d="M205.2,181A67.91,67.91,0,0,0,182.26,204,67.91,67.91,0,0,0,159.32,181a67.91,67.91,0,0,0,22.94-22.94A67.91,67.91,0,0,0,205.2,181Z"/><path class="cls-2" d="M192.34,191.09A68.11,68.11,0,0,1,205.2,181a68,68,0,0,0,35.16,9.78A48.26,48.26,0,0,0,192,239.11,67.83,67.83,0,0,0,182.26,204,67.8,67.8,0,0,1,192.34,191.09Z"/><path class="cls-2" d="M172.18,170.93A67.48,67.48,0,0,1,159.32,181a67.83,67.83,0,0,0-35.16-9.78,48.26,48.26,0,0,0,48.32-48.32,68,68,0,0,0,9.78,35.16A67.8,67.8,0,0,1,172.18,170.93Z"/><path class="cls-1" d="M205.2,64.81a68,68,0,0,0-22.94,22.93,68,68,0,0,0-22.94-22.93,67.54,67.54,0,0,0,12.86-10.09,67.73,67.73,0,0,0,10.08-12.85,67.73,67.73,0,0,0,10.08,12.85A68.17,68.17,0,0,0,205.2,64.81Z"/><path class="cls-2" d="M192.34,74.89A68.11,68.11,0,0,1,205.2,64.81a67.94,67.94,0,0,0,35.16,9.77A48.28,48.28,0,0,0,192,122.91a67.89,67.89,0,0,0-9.78-35.17A67.73,67.73,0,0,1,192.34,74.89Z"/><path class="cls-2" d="M172.18,54.72a67.54,67.54,0,0,1-12.86,10.09A67.83,67.83,0,0,0,124.16,55,48.26,48.26,0,0,0,172.48,6.7a68,68,0,0,0,9.78,35.17A67.73,67.73,0,0,1,172.18,54.72Z"/><path class="cls-3" d="M143.6,536.56a64.8,64.8,0,0,1-7.47,1.77,67.78,67.78,0,0,1-12,1.07h0A67.93,67.93,0,0,1,89,529.62a67.83,67.83,0,0,1,35.16-9.78h0a68,68,0,0,1,28.75,6.36c.78.36,1.55.74,2.31,1.13q2.09,1.06,4.1,2.29a67.42,67.42,0,0,1-12.64,6C145.66,535.93,144.63,536.26,143.6,536.56Z"/><path class="cls-3" d="M298.47,552.56a67.92,67.92,0,0,1,9.77,35.16H288.69A67.83,67.83,0,0,1,298.47,552.56Z"/><path class="cls-3" d="M240.36,539.4h0A68.71,68.71,0,0,1,228,538.26c-1.64-.31-3.26-.67-4.87-1.09-1.78-.46-3.53-1-5.27-1.59a68,68,0,0,1-12.64-6,68.29,68.29,0,0,1,6.13-3.29l.22-.1a68,68,0,0,1,28.81-6.39h0a67.89,67.89,0,0,1,35.17,9.78,68,68,0,0,1-35.17,9.78Z"/><path class="cls-3" d="M321.4,529.62a67.89,67.89,0,0,1,35.17-9.78V539.4A68,68,0,0,1,321.4,529.62Z"/><path class="cls-3" d="M340.68,421.32c-.75-.18-1.49-.37-2.23-.57a68,68,0,0,1-17.05-7.33h0a67.89,67.89,0,0,1,35.17-9.78h0v19.55h0a69.14,69.14,0,0,1-11.4-.95C343.67,422,342.17,421.68,340.68,421.32Z"/><path class="cls-3" d="M303.26,380.89c-.28.69-.58,1.38-.88,2.07-.4.91-.83,1.81-1.27,2.7-.72,1.44-1.49,2.85-2.31,4.25-.12.19-.22.38-.33.57A67.09,67.09,0,0,1,291,372.86a68.14,68.14,0,0,1-2.3-17.55h0a68.12,68.12,0,0,1,2.3-17.54,67,67,0,0,1,2.32-7.15,69.66,69.66,0,0,1,2.86-6.37c.72-1.39,1.48-2.75,2.3-4.1h0a67.88,67.88,0,0,1,9.77,35.16h0A68.24,68.24,0,0,1,303.26,380.89Z"/><path class="cls-3" d="M308.24,471.52h0a67.94,67.94,0,0,1-9.77,35.16,67.86,67.86,0,0,1-9.78-35.16h0a68,68,0,0,1,9.78-35.17h0c.76,1.26,1.47,2.54,2.14,3.83l.15.28v0c.67,1.31,1.3,2.63,1.88,4,.08.2.17.4.25.61a68,68,0,0,1,5.34,26.45Z"/><path class="cls-3" d="M240.36,423.19h0a69.11,69.11,0,0,1-11.39-.95c-1-.17-2-.37-3-.59s-1.91-.43-2.85-.68l-.87-.22c-1.48-.41-2.94-.87-4.4-1.38l-.63-.23-1.82-.68c-1.29-.51-2.58-1.06-3.84-1.66l-.17-.07a68,68,0,0,1-6.18-3.31h0a67.86,67.86,0,0,1,35.16-9.78h0a67.89,67.89,0,0,1,35.17,9.78h0A68,68,0,0,1,240.36,423.19Z"/><path class="cls-3" d="M306.87,252.76c-.16.75-.32,1.5-.5,2.24a68,68,0,0,1-2.75,8.81c-.47,1.21-1,2.42-1.54,3.61-.2.45-.42.9-.63,1.35-.91,1.87-1.9,3.71-3,5.5h0a66.74,66.74,0,0,1-4.28-8.32,67.74,67.74,0,0,1-5.5-26.84h0A68.28,68.28,0,0,1,291.13,221c.41-1.48.87-3,1.38-4.4a67.14,67.14,0,0,1,4.05-9.26c.6-1.14,1.23-2.27,1.91-3.38h0A67.83,67.83,0,0,1,303.84,215a67.14,67.14,0,0,1,2.53,8.22c.21.86.39,1.73.56,2.6a68.28,68.28,0,0,1,1.31,13.29h0A68.85,68.85,0,0,1,306.87,252.76Z"/><path class="cls-3" d="M240.36,307h0a67.86,67.86,0,0,1-35.16-9.78h0a68.32,68.32,0,0,1,35.16-9.78h0a68.32,68.32,0,0,1,35.17,9.78h0A67.89,67.89,0,0,1,240.36,307Z"/><path class="cls-3" d="M321.4,297.21h0a68,68,0,0,1,35.17-9.78h0V307h0a67.89,67.89,0,0,1-35.17-9.78Z"/><path class="cls-3" d="M240.36,190.79h0A68.71,68.71,0,0,1,228,189.65c-1.64-.31-3.26-.67-4.87-1.09-1.78-.46-3.53-1-5.27-1.59a68,68,0,0,1-12.64-6h0c1.35-.82,2.71-1.58,4.1-2.29.67-.35,1.35-.68,2-1l.22-.1a67.86,67.86,0,0,1,12.92-4.52c1.49-.35,3-.66,4.5-.91a68.05,68.05,0,0,1,11.39-1h0a68.08,68.08,0,0,1,11.4,1c1.5.25,3,.56,4.49.91a67.3,67.3,0,0,1,13.08,4.59c.7.33,1.4.67,2.1,1q2.07,1.07,4.1,2.29h0A68,68,0,0,1,240.36,190.79Z"/><path class="cls-3" d="M321.4,181h0c.68-.41,1.35-.8,2-1.18a67.7,67.7,0,0,1,6.28-3.1c.72-.3,1.43-.6,2.15-.88,1.44-.56,2.9-1.06,4.37-1.52.73-.23,1.47-.45,2.21-.65a68.34,68.34,0,0,1,18.12-2.45h0v19.56h0A68,68,0,0,1,321.4,181Z"/><path class="cls-3" d="M298.47,158.07a67.51,67.51,0,0,1-7.78-18.76,68.36,68.36,0,0,1-2-16.4h0a67.89,67.89,0,0,1,9.78-35.17,68,68,0,0,1,9.77,35.17h0A67.94,67.94,0,0,1,298.47,158.07Z"/><path class="cls-3" d="M66.06,552.56a67.93,67.93,0,0,1,9.78,35.16H56.28A67.83,67.83,0,0,1,66.06,552.56Z"/><path class="cls-3" d="M8,519.84a67.86,67.86,0,0,1,35.16,9.78A68,68,0,0,1,8,539.4Z"/><path class="cls-3" d="M26.08,420.75c-.74.2-1.49.39-2.23.57-1.49.36-3,.66-4.5.92A69.11,69.11,0,0,1,8,423.19H8V403.64H8a67.86,67.86,0,0,1,35.16,9.78h0A67.72,67.72,0,0,1,26.08,420.75Z"/><path class="cls-3" d="M75.49,362.17c-.15,1.51-.35,3-.61,4.54-.15.92-.34,1.83-.53,2.75-.24,1.14-.51,2.27-.81,3.4a66.39,66.39,0,0,1-2.69,8c-.28.69-.57,1.38-.88,2.07-.4.91-.82,1.81-1.27,2.7-.72,1.44-1.48,2.85-2.31,4.25l-.33.57a67.77,67.77,0,0,1-7.48-17.62c-.54-2-1-4.09-1.34-6.15-.26-1.51-.46-3-.61-4.54a68.36,68.36,0,0,1-.35-6.86h0c0-1.52,0-3.05.15-4.57s.26-3,.46-4.55c.12-.88.26-1.75.41-2.62.34-1.95.77-3.89,1.28-5.8a66.23,66.23,0,0,1,5.19-13.52c.71-1.39,1.47-2.75,2.29-4.1h0a66.84,66.84,0,0,1,5.15,10.47,64.83,64.83,0,0,1,2.33,7.15c.34,1.29.65,2.59.92,3.9.31,1.5.56,3,.77,4.52s.35,3,.45,4.55.16,3.05.16,4.57h0A68.36,68.36,0,0,1,75.49,362.17Z"/><path class="cls-3" d="M75.84,471.52a68,68,0,0,1-9.78,35.16,67.86,67.86,0,0,1-9.78-35.16h0c0-.77,0-1.53,0-2.29a69.13,69.13,0,0,1,1-9.62q.49-2.75,1.2-5.44a67.69,67.69,0,0,1,7.53-17.82h0c.76,1.26,1.47,2.54,2.14,3.83l.15.28,0,0c.67,1.31,1.29,2.63,1.87,4,.09.2.17.4.26.61a67.71,67.71,0,0,1,3.09,9.1c.24.9.45,1.8.65,2.71a68.64,68.64,0,0,1,1.56,12.35c0,.76,0,1.52,0,2.29Z"/><path class="cls-3" d="M173.44,576.33a67.61,67.61,0,0,1,8.82-23.77h0a67.36,67.36,0,0,1,7.33,17c.21.74.4,1.48.58,2.23.35,1.49.66,3,.91,4.5a68.05,68.05,0,0,1,1,11.39H172.48A68.05,68.05,0,0,1,173.44,576.33Z"/><path class="cls-3" d="M191.7,362.17c-.16,1.51-.36,3-.62,4.54-.15.92-.33,1.83-.53,2.75-.24,1.14-.51,2.27-.81,3.4-.05.19-.09.38-.15.57a66.82,66.82,0,0,1-2.53,7.46c-.28.69-.58,1.38-.88,2.07-.41.91-.83,1.81-1.28,2.7-.71,1.44-1.48,2.85-2.31,4.25-.11.19-.21.38-.33.57h0a67.77,67.77,0,0,1-7.48-17.62,68.58,68.58,0,0,1-2.3-17.55h0a68.56,68.56,0,0,1,2.3-17.54,69.36,69.36,0,0,1,2.33-7.15,67,67,0,0,1,2.86-6.37c.71-1.39,1.48-2.75,2.29-4.1h0a67,67,0,0,1,7.33,17c.06.19.1.39.15.58.35,1.29.66,2.59.92,3.9q.24,1.13.42,2.25c.13.75.25,1.51.35,2.27.2,1.51.35,3,.46,4.55s.15,3.05.15,4.57h0A68.35,68.35,0,0,1,191.7,362.17Z"/><path class="cls-3" d="M192,471.52a68.05,68.05,0,0,1-1,11.39,65.23,65.23,0,0,1-1.49,6.73c-.4,1.48-.86,2.94-1.37,4.4a67.39,67.39,0,0,1-6,12.64h0a68,68,0,0,1-9.78-35.16h0a68.38,68.38,0,0,1,2.25-17.35,67.69,67.69,0,0,1,7.53-17.82h0c.76,1.26,1.47,2.54,2.14,3.83a2.49,2.49,0,0,1,.15.28l0,0c.67,1.31,1.29,2.63,1.87,4,.09.2.17.4.26.61a65.67,65.67,0,0,1,2.89,8.33c.07.25.14.51.2.77.24.9.46,1.8.65,2.71.24,1.07.46,2.16.64,3.24a68.08,68.08,0,0,1,.92,9.11c0,.76,0,1.52,0,2.29Z"/><path class="cls-3" d="M153.16,416.72l-.25.11c-1.21.57-2.43,1.09-3.66,1.58l-1.93.73-.64.23c-1,.36-2.05.68-3.08,1q-2.74.81-5.54,1.4c-.83.17-1.67.34-2.51.48a69,69,0,0,1-11.39.95h0A67.92,67.92,0,0,1,89,413.42h0a67.83,67.83,0,0,1,35.16-9.78h0A68,68,0,0,1,150.61,409l.61.26c1.34.58,2.66,1.2,4,1.87h0c.89.46,1.77.95,2.64,1.44.49.28,1,.56,1.46.86h0A67.55,67.55,0,0,1,153.16,416.72Z"/><path class="cls-3" d="M8,307H8V287.43H8a68,68,0,0,1,35.16,9.78h0A67.86,67.86,0,0,1,8,307Z"/><path class="cls-3" d="M8,190.79H8V171.23H8a68.05,68.05,0,0,1,11.39,1,68,68,0,0,1,6.73,1.49c.74.2,1.47.42,2.21.65,1.47.46,2.92,1,4.36,1.52.72.28,1.44.58,2.15.88a67.87,67.87,0,0,1,6.29,3.1c.68.38,1.36.77,2,1.18h0A68,68,0,0,1,8,190.79Z"/><path class="cls-3" d="M74.13,138.05q-.13.63-.3,1.26a67.49,67.49,0,0,1-7.77,18.76,67.49,67.49,0,0,1-7.77-18.76c-.33-1.32-.61-2.65-.86-4a68.17,68.17,0,0,1-1.15-12.42h0a67.89,67.89,0,0,1,9.78-35.17,68,68,0,0,1,9.78,35.17h0A68.44,68.44,0,0,1,74.13,138.05Z"/><path class="cls-3" d="M75.68,243.68a68,68,0,0,1-2.29,13.55,68.47,68.47,0,0,1-2.18,6.58c-.47,1.21-1,2.42-1.53,3.61-.21.45-.42.9-.64,1.35-.91,1.87-1.89,3.71-3,5.5h0a67.11,67.11,0,0,1-7.33-17,68,68,0,0,1-2.3-13.55c-.1-1.52-.15-3-.15-4.57h0A68.29,68.29,0,0,1,58.73,221c.4-1.48.86-3,1.37-4.4a68.37,68.37,0,0,1,4.05-9.26c.61-1.14,1.24-2.27,1.91-3.38h0a67.42,67.42,0,0,1,6,12.64c.51,1.45,1,2.92,1.37,4.4a68.29,68.29,0,0,1,2.45,18.12h0C75.84,240.64,75.79,242.16,75.68,243.68Z"/><path class="cls-3" d="M124.16,307h0A67.83,67.83,0,0,1,89,297.21h0a68.27,68.27,0,0,1,35.16-9.78h0a68.09,68.09,0,0,1,9.13.62,67.39,67.39,0,0,1,17.32,4.73l.61.25c1.34.58,2.66,1.2,4,1.87l0,0q1.34.69,2.64,1.44c.49.28,1,.56,1.46.85h0A67.83,67.83,0,0,1,124.16,307Z"/><path class="cls-3" d="M146.68,187c-1,.35-2.05.68-3.08,1a64.8,64.8,0,0,1-7.47,1.77,67.78,67.78,0,0,1-12,1.07h0A67.93,67.93,0,0,1,89,181h0q2-1.23,4.1-2.29c.69-.36,1.39-.7,2.09-1a67.54,67.54,0,0,1,13.08-4.59c1.49-.35,3-.66,4.5-.91a68.05,68.05,0,0,1,11.39-1h0a68,68,0,0,1,11.39,1c1.51.25,3,.56,4.5.91a67.89,67.89,0,0,1,12.86,4.49c.78.36,1.55.74,2.31,1.13h0q2.09,1.07,4.1,2.29h0A67.42,67.42,0,0,1,146.68,187Z"/><path class="cls-3" d="M191.08,134.3c-.21,1.26-.46,2.5-.75,3.75-.09.42-.19.84-.29,1.26s-.29,1.15-.45,1.72a67.36,67.36,0,0,1-7.33,17h0a67.49,67.49,0,0,1-7.77-18.76,68.37,68.37,0,0,1-2-16.4h0a68,68,0,0,1,9.78-35.17h0a67.39,67.39,0,0,1,6,12.64c.51,1.46,1,2.93,1.37,4.41a65,65,0,0,1,1.49,6.72,68.17,68.17,0,0,1,1,11.4h0A68.05,68.05,0,0,1,191.08,134.3Z"/><path class="cls-3" d="M191.89,243.68a67.83,67.83,0,0,1-.81,6.82,65.23,65.23,0,0,1-1.49,6.73c-.4,1.48-.86,2.95-1.37,4.4-.26.73-.52,1.45-.8,2.18-.48,1.21-1,2.42-1.54,3.61-.21.45-.42.9-.64,1.35-.9,1.87-1.89,3.71-3,5.5h0a68.07,68.07,0,0,1-7.33-17,68.29,68.29,0,0,1-2.45-18.12h0A68.29,68.29,0,0,1,174.93,221c.41-1.48.87-3,1.38-4.4a66,66,0,0,1,4.05-9.26c.6-1.14,1.23-2.27,1.9-3.38h0a66.8,66.8,0,0,1,6,12.64c.51,1.45,1,2.92,1.37,4.4a65.23,65.23,0,0,1,1.49,6.73,68.05,68.05,0,0,1,1,11.39h0C192,240.64,192,242.16,191.89,243.68Z"/><path class="cls-3" d="M240.36,74.58h0a68.38,68.38,0,0,1-19-2.71c-1.16-.34-2.32-.7-3.47-1.1h0l-.64-.23-1.81-.68c-1.29-.51-2.58-1.06-3.84-1.66l-.17-.07a68,68,0,0,1-6.18-3.31A67.07,67.07,0,0,1,214.71,60c.46-.18.91-.37,1.37-.54A68.05,68.05,0,0,1,240.36,55h0a67.89,67.89,0,0,1,35.17,9.78,68,68,0,0,1-35.17,9.77Z"/><path class="cls-3" d="M356.57,55V74.58a68,68,0,0,1-35.17-9.77A67.89,67.89,0,0,1,356.57,55Z"/><path class="cls-3" d="M288.69,6.7h19.55a68,68,0,0,1-9.77,35.17A67.89,67.89,0,0,1,288.69,6.7Z"/><path class="cls-3" d="M8,55a67.86,67.86,0,0,1,35.16,9.78A67.94,67.94,0,0,1,8,74.58Z"/><path class="cls-3" d="M56.28,6.7H75.84a68,68,0,0,1-9.78,35.17A67.89,67.89,0,0,1,56.28,6.7Z"/><path class="cls-3" d="M159.32,64.81a67.55,67.55,0,0,1-6.16,3.3l-.25.11c-1.21.57-2.43,1.09-3.66,1.58l-1.93.73-.64.23h0a67.61,67.61,0,0,1-6.62,1.94,68.2,68.2,0,0,1-15.89,1.87h0A67.92,67.92,0,0,1,89,64.81,67.83,67.83,0,0,1,124.16,55h0a68.05,68.05,0,0,1,24.28,4.47c.93.35,1.86.73,2.78,1.13A66.75,66.75,0,0,1,159.32,64.81Z"/><path class="cls-3" d="M190.17,22.6c-.18.74-.37,1.48-.58,2.22a67.58,67.58,0,0,1-7.33,17h0a67.61,67.61,0,0,1-8.82-23.77,68.08,68.08,0,0,1-1-11.4H192a68.08,68.08,0,0,1-1,11.4C190.83,19.6,190.52,21.11,190.17,22.6Z"/><path class="cls-4" d="M189.59,489.64c.21-.74.4-1.49.58-2.23.35-1.49.66-3,.91-4.5a68.05,68.05,0,0,0,1-11.39,48.16,48.16,0,0,0,14.14,34.18c.59.59,1.19,1.16,1.8,1.72a48.24,48.24,0,0,0,12,7.95c.71.33,1.43.64,2.16.94,1.46.59,2.94,1.1,4.43,1.54s3,.81,4.53,1.11,3.07.51,4.61.66,3.09.22,4.63.22a68,68,0,0,0-35.16,9.78h0a67.91,67.91,0,0,1-22.94-22.94A67.36,67.36,0,0,0,189.59,489.64Z"/><path class="cls-4" d="M240.36,558.94a28.78,28.78,0,0,1,28.79,28.78H211.58A28.78,28.78,0,0,1,240.36,558.94Z"/><path class="cls-4" d="M327.78,587.72a28.78,28.78,0,0,1,28.79-28.78v28.78Z"/><path class="cls-4" d="M275.53,529.62a68.15,68.15,0,0,1,22.94,22.94,67.83,67.83,0,0,0-9.78,35.16,48.26,48.26,0,0,0-48.33-48.32A68,68,0,0,0,275.53,529.62Z"/><path class="cls-4" d="M308.55,519.54a67.4,67.4,0,0,1-10.08-12.86,67.94,67.94,0,0,0,9.77-35.16,48.28,48.28,0,0,0,48.33,48.32,67.89,67.89,0,0,0-35.17,9.78A67.73,67.73,0,0,1,308.55,519.54Z"/><path class="cls-4" d="M356.57,471.52V500.3a28.79,28.79,0,0,1-28.79-28.78h0a28.64,28.64,0,0,1,5.39-16.76c.23-.32.47-.63.71-.94s.63-.79,1-1.17.87-1,1.33-1.44a.1.1,0,0,0,0,0,28.75,28.75,0,0,1,20.36-8.43h0v28.79Z"/><path class="cls-4" d="M215.64,456.77a28.8,28.8,0,0,1,24.72-14h0a28.73,28.73,0,0,1,22.7,11.1c.29.37.56.74.83,1.12a28.36,28.36,0,0,1,1.8,2.88,28.82,28.82,0,0,1,1.64,3.62c0,.06.05.13.08.19a28.79,28.79,0,1,1-54.09,0,1.54,1.54,0,0,1,.08-.19A28.76,28.76,0,0,1,215.64,456.77Z"/><path class="cls-4" d="M297.28,438.39a67.76,67.76,0,0,0-6.15,15,69.19,69.19,0,0,0-1.83,9,68.08,68.08,0,0,0-.61,9.13,48.18,48.18,0,0,0-12.43-32.39q-.83-.92-1.71-1.8a48.24,48.24,0,0,0-34.19-14.14h0a68,68,0,0,0,35.17-9.77,68.24,68.24,0,0,1,22.94,22.93h0C298.06,437,297.66,437.7,297.28,438.39Z"/><path class="cls-4" d="M345.17,404.59a67.71,67.71,0,0,0-23.77,8.83,67.79,67.79,0,0,1-12.85-10.09c-1-1-1.94-2-2.86-3a67.48,67.48,0,0,1-7.22-9.82h0a68,68,0,0,0,9.77-35.17,48.28,48.28,0,0,0,48.33,48.33h0A69.14,69.14,0,0,0,345.17,404.59Z"/><path class="cls-4" d="M356.57,384.1a28.79,28.79,0,0,1-28.79-28.79h0a28.71,28.71,0,0,1,11-22.58c.41-.33.83-.65,1.27-1a28.55,28.55,0,0,1,11.74-4.84c.27,0,.53-.09.8-.12a28,28,0,0,1,4-.29h0v28.78h0V384.1Z"/><path class="cls-4" d="M240.36,384.1a28.79,28.79,0,0,1-28.78-28.79h0a28.78,28.78,0,0,1,28.78-28.78h0a28.78,28.78,0,0,1,28.79,28.78h0A28.79,28.79,0,0,1,240.36,384.1Z"/><path class="cls-4" d="M296.17,324.25A68.13,68.13,0,0,0,291.78,335c-.46,1.47-.86,2.95-1.22,4.44-.18.75-.34,1.5-.5,2.25-.3,1.5-.56,3-.76,4.52a67.82,67.82,0,0,0-.61,9.12,48.64,48.64,0,0,0-1.38-11.51c-.37-1.51-.81-3-1.33-4.49a45.23,45.23,0,0,0-1.77-4.36,47.69,47.69,0,0,0-7.95-12q-.83-.92-1.71-1.8A48.2,48.2,0,0,0,240.36,307h0a67.89,67.89,0,0,0,35.17-9.78c1.14.7,2.27,1.42,3.38,2.19a68.12,68.12,0,0,1,19.56,20.75h0C297.65,321.5,296.89,322.86,296.17,324.25Z"/><path class="cls-4" d="M321.4,297.21a68,68,0,0,1-22.93-22.94h0a67.92,67.92,0,0,0,9.77-35.16,48.26,48.26,0,0,0,48.33,48.32h0A68,68,0,0,0,321.4,297.21Z"/><path class="cls-4" d="M356.57,267.89a28.78,28.78,0,0,1-28.79-28.78h0a28.78,28.78,0,0,1,28.79-28.78h0v28.78h0v28.78Z"/><path class="cls-4" d="M336.21,143.26l0,0c-.46-.46-.9-.94-1.33-1.43s-.65-.77-1-1.17-.48-.63-.71-1a28.61,28.61,0,0,1-5.39-16.75h0a28.78,28.78,0,0,1,28.79-28.78v28.78h0v28.78h0A28.7,28.7,0,0,1,336.21,143.26Z"/><path class="cls-4" d="M288.69,239.11a48.26,48.26,0,0,0-48.33-48.32h0A68,68,0,0,0,275.53,181,68.15,68.15,0,0,1,298.47,204h0A67.83,67.83,0,0,0,288.69,239.11Z"/><path class="cls-4" d="M321.4,181a68,68,0,0,1-22.93-22.94h0a67.94,67.94,0,0,0,9.77-35.16,48.18,48.18,0,0,0,34.55,46.33c1.5.45,3,.81,4.54,1.11s3.06.51,4.6.66,3.09.22,4.64.22h0A67.89,67.89,0,0,0,321.4,181Z"/><path class="cls-4" d="M240.36,267.89a28.78,28.78,0,0,1-28.78-28.78h0a28.79,28.79,0,0,1,57.57,0h0A28.78,28.78,0,0,1,240.36,267.89Z"/><path class="cls-4" d="M36.74,587.72H8V558.94A28.78,28.78,0,0,1,36.74,587.72Z"/><path class="cls-4" d="M56,539.7a67.8,67.8,0,0,1,10.08,12.86,67.83,67.83,0,0,0-9.78,35.16A48.26,48.26,0,0,0,8,539.4a68,68,0,0,0,35.16-9.78A67.8,67.8,0,0,1,56,539.7Z"/><path class="cls-4" d="M75.84,471.52a48.26,48.26,0,0,0,48.32,48.32A67.83,67.83,0,0,0,89,529.62a67.91,67.91,0,0,1-22.94-22.94A68,68,0,0,0,75.84,471.52Z"/><path class="cls-4" d="M8,442.73a28.55,28.55,0,0,1,10.92,2.16l.4.16a29.1,29.1,0,0,1,5.44,3.08c.25.18.51.36.76.56.57.44,1.13.9,1.67,1.38s.78.72,1.16,1.09a29.66,29.66,0,0,1,4.37,5.61c.43.73.84,1.47,1.21,2.24v0a28.65,28.65,0,0,1,2.84,12.48h0A28.79,28.79,0,0,1,8,500.3V471.52H8V442.73Z"/><path class="cls-4" d="M124.16,558.94a28.51,28.51,0,0,1,2.94.15,27,27,0,0,1,2.86.43,28.53,28.53,0,0,1,9.13,3.58,29.14,29.14,0,0,1,5.42,4.27,28.68,28.68,0,0,1,8.43,20.35H95.38A28.77,28.77,0,0,1,124.16,558.94Z"/><path class="cls-4" d="M124.16,539.4a68.23,68.23,0,0,0,24.69-4.63c.73-.28,1.44-.57,2.15-.88,1.43-.61,2.83-1.27,4.22-2s2.76-1.48,4.1-2.29a67.91,67.91,0,0,1,22.94,22.94,68.11,68.11,0,0,0-9.78,35.16,48.23,48.23,0,0,0-14.13-34.19q-.89-.88-1.8-1.71c-1.23-1.1-2.49-2.13-3.8-3.09A48.26,48.26,0,0,0,124.16,539.4Z"/><path class="cls-4" d="M205.2,413.42h0a68.17,68.17,0,0,1-12.86-10.09c-1-1-1.94-2-2.85-3a68.3,68.3,0,0,1-7.23-9.82h0a67.58,67.58,0,0,0,7.33-17.05c.21-.74.4-1.48.58-2.23.35-1.49.66-3,.91-4.49a68.08,68.08,0,0,0,1-11.4,48.2,48.2,0,0,0,14.14,34.19q.88.88,1.8,1.71a47.69,47.69,0,0,0,12,8c.71.34,1.43.65,2.16.94,1.46.59,2.94,1.11,4.43,1.55s3,.81,4.53,1.1,3.07.52,4.61.67,3.09.22,4.63.22h0a67.82,67.82,0,0,0-9.12.61c-.76.1-1.52.22-2.27.34a67.63,67.63,0,0,0-23.77,8.83Z"/><path class="cls-4" d="M124.16,500.3a28.8,28.8,0,0,1-27-38.66l.07-.19a28.88,28.88,0,0,1,1.65-3.62,28.28,28.28,0,0,1,1.79-2.88c.27-.38.55-.75.83-1.12a28.74,28.74,0,0,1,22.7-11.1h0a28.79,28.79,0,0,1,10.41,1.95l1.28.53a28.64,28.64,0,0,1,5.07,2.92c.26.18.51.36.76.56.57.44,1.13.9,1.67,1.38s.79.72,1.16,1.09l.05,0c.58.59,1.14,1.2,1.67,1.84l.24.29a28.58,28.58,0,0,1,4.41,7.49c.22.55.43,1.11.62,1.68l.15.45c.07.23.13.47.2.71s.13.43.19.65q.28,1.14.48,2.31c0,.3.1.61.14.92a28.75,28.75,0,0,1-28.5,32.75Z"/><path class="cls-4" d="M181.08,438.39a67.81,67.81,0,0,0-7.64,21.73c-.13.76-.24,1.51-.34,2.27a68.09,68.09,0,0,0-.62,9.13,48.22,48.22,0,0,0-12.42-32.39q-.83-.92-1.71-1.8t-1.8-1.71a45.82,45.82,0,0,0-3.8-3.09,48.2,48.2,0,0,0-28.59-9.34h0a69,69,0,0,0,11.39-.95,68.18,68.18,0,0,0,13.3-3.67c.73-.28,1.44-.57,2.15-.88,1.43-.61,2.83-1.27,4.22-2s2.76-1.48,4.1-2.29a68,68,0,0,1,22.94,22.93h0C181.85,437,181.46,437.7,181.08,438.39Z"/><path class="cls-4" d="M231.24,288.05a67.76,67.76,0,0,0-26,9.16h0a67.91,67.91,0,0,1-22.94-22.94h0a67.36,67.36,0,0,0,7.33-17c.21-.74.4-1.48.58-2.23.35-1.49.66-3,.91-4.5a68,68,0,0,0,1-11.39,48.2,48.2,0,0,0,14.14,34.19q.88.88,1.8,1.71A48.24,48.24,0,0,0,220,283c.71.33,1.43.65,2.16.94,1.46.59,2.94,1.1,4.43,1.55s3,.81,4.53,1.1a45.27,45.27,0,0,0,4.61.66c1.54.15,3.09.22,4.63.22h0A67.83,67.83,0,0,0,231.24,288.05Z"/><path class="cls-4" d="M124.16,267.89a28.77,28.77,0,0,1-28.78-28.78h0a28.78,28.78,0,0,1,28.78-28.78h0a28.73,28.73,0,0,1,23,11.43c.12.15.23.3.34.46a28.32,28.32,0,0,1,2.33,3.81c.39.76.75,1.54,1.07,2.33.17.43.34.87.49,1.31a27.56,27.56,0,0,1,1.18,4.63c.05.26.09.53.13.79a29.72,29.72,0,0,1,.28,4h0A28.77,28.77,0,0,1,124.16,267.89Z"/><path class="cls-4" d="M155.22,299.5q2.09-1.06,4.1-2.29c1.15.7,2.28,1.42,3.39,2.19a67.95,67.95,0,0,1,19.55,20.75h0c-.81,1.35-1.58,2.71-2.29,4.1A68.13,68.13,0,0,0,175.58,335c-.46,1.47-.87,2.95-1.22,4.44-.18.75-.35,1.5-.5,2.25s-.29,1.5-.42,2.25-.24,1.51-.34,2.27a67.83,67.83,0,0,0-.62,9.12,48.64,48.64,0,0,0-1.38-11.51c-.36-1.51-.81-3-1.32-4.49s-1.11-2.93-1.77-4.36a48.24,48.24,0,0,0-7.95-12q-.83-.92-1.71-1.8t-1.8-1.71A48.11,48.11,0,0,0,124.16,307h0a68.48,68.48,0,0,0,24.69-4.62c.73-.28,1.44-.58,2.15-.88C152.43,300.88,153.83,300.22,155.22,299.5Z"/><path class="cls-4" d="M189.59,141c.21-.74.4-1.49.58-2.23.35-1.49.66-3,.91-4.5a68.05,68.05,0,0,0,1-11.39,48.16,48.16,0,0,0,14.14,34.18c.59.59,1.19,1.16,1.8,1.72a48.08,48.08,0,0,0,9.89,6.9q1,.56,2.13,1c.71.33,1.43.64,2.16.94,1.46.59,2.94,1.1,4.43,1.54s3,.81,4.53,1.11,3.07.51,4.61.66,3.09.22,4.63.22h0a69.5,69.5,0,0,0-9.12.61,67.78,67.78,0,0,0-26,9.17h0a67.91,67.91,0,0,1-22.94-22.94h0A67.36,67.36,0,0,0,189.59,141Z"/><path class="cls-4" d="M148.78,21.63q-.36.59-.75,1.17a28.78,28.78,0,0,1-23.87,12.69h0A28.78,28.78,0,0,1,95.38,6.7h57.56A28.68,28.68,0,0,1,148.78,21.63Z"/><path class="cls-4" d="M147,105.45l.42.56a29.63,29.63,0,0,1,2.33,3.81,25.75,25.75,0,0,1,1.2,2.68q.19.48.36,1a28.72,28.72,0,0,1,1.22,4.81c0,.16.05.31.07.46a28.85,28.85,0,0,1-8.13,24.53s0,0,0,0c-.6.6-1.22,1.16-1.86,1.7l-.37.3c-.54.43-1.09.85-1.66,1.24s-1.32.88-2,1.28a28.67,28.67,0,0,1-8.61,3.29c-.94.19-1.89.33-2.86.43a28.79,28.79,0,0,1-17.86-4q-.6-.36-1.17-.75a28.78,28.78,0,0,1,16.09-52.64h0A28.74,28.74,0,0,1,147,105.45Z"/><path class="cls-4" d="M240.36,35.49h0a29.32,29.32,0,0,1-3.89-.27c-.38,0-.76-.11-1.13-.18a27.67,27.67,0,0,1-3.54-.85,28.6,28.6,0,0,1-3.64-1.42l-.27-.12A28.79,28.79,0,0,1,211.58,6.7h57.57A28.79,28.79,0,0,1,240.36,35.49Z"/><path class="cls-4" d="M327.78,6.7h28.79V35.49A28.79,28.79,0,0,1,327.78,6.7Z"/><path class="cls-4" d="M288.69,122.91a48.28,48.28,0,0,0-48.33-48.33,68,68,0,0,0,35.17-9.77,68.24,68.24,0,0,1,22.94,22.93A67.89,67.89,0,0,0,288.69,122.91Z"/><path class="cls-4" d="M308.55,54.72a67.34,67.34,0,0,1-10.08-12.85A68,68,0,0,0,308.24,6.7,48.28,48.28,0,0,0,356.57,55a67.89,67.89,0,0,0-35.17,9.78A67.79,67.79,0,0,1,308.55,54.72Z"/><path class="cls-4" d="M230.27,96l.63-.22a28.3,28.3,0,0,1,3.92-1.07c.85-.16,1.72-.3,2.6-.39s2-.14,2.94-.14a28.78,28.78,0,0,1,16.1,52.64l-1.17.75a28.6,28.6,0,0,1-14.93,4.17h0A28.78,28.78,0,0,1,230.27,96Z"/><path class="cls-4" d="M43.12,413.42A67.4,67.4,0,0,1,56,423.5a67.73,67.73,0,0,1,10.08,12.85h0c-.41.68-.8,1.35-1.18,2a66.81,66.81,0,0,0-6.15,15,67.6,67.6,0,0,0-1.84,9,69.77,69.77,0,0,0-.61,9.13,48.22,48.22,0,0,0-12.42-32.39c-.56-.61-1.13-1.21-1.72-1.8A48.2,48.2,0,0,0,8,423.19H8A67.94,67.94,0,0,0,43.12,413.42Z"/><path class="cls-4" d="M75.84,355.31a48.26,48.26,0,0,0,48.32,48.33h0a69.11,69.11,0,0,0-11.39.95A67.63,67.63,0,0,0,89,413.42a67.85,67.85,0,0,1-12.86-10.09c-1-1-1.94-2-2.85-3a68.3,68.3,0,0,1-7.23-9.82h0A68,68,0,0,0,75.84,355.31Z"/><path class="cls-4" d="M8,326.53H8a28.79,28.79,0,0,1,28.78,28.78h0a28.7,28.7,0,0,1-9.38,21.26l-.12.11c-.62.56-1.27,1.09-1.93,1.6l-.59.42a29.35,29.35,0,0,1-4.28,2.56A28.68,28.68,0,0,1,8,384.1V355.31H8V326.53Z"/><path class="cls-4" d="M103.81,335a28.68,28.68,0,0,1,20.35-8.43h0a28.74,28.74,0,0,1,22.69,11.08c.33.42.64.85,1,1.29a28.82,28.82,0,0,1,2,3.3c.11.21.22.42.32.64.28.56.53,1.14.76,1.73.17.43.34.86.49,1.3a27.56,27.56,0,0,1,1.18,4.63c.05.27.09.53.13.8a29.46,29.46,0,0,1,.28,4h0a28.78,28.78,0,1,1-57.56,0h0A28.7,28.7,0,0,1,103.81,335Z"/><path class="cls-4" d="M43.12,297.21c1.15.7,2.28,1.42,3.39,2.19A68.8,68.8,0,0,1,56,307.29a68.11,68.11,0,0,1,10.08,12.86h0c-.82,1.35-1.58,2.71-2.29,4.1A67.19,67.19,0,0,0,59.38,335q-.69,2.2-1.23,4.44c-.17.75-.34,1.5-.49,2.25-.31,1.5-.56,3-.77,4.52a69.5,69.5,0,0,0-.61,9.12A48.64,48.64,0,0,0,54.9,343.8c-.37-1.51-.81-3-1.32-4.49s-1.11-2.93-1.77-4.36a48.24,48.24,0,0,0-8-12c-.56-.61-1.13-1.21-1.72-1.8A48.16,48.16,0,0,0,8,307H8A67.86,67.86,0,0,0,43.12,297.21Z"/><path class="cls-4" d="M75.84,239.11a48.24,48.24,0,0,0,48.32,48.32h0A67.93,67.93,0,0,0,89,297.21a67.91,67.91,0,0,1-22.94-22.94h0A67.93,67.93,0,0,0,75.84,239.11Z"/><path class="cls-4" d="M8,210.33a28.78,28.78,0,0,1,28.78,28.78h0A28.78,28.78,0,0,1,8,267.89H8V239.11H8V210.33Z"/><path class="cls-4" d="M43.12,181A67.91,67.91,0,0,1,66.06,204h0a67.83,67.83,0,0,0-9.78,35.16A48.26,48.26,0,0,0,8,190.79H8A68,68,0,0,0,43.12,181Z"/><path class="cls-4" d="M75.84,122.91a48.18,48.18,0,0,0,34.55,46.33c1.49.45,3,.81,4.53,1.11s3.06.51,4.6.66,3.09.22,4.64.22h0A67.83,67.83,0,0,0,89,181a67.91,67.91,0,0,1-22.94-22.94h0A68,68,0,0,0,75.84,122.91Z"/><path class="cls-4" d="M8,35.49V6.7H36.74A28.79,28.79,0,0,1,8,35.49Z"/><path class="cls-4" d="M56.28,122.91A48.28,48.28,0,0,0,8,74.58a67.94,67.94,0,0,0,35.16-9.77A67.8,67.8,0,0,1,56,74.89,67.73,67.73,0,0,1,66.06,87.74,67.89,67.89,0,0,0,56.28,122.91Z"/><path class="cls-4" d="M89,64.81A68.15,68.15,0,0,1,66.06,41.87,68,68,0,0,0,75.84,6.7,48.26,48.26,0,0,0,124.16,55,67.83,67.83,0,0,0,89,64.81Z"/><path class="cls-4" d="M8,122.91V94.13a28.78,28.78,0,0,1,28.78,28.78h0a28.68,28.68,0,0,1-2.84,12.48v0c-.37.76-.78,1.51-1.21,2.23A28.77,28.77,0,0,1,8,151.69H8V122.91Z"/><path class="cls-4" d="M159.32,181A67.91,67.91,0,0,1,182.26,204h0a68.11,68.11,0,0,0-9.78,35.16,48.23,48.23,0,0,0-14.13-34.19c-.59-.58-1.19-1.16-1.8-1.71-1.23-1.1-2.49-2.13-3.8-3.09a48.26,48.26,0,0,0-28.59-9.33h0a68.23,68.23,0,0,0,24.69-4.63c.73-.28,1.44-.57,2.15-.87,1.43-.62,2.83-1.28,4.22-2S158,181.82,159.32,181Z"/><path class="cls-4" d="M173.44,111.51a68.17,68.17,0,0,0-1,11.4,48.23,48.23,0,0,0-14.13-34.19q-.89-.89-1.8-1.71a45.82,45.82,0,0,0-3.8-3.09,48.2,48.2,0,0,0-28.59-9.34,68,68,0,0,0,11.39-1A68.18,68.18,0,0,0,148.85,70c.73-.28,1.44-.57,2.15-.88,1.43-.61,2.83-1.27,4.22-2s2.76-1.48,4.1-2.29a68,68,0,0,1,22.94,22.93A67.69,67.69,0,0,0,173.44,111.51Z"/><path class="cls-4" d="M222.16,51.49c1.46.59,2.94,1.11,4.43,1.55s3,.81,4.53,1.1,3.07.52,4.61.67,3.09.22,4.63.22a68,68,0,0,0-35.16,9.78h0a68.17,68.17,0,0,1-12.86-10.09,67.73,67.73,0,0,1-10.08-12.85,67.58,67.58,0,0,0,7.33-17c.21-.74.4-1.48.58-2.22.35-1.49.66-3,.91-4.5a68.08,68.08,0,0,0,1-11.4,48.16,48.16,0,0,0,14.14,34.19q.88.88,1.8,1.71a48,48,0,0,0,12,8Q221.07,51.06,222.16,51.49Z"/></svg>