<svg id="Layer_1" data-name="Layer 1" xmlns="http://www.w3.org/2000/svg" viewBox="0 0 864 126.5134">
  <g>
    <g id="logoMark">
      <path id="logoMark_PathItem_" data-name="logoMark &lt;PathItem&gt;" d="M24.7419,99.8906A24.7419,24.7419,0,0,0,0,75.1487V99.8906Z" style="fill: #fff"/>
      <path id="logoMark_PathItem_2" data-name="logoMark &lt;PathItem&gt;" d="M0,24.7419A24.7419,24.7419,0,0,0,24.7419,0H0Z" style="fill: #fff"/>
      <path id="logoMark_PathItem_3" data-name="logoMark &lt;PathItem&gt;" d="M75.1486,99.8906A24.7419,24.7419,0,0,1,99.8905,75.1487V99.8906Z" style="fill: #fff"/>
      <path id="logoMark_PathItem_4" data-name="logoMark &lt;PathItem&gt;" d="M99.8905,24.7419A24.7418,24.7418,0,0,1,75.1487,0H99.8905Z" style="fill: #fff"/>
      <path id="logoMark_PathItem_5" data-name="logoMark &lt;PathItem&gt;" d="M41.2791,58.6113a58.2946,58.2946,0,0,0-11.0518-8.6659A58.3739,58.3739,0,0,1,0,58.35,41.43,41.43,0,0,1,29.3872,70.5034,41.43,41.43,0,0,1,41.54,99.8906a58.3735,58.3735,0,0,1,8.4051-30.2273A58.3038,58.3038,0,0,0,41.2791,58.6113Z" style="fill: #fff"/>
      <path id="logoMark_PathItem_6" data-name="logoMark &lt;PathItem&gt;" d="M41.2791,41.2792a58.3007,58.3007,0,0,0,8.6662-11.052A58.3729,58.3729,0,0,1,41.54,0a41.43,41.43,0,0,1-12.153,29.3872A41.43,41.43,0,0,1,0,41.54a58.3722,58.3722,0,0,1,30.2272,8.4051A58.3,58.3,0,0,0,41.2791,41.2792Z" style="fill: #fff"/>
      <path id="logoMark_PathItem_7" data-name="logoMark &lt;PathItem&gt;" d="M0,41.54V58.35a58.3739,58.3739,0,0,0,30.2272-8.4049A58.3722,58.3722,0,0,0,0,41.54Z" style="fill: #fff"/>
      <path id="logoMark_PathItem_8" data-name="logoMark &lt;PathItem&gt;" d="M58.6114,58.6113a58.2992,58.2992,0,0,0-8.6661,11.052A58.3744,58.3744,0,0,1,58.35,99.8906a41.4932,41.4932,0,0,1,41.54-41.54,58.3749,58.3749,0,0,1-30.2274-8.4049A58.2946,58.2946,0,0,0,58.6114,58.6113Z" style="fill: #fff"/>
      <path id="logoMark_PathItem_9" data-name="logoMark &lt;PathItem&gt;" d="M41.54,99.8906H58.35a58.3744,58.3744,0,0,0-8.405-30.2273A58.3735,58.3735,0,0,0,41.54,99.8906Z" style="fill: #fff"/>
      <path id="logoMark_PathItem_10" data-name="logoMark &lt;PathItem&gt;" d="M58.6114,41.2792a58.3,58.3,0,0,0,11.0518,8.6662A58.3732,58.3732,0,0,1,99.8906,41.54,41.43,41.43,0,0,1,70.5033,29.3872,41.4313,41.4313,0,0,1,58.35,0a58.3738,58.3738,0,0,1-8.405,30.2272A58.2961,58.2961,0,0,0,58.6114,41.2792Z" style="fill: #fff"/>
      <path id="logoMark_PathItem_11" data-name="logoMark &lt;PathItem&gt;" d="M58.35,0H41.54a58.3729,58.3729,0,0,0,8.4051,30.2272A58.3738,58.3738,0,0,0,58.35,0Z" style="fill: #fff"/>
      <path id="logoMark_PathItem_12" data-name="logoMark &lt;PathItem&gt;" d="M69.6632,49.9454A58.3749,58.3749,0,0,0,99.8906,58.35V41.54A58.3732,58.3732,0,0,0,69.6632,49.9454Z" style="fill: #fff"/>
    </g>
    <g id="type">
      <path id="type_CompoundPathItem_" data-name="type &lt;CompoundPathItem&gt;" d="M280.9289,4.6984a12.5163,12.5163,0,0,1,16.0819,0,9.814,9.814,0,0,1,3.168,7.5529,9.7611,9.7611,0,0,1-3.1068,7.4319,12.6855,12.6855,0,0,1-16.2043,0,9.759,9.759,0,0,1-3.1068-7.4319A9.8054,9.8054,0,0,1,280.9289,4.6984Zm-1.584,27.0271h19.1282V91.9117H279.3449Z" style="fill: #fff"/>
      <path id="type_CompoundPathItem_2" data-name="type &lt;CompoundPathItem&gt;" d="M324.2537,123.3454a25.381,25.381,0,0,1-11.27-9.0158,23.5423,23.5423,0,0,1-3.9593-13.5243,25.4561,25.4561,0,0,1,.1217-2.9234h18.3974q-.2455,5.9677,3.35,9.2593,3.5917,3.29,10.4169,3.289,6.091,0,9.8684-2.74a8.5439,8.5439,0,0,0,3.7771-7.249,8.25,8.25,0,0,0-3.4725-7.1279q-3.4722-2.4964-9.93-2.4971a38.3592,38.3592,0,0,1-17.483-3.7771,27.499,27.499,0,0,1-11.5747-10.66,30.8125,30.8125,0,0,1-4.081-16.0214,29.4318,29.4318,0,0,1,4.2033-15.6557,28.731,28.731,0,0,1,11.6958-10.7222,37.0156,37.0156,0,0,1,17.1179-3.8376,31.6589,31.6589,0,0,1,13.6455,2.9233l7.0667-8.7711L376.155,34.4054l-8.041,9.3816a24.2912,24.2912,0,0,1,6.0919,16.57,24.5561,24.5561,0,0,1-3.2285,12.3654,26.2158,26.2158,0,0,1-9.077,9.321,22.4211,22.4211,0,0,1,9.4421,7.7358,19.7954,19.7954,0,0,1,3.3508,11.3918,22.3474,22.3474,0,0,1-4.1422,13.3415,26.2251,26.2251,0,0,1-11.6963,8.8935,45.889,45.889,0,0,1-17.5443,3.1074A42.6289,42.6289,0,0,1,324.2537,123.3454Zm6.9445-52.6938a15.2913,15.2913,0,0,0,20.4681.0605q3.8976-3.8975,3.8988-10.3551t-3.8376-10.2959q-3.8382-3.8382-10.2953-3.8376a13.9557,13.9557,0,0,0-10.234,3.8376q-3.9,3.8382-3.8988,10.2959A14.0383,14.0383,0,0,0,331.1982,70.6516Z" style="fill: #fff"/>
      <path id="type_CompoundPathItem_3" data-name="type &lt;CompoundPathItem&gt;" d="M386.8765,6.6277h19.1282V38.3048q6.9444-7.9192,18.3968-7.92,11.0847,0,17.6054,7.4319,6.5163,7.4337,6.5181,20.1024V91.9117H429.3968V59.0164q0-5.8491-2.8634-9.1382a10.0176,10.0176,0,0,0-7.98-3.289,11.7573,11.7573,0,0,0-9.077,3.7771,14.009,14.009,0,0,0-3.4719,9.8683V91.9117H386.8765Z" style="fill: #fff"/>
      <path id="type_CompoundPathItem_4" data-name="type &lt;CompoundPathItem&gt;" d="M513.3631,85.4547l7.31-13.1586a36.531,36.531,0,0,0,10.1729,4.1428A46.8335,46.8335,0,0,0,542.36,77.9006q7.9184,0,7.9193-4.2639a3.5139,3.5139,0,0,0-2.1931-3.29,21.0049,21.0049,0,0,0-7.31-1.4617q-11.4527-.6078-18.2139-5.7255A16.0263,16.0263,0,0,1,515.8,49.7572a16.7827,16.7827,0,0,1,7.31-14.3164q7.3105-5.2986,19.7374-5.2993A52.1145,52.1145,0,0,1,556.31,31.8466a37.6238,37.6238,0,0,1,11.0261,4.7519l-7.4318,12.7929A32.1364,32.1364,0,0,0,543.7,45.492q-9.2611,0-9.26,4.3862a3.0413,3.0413,0,0,0,1.8885,2.8023,19.6868,19.6868,0,0,0,6.3965,1.4629q12.9121.9766,19.6761,5.8478,6.7618,4.8742,6.7622,13.6455a16.92,16.92,0,0,1-7.4325,14.5585q-7.4326,5.3005-20.59,5.3005Q525.18,93.4957,513.3631,85.4547Z" style="fill: #fff"/>
      <path id="type_CompoundPathItem_5" data-name="type &lt;CompoundPathItem&gt;" d="M669.9193,89.5358a27.6944,27.6944,0,0,1-11.818-10.9038A32.4093,32.4093,0,0,1,653.9591,61.94,32.7222,32.7222,0,0,1,658.04,45.492a28.3956,28.3956,0,0,1,11.3918-11.1471,35.01,35.01,0,0,1,16.9351-3.96,36.6985,36.6985,0,0,1,17.0568,3.7166A26.1817,26.1817,0,0,1,714.45,44.579a31.4151,31.4151,0,0,1,3.8376,15.778,52.2868,52.2868,0,0,1-.6091,7.1872h-44.226a11.3564,11.3564,0,0,0,4.9953,7.4936,18.2334,18.2334,0,0,0,10.6,2.8628,29.0229,29.0229,0,0,0,8.7718-1.3406,22.22,22.22,0,0,0,7.31-3.7758L715.12,83.505a35.4767,35.4767,0,0,1-12.1227,7.3108,43.1862,43.1862,0,0,1-14.9248,2.5576A40.1425,40.1425,0,0,1,669.9193,89.5358ZM700.1342,56.58a11.1743,11.1743,0,0,0-3.8377-8.1633q-3.4722-2.9245-9.32-2.9246a14.2944,14.2944,0,0,0-9.32,2.9246,11.3779,11.3779,0,0,0-4.0816,8.1633Z" style="fill: #fff"/>
      <path id="type_CompoundPathItem_6" data-name="type &lt;CompoundPathItem&gt;" d="M741.679,89.5358A27.6952,27.6952,0,0,1,729.8609,78.632,32.41,32.41,0,0,1,725.7187,61.94,32.7222,32.7222,0,0,1,729.8,45.492a28.3949,28.3949,0,0,1,11.3918-11.1471,35.01,35.01,0,0,1,16.9351-3.96,36.6985,36.6985,0,0,1,17.0568,3.7166A26.1822,26.1822,0,0,1,786.21,44.579a31.4151,31.4151,0,0,1,3.8376,15.778,52.3026,52.3026,0,0,1-.6091,7.1872h-44.226a11.3561,11.3561,0,0,0,4.9953,7.4936,18.2332,18.2332,0,0,0,10.6,2.8628A29.0234,29.0234,0,0,0,769.579,76.56a22.22,22.22,0,0,0,7.31-3.7758L786.88,83.505a35.4753,35.4753,0,0,1-12.1226,7.3108,43.1862,43.1862,0,0,1-14.9248,2.5576A40.1419,40.1419,0,0,1,741.679,89.5358ZM771.8938,56.58a11.1742,11.1742,0,0,0-3.8376-8.1633q-3.4722-2.9245-9.32-2.9246a14.294,14.294,0,0,0-9.32,2.9246,11.3776,11.3776,0,0,0-4.0816,8.1633Z" style="fill: #fff"/>
      <path id="type_CompoundPathItem_7" data-name="type &lt;CompoundPathItem&gt;" d="M206.9288,45.5536a27.0249,27.0249,0,0,0-10.2341-11.0878,28.5061,28.5061,0,0,0-14.9854-3.9587,26.5108,26.5108,0,0,0-18.6408,6.9438V6.6275H143.94V91.9116h19.0059V85.929c4.9434,4.78,11.1854,7.2008,18.7631,7.2008a28.4847,28.4847,0,0,0,14.9854-3.96,27.0069,27.0069,0,0,0,10.2341-11.0866,35.1439,35.1439,0,0,0,3.6553-16.2649A35.14,35.14,0,0,0,206.9288,45.5536ZM187.5571,72.8445a13.6971,13.6971,0,0,1-10.3557,4.2034,13.4,13.4,0,0,1-10.2953-4.2639,15.4735,15.4735,0,0,1-3.96-10.9656,15.4774,15.4774,0,0,1,3.96-10.9655,13.4038,13.4038,0,0,1,10.2953-4.2639,13.6967,13.6967,0,0,1,10.3557,4.2034q4.0209,4.2033,4.02,11.026T187.5571,72.8445Z" style="fill: #fff"/>
      <path id="type_PathItem_" data-name="type &lt;PathItem&gt;" d="M264.19,31.9082a23.8671,23.8671,0,0,0-8.285-1.5235,18.0454,18.0454,0,0,0-15.1071,7.5666v-6.226H221.67V91.9116h19.1282V62.671q0-7.5523,3.5331-11.4524a12.3393,12.3393,0,0,1,9.6249-3.8981,14.564,14.564,0,0,1,4.63.73,23.0694,23.0694,0,0,1,4.7513,2.3154l8.0416-14.0112A20.4372,20.4372,0,0,0,264.19,31.9082Z" style="fill: #fff"/>
      <path id="type_PathItem_2" data-name="type &lt;PathItem&gt;" d="M500.6709,75.2205a15.365,15.365,0,0,1-6.9444,1.705,6.8776,6.8776,0,0,1-4.9953-1.7668q-1.8274-1.7643-1.8274-5.4216V46.9547h14.9854V31.7253H486.9038V14.6685H467.8973V31.7253H457.6632V46.9547h10.2341V69.7371q0,12.308,5.7261,17.8488,5.7259,5.547,15.5952,5.5439a35.21,35.21,0,0,0,15.96-3.5337Z" style="fill: #fff"/>
      <path id="type_CompoundPathItem_8" data-name="type &lt;CompoundPathItem&gt;" d="M642.63,45.5536a27.0242,27.0242,0,0,0-10.2341-11.0878A28.5059,28.5059,0,0,0,617.41,30.5071c-7.6425,0-13.8857,2.3809-18.7631,7.08V31.7253H579.6412v86.2589h19.1282V86.0637Q606.2,93.13,617.41,93.13a28.4844,28.4844,0,0,0,14.9854-3.96A27.0062,27.0062,0,0,0,642.63,78.0833a35.144,35.144,0,0,0,3.6554-16.2649A35.14,35.14,0,0,0,642.63,45.5536ZM623.2581,72.8445a13.6971,13.6971,0,0,1-10.3558,4.2034,13.4,13.4,0,0,1-10.2952-4.2639,15.4735,15.4735,0,0,1-3.96-10.9656,15.4775,15.4775,0,0,1,3.96-10.9655,13.4036,13.4036,0,0,1,10.2952-4.2639,13.6968,13.6968,0,0,1,10.3558,4.2034q4.0207,4.2033,4.02,11.026T623.2581,72.8445Z" style="fill: #fff"/>
      <path id="type_CompoundPathItem_9" data-name="type &lt;CompoundPathItem&gt;" d="M844.8718,6.6275v31.068a23.5311,23.5311,0,0,0-8.3456-5.3,29.6026,29.6026,0,0,0-10.66-1.8879,27.958,27.958,0,0,0-14.742,3.8981,26.4561,26.4561,0,0,0-10.0512,11.0261,35.9069,35.9069,0,0,0-3.5943,16.3871,35.9,35.9,0,0,0,3.5943,16.3872,26.4475,26.4475,0,0,0,10.0512,11.026,27.9461,27.9461,0,0,0,14.742,3.8982,28.5429,28.5429,0,0,0,11.94-2.4365,23.3353,23.3353,0,0,0,7.0662-4.89v6.108H864V6.6275Zm-3.7765,66.217A13.6971,13.6971,0,0,1,830.74,77.0479a13.4,13.4,0,0,1-10.2952-4.2639,15.4735,15.4735,0,0,1-3.96-10.9656,15.4775,15.4775,0,0,1,3.96-10.9655A13.4038,13.4038,0,0,1,830.74,46.589a13.6968,13.6968,0,0,1,10.3558,4.2034,14.298,14.298,0,0,1,3.7765,7.84v6.3736A14.2945,14.2945,0,0,1,841.0953,72.8445Z" style="fill: #fff"/>
    </g>
  </g>
</svg>
