<svg xmlns="http://www.w3.org/2000/svg" viewBox="0 0 115.26 115.26"><defs><style>.cls-1{fill:#ffc800;}.cls-2{fill:#ff7725;}.cls-3{fill:#fa4628;}</style></defs><g id="Layer_2" data-name="Layer 2"><g id="Layer_1-2" data-name="Layer 1"><path class="cls-1" d="M28.55,115.26A28.55,28.55,0,0,0,0,86.71v28.55Z"/><path class="cls-1" d="M0,28.55A28.55,28.55,0,0,0,28.55,0H0Z"/><path class="cls-1" d="M86.71,115.26a28.56,28.56,0,0,1,28.55-28.55v28.55Z"/><path class="cls-1" d="M115.26,28.55A28.55,28.55,0,0,1,86.71,0h28.55Z"/><path class="cls-1" d="M47.63,67.63a67.39,67.39,0,0,0-12.75-10A67.39,67.39,0,0,1,0,67.33a47.84,47.84,0,0,1,33.91,14,47.8,47.8,0,0,1,14,33.91,67.33,67.33,0,0,1,9.7-34.87A67.14,67.14,0,0,0,47.63,67.63Z"/><path class="cls-2" d="M47.63,47.63a67.39,67.39,0,0,0,10-12.75A67.39,67.39,0,0,1,47.93,0a47.8,47.8,0,0,1-14,33.91A47.8,47.8,0,0,1,0,47.93a67.39,67.39,0,0,1,34.88,9.7A67.39,67.39,0,0,0,47.63,47.63Z"/><path class="cls-3" d="M0,47.93v19.4a67.39,67.39,0,0,0,34.88-9.7A67.39,67.39,0,0,0,0,47.93Z"/><path class="cls-2" d="M67.63,67.63a67.14,67.14,0,0,0-10,12.76,67.33,67.33,0,0,1,9.7,34.87,47.87,47.87,0,0,1,47.93-47.93,67.33,67.33,0,0,1-34.87-9.7A67.14,67.14,0,0,0,67.63,67.63Z"/><path class="cls-3" d="M47.93,115.26h19.4a67.33,67.33,0,0,0-9.7-34.87A67.33,67.33,0,0,0,47.93,115.26Z"/><path class="cls-1" d="M67.63,47.63a67.14,67.14,0,0,0,12.76,10,67.33,67.33,0,0,1,34.87-9.7,47.8,47.8,0,0,1-33.91-14A47.84,47.84,0,0,1,67.33,0a67.39,67.39,0,0,1-9.7,34.88A67.39,67.39,0,0,0,67.63,47.63Z"/><path class="cls-3" d="M67.33,0H47.93a67.39,67.39,0,0,0,9.7,34.88A67.39,67.39,0,0,0,67.33,0Z"/><path class="cls-3" d="M80.39,57.63a67.33,67.33,0,0,0,34.87,9.7V47.93A67.33,67.33,0,0,0,80.39,57.63Z"/></g></g></svg>