<svg width="32" height="29" viewBox="0 0 32 29" fill="none" xmlns="http://www.w3.org/2000/svg">
<path d="M5.5 22H4C3.20435 22 2.44129 21.6839 1.87868 21.1213C1.31607 20.5587 1 19.7956 1 19V4C1 3.20435 1.31607 2.44129 1.87868 1.87868C2.44129 1.31607 3.20435 1 4 1H28C28.7956 1 29.5587 1.31607 30.1213 1.87868C30.6839 2.44129 31 3.20435 31 4V19C31 19.7956 30.6839 20.5587 30.1213 21.1213C29.5587 21.6839 28.7956 22 28 22H26.5" stroke="black" stroke-width="1.5" stroke-linecap="round" stroke-linejoin="round"/>
<path d="M16 19L23.5 28H8.5L16 19Z" stroke="black" stroke-width="1.5" stroke-linecap="round" stroke-linejoin="round"/>
</svg>
