<svg width="32" height="32" viewBox="0 0 32 32" fill="none" xmlns="http://www.w3.org/2000/svg">
<path d="M16 21.9991C19.3137 21.9991 22 19.3128 22 15.9991C22 12.6854 19.3137 9.99908 16 9.99908C12.6863 9.99908 10 12.6854 10 15.9991C10 19.3128 12.6863 21.9991 16 21.9991Z" stroke="black" stroke-width="1.5" stroke-linecap="round" stroke-linejoin="round"/>
<path d="M22 9.99907V17.4991C22 18.6925 22.4741 19.8371 23.318 20.681C24.1619 21.525 25.3065 21.9991 26.5 21.9991C27.6935 21.9991 28.8381 21.525 29.682 20.681C30.5259 19.8371 31 18.6925 31 17.4991V15.9991C30.9998 12.6136 29.8544 9.32779 27.7499 6.67587C25.6455 4.02395 22.7058 2.16191 19.409 1.39252C16.1121 0.623124 12.6519 0.991632 9.59104 2.43812C6.53016 3.88461 4.04861 6.324 2.5499 9.35965C1.05119 12.3953 0.623463 15.8487 1.33627 19.1582C2.04907 22.4678 3.86048 25.4389 6.47596 27.5885C9.09144 29.738 12.3572 30.9396 15.7421 30.9978C19.1271 31.056 22.4322 29.9674 25.12 27.9091" stroke="black" stroke-width="1.5" stroke-linecap="round" stroke-linejoin="round"/>
</svg>
