<svg width="35" height="35" viewBox="0 0 35 35" fill="none" xmlns="http://www.w3.org/2000/svg">
<path d="M20.095 31C19.8313 31.4546 19.4528 31.832 18.9974 32.0943C18.5419 32.3566 18.0256 32.4947 17.5 32.4947C16.9745 32.4947 16.4581 32.3566 16.0027 32.0943C15.5473 31.832 15.1687 31.4546 14.905 31" stroke="black" stroke-width="1.5" stroke-linecap="round" stroke-linejoin="round"/>
<path d="M27.445 19C26.7777 16.5571 26.4595 14.0321 26.5 11.5" stroke="black" stroke-width="1.5" stroke-linecap="round" stroke-linejoin="round"/>
<path d="M8.89 8.89001C8.6294 9.73543 8.49792 10.6153 8.5 11.5C8.5 22 4 25 4 25H25" stroke="black" stroke-width="1.5" stroke-linecap="round" stroke-linejoin="round"/>
<path d="M26.5 11.5C26.5024 9.86958 26.0619 8.26915 25.2255 6.86963C24.3891 5.4701 23.1882 4.32407 21.7512 3.55395C20.3141 2.78382 18.6949 2.41853 17.0664 2.49709C15.4378 2.57565 13.8613 3.09511 12.505 3.99999" stroke="black" stroke-width="1.5" stroke-linecap="round" stroke-linejoin="round"/>
<path d="M1 1L34 34" stroke="black" stroke-width="1.5" stroke-linecap="round" stroke-linejoin="round"/>
</svg>
