<svg width="29" height="33" viewBox="0 0 29 33" fill="none" xmlns="http://www.w3.org/2000/svg">
<path d="M23.5 10.5C23.5 8.11305 22.5518 5.82387 20.864 4.13604C19.1761 2.44821 16.8869 1.5 14.5 1.5C12.1131 1.5 9.82387 2.44821 8.13604 4.13604C6.44821 5.82387 5.5 8.11305 5.5 10.5C5.5 21 1 24 1 24H28C28 24 23.5 21 23.5 10.5Z" stroke="black" stroke-width="1.5" stroke-linecap="round" stroke-linejoin="round"/>
<path d="M17.095 30C16.8313 30.4546 16.4528 30.832 15.9974 31.0943C15.5419 31.3566 15.0256 31.4947 14.5 31.4947C13.9745 31.4947 13.4581 31.3566 13.0027 31.0943C12.5473 30.832 12.1687 30.4546 11.905 30" stroke="black" stroke-width="1.5" stroke-linecap="round" stroke-linejoin="round"/>
</svg>
