<svg width="22" height="27" viewBox="0 0 22 27" fill="none" xmlns="http://www.w3.org/2000/svg">
<path d="M1 1.5H13C14.5913 1.5 16.1174 2.13214 17.2426 3.25736C18.3679 4.38258 19 5.9087 19 7.5C19 9.0913 18.3679 10.6174 17.2426 11.7426C16.1174 12.8679 14.5913 13.5 13 13.5H1V1.5Z" stroke="black" stroke-width="1.5" stroke-linecap="round" stroke-linejoin="round"/>
<path d="M1 13.5H14.5C16.0913 13.5 17.6174 14.1321 18.7426 15.2574C19.8679 16.3826 20.5 17.9087 20.5 19.5C20.5 21.0913 19.8679 22.6174 18.7426 23.7426C17.6174 24.8679 16.0913 25.5 14.5 25.5H1V13.5Z" stroke="black" stroke-width="1.5" stroke-linecap="round" stroke-linejoin="round"/>
</svg>
