<svg width="29" height="33" viewBox="0 0 29 33" fill="none" xmlns="http://www.w3.org/2000/svg">
<path d="M28 22.5V10.5C27.9995 9.97392 27.8606 9.45722 27.5973 9.00175C27.334 8.54628 26.9556 8.16805 26.5 7.90501L16 1.90501C15.5439 1.6417 15.0266 1.50308 14.5 1.50308C13.9734 1.50308 13.4561 1.6417 13 1.90501L2.5 7.90501C2.04439 8.16805 1.66597 8.54628 1.40269 9.00175C1.13941 9.45722 1.00054 9.97392 1 10.5V22.5C1.00054 23.0261 1.13941 23.5428 1.40269 23.9983C1.66597 24.4537 2.04439 24.832 2.5 25.095L13 31.095C13.4561 31.3583 13.9734 31.4969 14.5 31.4969C15.0266 31.4969 15.5439 31.3583 16 31.095L26.5 25.095C26.9556 24.832 27.334 24.4537 27.5973 23.9983C27.8606 23.5428 27.9995 23.0261 28 22.5Z" stroke="black" stroke-width="1.5" stroke-linecap="round" stroke-linejoin="round"/>
<path d="M1.405 8.94L14.5 16.515L27.595 8.94" stroke="black" stroke-width="1.5" stroke-linecap="round" stroke-linejoin="round"/>
<path d="M14.5 31.62V16.5" stroke="black" stroke-width="1.5" stroke-linecap="round" stroke-linejoin="round"/>
</svg>
