<svg width="32" height="29" viewBox="0 0 32 29" fill="none" xmlns="http://www.w3.org/2000/svg">
<path d="M28 7H4C2.34315 7 1 8.34315 1 10V25C1 26.6569 2.34315 28 4 28H28C29.6569 28 31 26.6569 31 25V10C31 8.34315 29.6569 7 28 7Z" stroke="black" stroke-width="1.5" stroke-linecap="round" stroke-linejoin="round"/>
<path d="M22 28V4C22 3.20435 21.6839 2.44129 21.1213 1.87868C20.5587 1.31607 19.7956 1 19 1H13C12.2044 1 11.4413 1.31607 10.8787 1.87868C10.3161 2.44129 10 3.20435 10 4V28" stroke="black" stroke-width="1.5" stroke-linecap="round" stroke-linejoin="round"/>
</svg>
