<svg width="35" height="29" viewBox="0 0 35 29" fill="none" xmlns="http://www.w3.org/2000/svg">
<path d="M34 25C34 25.7956 33.6839 26.5587 33.1213 27.1213C32.5587 27.6839 31.7956 28 31 28H4C3.20435 28 2.44129 27.6839 1.87868 27.1213C1.31607 26.5587 1 25.7956 1 25V8.5C1 7.70435 1.31607 6.94129 1.87868 6.37868C2.44129 5.81607 3.20435 5.5 4 5.5H10L13 1H22L25 5.5H31C31.7956 5.5 32.5587 5.81607 33.1213 6.37868C33.6839 6.94129 34 7.70435 34 8.5V25Z" stroke="black" stroke-width="1.5" stroke-linecap="round" stroke-linejoin="round"/>
<path d="M17.5 22C20.8137 22 23.5 19.3137 23.5 16C23.5 12.6863 20.8137 10 17.5 10C14.1863 10 11.5 12.6863 11.5 16C11.5 19.3137 14.1863 22 17.5 22Z" stroke="black" stroke-width="1.5" stroke-linecap="round" stroke-linejoin="round"/>
</svg>
