<svg width="35" height="35" viewBox="0 0 35 35" fill="none" xmlns="http://www.w3.org/2000/svg">
<path d="M1 1L34 34" stroke="black" stroke-width="1.5" stroke-linecap="round" stroke-linejoin="round"/>
<path d="M22.42 22.42C21.9222 23.1476 21.2701 23.7565 20.5102 24.2035C19.7503 24.6504 18.9012 24.9244 18.0234 25.006C17.1456 25.0876 16.2606 24.9747 15.4314 24.6754C14.6021 24.3761 13.849 23.8978 13.2256 23.2744C12.6022 22.651 12.1239 21.8979 11.8246 21.0686C11.5253 20.2394 11.4124 19.3544 11.494 18.4766C11.5756 17.5988 11.8496 16.7497 12.2965 15.9898C12.7435 15.2299 13.3524 14.5778 14.08 14.08M31 31H4C3.20435 31 2.44129 30.6839 1.87868 30.1213C1.31607 29.5587 1 28.7956 1 28V11.5C1 10.7044 1.31607 9.94129 1.87868 9.37868C2.44129 8.81607 3.20435 8.5 4 8.5H8.5L31 31ZM13 4H22L25 8.5H31C31.7956 8.5 32.5587 8.81607 33.1213 9.37868C33.6839 9.94129 34 10.7044 34 11.5V25.51L13 4Z" stroke="black" stroke-width="1.5" stroke-linecap="round" stroke-linejoin="round"/>
</svg>
