<svg width="32" height="27" viewBox="0 0 32 27" fill="none" xmlns="http://www.w3.org/2000/svg">
<path d="M1 19.65C2.44134 19.944 3.76441 20.6553 4.80457 21.6954C5.84473 22.7356 6.55605 24.0587 6.85 25.5M1 13.575C4.04618 13.9138 6.88641 15.2791 9.05367 17.4463C11.2209 19.6136 12.5862 22.4538 12.925 25.5M1 7.5V4.5C1 3.70435 1.31607 2.94129 1.87868 2.37868C2.44129 1.81607 3.20435 1.5 4 1.5H28C28.7956 1.5 29.5587 1.81607 30.1213 2.37868C30.6839 2.94129 31 3.70435 31 4.5V22.5C31 23.2956 30.6839 24.0587 30.1213 24.6213C29.5587 25.1839 28.7956 25.5 28 25.5H19" stroke="black" stroke-width="1.5" stroke-linecap="round" stroke-linejoin="round"/>
<path d="M1 25.5H1.015" stroke="black" stroke-width="1.5" stroke-linecap="round" stroke-linejoin="round"/>
</svg>
