<svg width="32" height="32" viewBox="0 0 32 32" fill="none" xmlns="http://www.w3.org/2000/svg">
<path d="M16 31C24.2843 31 31 24.2843 31 16C31 7.71573 24.2843 1 16 1C7.71573 1 1 7.71573 1 16C1 24.2843 7.71573 31 16 31Z" stroke="black" stroke-width="1.5" stroke-linecap="round" stroke-linejoin="round"/>
<path d="M16 22C19.3137 22 22 19.3137 22 16C22 12.6863 19.3137 10 16 10C12.6863 10 10 12.6863 10 16C10 19.3137 12.6863 22 16 22Z" stroke="black" stroke-width="1.5" stroke-linecap="round" stroke-linejoin="round"/>
<path d="M29.755 10H16" stroke="black" stroke-width="1.5" stroke-linecap="round" stroke-linejoin="round"/>
<path d="M3.92499 7.09L10.81 19" stroke="black" stroke-width="1.5" stroke-linecap="round" stroke-linejoin="round"/>
<path d="M14.32 30.91L21.19 19" stroke="black" stroke-width="1.5" stroke-linecap="round" stroke-linejoin="round"/>
</svg>
