<svg width="35" height="35" viewBox="0 0 35 35" fill="none" xmlns="http://www.w3.org/2000/svg">
<path d="M11.5088 27.9996V30.9996" stroke="black" stroke-width="1.5" stroke-linecap="round" stroke-linejoin="round"/>
<path d="M11.5088 18.9996V21.9996" stroke="black" stroke-width="1.5" stroke-linecap="round" stroke-linejoin="round"/>
<path d="M23.5088 27.9996V30.9996" stroke="black" stroke-width="1.5" stroke-linecap="round" stroke-linejoin="round"/>
<path d="M23.5088 18.9996V21.9996" stroke="black" stroke-width="1.5" stroke-linecap="round" stroke-linejoin="round"/>
<path d="M17.5088 30.9996V33.9996" stroke="black" stroke-width="1.5" stroke-linecap="round" stroke-linejoin="round"/>
<path d="M17.5088 21.9996V24.9996" stroke="black" stroke-width="1.5" stroke-linecap="round" stroke-linejoin="round"/>
<path d="M29.5088 24.3696C31.0857 23.679 32.377 22.4669 33.166 20.9369C33.9549 19.4069 34.1935 17.652 33.8417 15.9668C33.4899 14.2817 32.5691 12.7689 31.2339 11.6823C29.8987 10.5958 28.2303 10.0016 26.5088 9.99957H24.6188C24.1434 8.15835 23.2371 6.45649 21.9748 5.03427C20.7125 3.61205 19.1302 2.51018 17.3585 1.8195C15.5867 1.12882 13.6762 0.869095 11.7844 1.06174C9.89252 1.25438 8.07355 1.89387 6.47738 2.92749C4.88121 3.96112 3.55353 5.3593 2.6038 7.00676C1.65406 8.65423 1.10945 10.5038 1.01486 12.4031C0.920265 14.3024 1.2784 16.1969 2.05975 17.9306C2.84109 19.6643 4.02327 21.1875 5.50884 22.3746" stroke="black" stroke-width="1.5" stroke-linecap="round" stroke-linejoin="round"/>
</svg>
