<svg width="35" height="26" viewBox="0 0 35 26" fill="none" xmlns="http://www.w3.org/2000/svg">
<path d="M26.509 10H24.619C24.0578 7.8265 22.8982 5.85398 21.2719 4.30659C19.6457 2.7592 17.618 1.69899 15.4193 1.24641C13.2206 0.793841 10.9391 0.96706 8.83394 1.74639C6.72877 2.52572 4.88442 3.8799 3.51043 5.65507C2.13645 7.43024 1.28794 9.55522 1.06132 11.7885C0.834691 14.0218 1.23904 16.274 2.22842 18.2889C3.2178 20.3039 4.75253 22.001 6.65823 23.1873C8.56393 24.3737 10.7642 25.0017 13.009 25H26.509C28.4981 25 30.4057 24.2098 31.8123 22.8033C33.2188 21.3968 34.009 19.4891 34.009 17.5C34.009 15.5109 33.2188 13.6032 31.8123 12.1967C30.4057 10.7902 28.4981 10 26.509 10Z" stroke="black" stroke-width="1.5" stroke-linecap="round" stroke-linejoin="round"/>
</svg>
