<svg width="35" height="35" viewBox="0 0 35 35" fill="none" xmlns="http://www.w3.org/2000/svg">
<path d="M28.0087 24.849C29.8314 24.4789 31.4516 23.4447 32.5547 21.9472C33.6578 20.4497 34.1652 18.5958 33.9783 16.7452C33.7913 14.8947 32.9235 13.1797 31.5432 11.933C30.1629 10.6864 28.3686 9.99712 26.5087 9.99899H24.6187C24.1217 8.07496 23.1547 6.30447 21.8045 4.84646C20.4543 3.38846 18.7632 2.28858 16.8829 1.64558C15.0027 1.00258 12.9921 0.836583 11.0319 1.1625C9.07163 1.48841 7.22299 2.29603 5.65195 3.51285C4.0809 4.72966 2.83663 6.31759 2.03084 8.13405C1.22505 9.95051 0.882975 11.9387 1.03532 13.92C1.18766 15.9013 1.82966 17.8138 2.90367 19.4857C3.97768 21.1576 5.45009 22.5366 7.18869 23.499" stroke="black" stroke-width="1.5" stroke-linecap="round" stroke-linejoin="round"/>
<path d="M19.0087 15.999L13.0087 24.999H22.0087L16.0087 33.999" stroke="black" stroke-width="1.5" stroke-linecap="round" stroke-linejoin="round"/>
</svg>
