<svg width="35" height="35" viewBox="0 0 35 35" fill="none" xmlns="http://www.w3.org/2000/svg">
<path d="M33.6083 24.925C34.0916 23.784 34.2846 22.5409 34.1702 21.3071C34.0557 20.0732 33.6372 18.8869 32.9523 17.8543C32.2673 16.8216 31.3372 15.9748 30.2449 15.3895C29.1527 14.8041 27.9325 14.4985 26.6933 14.5H24.8033C24.191 12.0887 22.8445 9.92737 20.9499 8.31498C19.0553 6.7026 16.7065 5.7189 14.2283 5.5M7.19335 7C4.85046 8.29546 3.00806 10.3372 1.95923 12.8004C0.910397 15.2635 0.715375 18.0067 1.40519 20.5935C2.095 23.1803 3.63002 25.4621 5.76607 27.076C7.90212 28.6899 10.5165 29.5431 13.1933 29.5H26.6933C27.563 29.499 28.4259 29.3467 29.2433 29.05" stroke="black" stroke-width="1.5" stroke-linecap="round" stroke-linejoin="round"/>
<path d="M1.19336 1L34.1934 34" stroke="black" stroke-width="1.5" stroke-linecap="round" stroke-linejoin="round"/>
</svg>
