<svg width="29" height="29" viewBox="0 0 29 29" fill="none" xmlns="http://www.w3.org/2000/svg">
<path d="M14.5 1V28M14.5 1H25C25.7956 1 26.5587 1.31607 27.1213 1.87868C27.6839 2.44129 28 3.20435 28 4V25C28 25.7956 27.6839 26.5587 27.1213 27.1213C26.5587 27.6839 25.7956 28 25 28H14.5V1ZM14.5 1H4C3.20435 1 2.44129 1.31607 1.87868 1.87868C1.31607 2.44129 1 3.20435 1 4V25C1 25.7956 1.31607 26.5587 1.87868 27.1213C2.44129 27.6839 3.20435 28 4 28H14.5V1Z" stroke="black" stroke-width="1.5" stroke-linecap="round" stroke-linejoin="round"/>
</svg>
