<svg width="29" height="29" viewBox="0 0 29 29" fill="none" xmlns="http://www.w3.org/2000/svg">
<path d="M23.5 1C22.3065 1 21.1619 1.47411 20.318 2.31802C19.4741 3.16193 19 4.30653 19 5.5V23.5C19 24.6935 19.4741 25.8381 20.318 26.682C21.1619 27.5259 22.3065 28 23.5 28C24.6935 28 25.8381 27.5259 26.682 26.682C27.5259 25.8381 28 24.6935 28 23.5C28 22.3065 27.5259 21.1619 26.682 20.318C25.8381 19.4741 24.6935 19 23.5 19H5.5C4.30653 19 3.16193 19.4741 2.31802 20.318C1.47411 21.1619 1 22.3065 1 23.5C1 24.6935 1.47411 25.8381 2.31802 26.682C3.16193 27.5259 4.30653 28 5.5 28C6.69347 28 7.83807 27.5259 8.68198 26.682C9.52589 25.8381 10 24.6935 10 23.5V5.5C10 4.30653 9.52589 3.16193 8.68198 2.31802C7.83807 1.47411 6.69347 1 5.5 1C4.30653 1 3.16193 1.47411 2.31802 2.31802C1.47411 3.16193 1 4.30653 1 5.5C1 6.69347 1.47411 7.83807 2.31802 8.68198C3.16193 9.52589 4.30653 10 5.5 10H23.5C24.6935 10 25.8381 9.52589 26.682 8.68198C27.5259 7.83807 28 6.69347 28 5.5C28 4.30653 27.5259 3.16193 26.682 2.31802C25.8381 1.47411 24.6935 1 23.5 1Z" stroke="black" stroke-width="1.5" stroke-linecap="round" stroke-linejoin="round"/>
</svg>
