<svg width="35" height="29" viewBox="0 0 35 29" fill="none" xmlns="http://www.w3.org/2000/svg">
<path d="M11.5134 22.0175L17.5134 28.0175L23.5134 22.0175" stroke="black" stroke-width="1.5" stroke-linecap="round" stroke-linejoin="round"/>
<path d="M17.5134 14.5175V28.0175" stroke="black" stroke-width="1.5" stroke-linecap="round" stroke-linejoin="round"/>
<path d="M30.8334 23.6525C32.1375 22.7354 33.1155 21.4267 33.6254 19.9162C34.1353 18.4057 34.1506 16.772 33.669 15.2522C33.1875 13.7324 32.2342 12.4056 30.9476 11.4643C29.6609 10.523 28.1077 10.0162 26.5134 10.0175H24.6234C24.1723 8.25929 23.3282 6.62635 22.1546 5.2416C20.9811 3.85685 19.5087 2.75637 17.8483 2.02301C16.1879 1.28965 14.3827 0.942519 12.5687 1.00775C10.7548 1.07299 8.97922 1.54888 7.37578 2.39962C5.77234 3.25035 4.38279 4.45375 3.31173 5.91922C2.24067 7.38469 1.51603 9.07405 1.19234 10.8601C0.868654 12.6462 0.954365 14.4824 1.44302 16.2305C1.93167 17.9786 2.81054 19.5932 4.01345 20.9525" stroke="black" stroke-width="1.5" stroke-linecap="round" stroke-linejoin="round"/>
</svg>
