<svg width="32" height="32" viewBox="0 0 32 32" fill="none" xmlns="http://www.w3.org/2000/svg">
<path d="M23.5 2.24264C23.894 1.84867 24.3617 1.53616 24.8764 1.32295C25.3912 1.10974 25.9428 1 26.5 1C27.0572 1 27.6088 1.10974 28.1236 1.32295C28.6383 1.53616 29.106 1.84867 29.5 2.24264C29.894 2.63661 30.2065 3.10431 30.4197 3.61905C30.6329 4.13379 30.7426 4.68549 30.7426 5.24264C30.7426 5.79979 30.6329 6.35149 30.4197 6.86623C30.2065 7.38097 29.894 7.84868 29.5 8.24264L9.25 28.4926L1 30.7426L3.25 22.4926L23.5 2.24264Z" stroke="black" stroke-width="1.5" stroke-linecap="round" stroke-linejoin="round"/>
</svg>
