<svg width="32" height="32" viewBox="0 0 32 32" fill="none" xmlns="http://www.w3.org/2000/svg">
<path d="M14.5 4.18198H4C3.20435 4.18198 2.44129 4.49805 1.87868 5.06066C1.31607 5.62327 1 6.38633 1 7.18198V28.182C1 28.9776 1.31607 29.7407 1.87868 30.3033C2.44129 30.8659 3.20435 31.182 4 31.182H25C25.7956 31.182 26.5587 30.8659 27.1213 30.3033C27.6839 29.7407 28 28.9776 28 28.182V17.682" stroke="black" stroke-width="1.5" stroke-linecap="round" stroke-linejoin="round"/>
<path d="M25.75 1.93198C26.3467 1.33524 27.1561 1 28 1C28.8439 1 29.6533 1.33524 30.25 1.93198C30.8467 2.52872 31.182 3.33807 31.182 4.18198C31.182 5.02589 30.8467 5.83524 30.25 6.43198L16 20.682L10 22.182L11.5 16.182L25.75 1.93198Z" stroke="black" stroke-width="1.5" stroke-linecap="round" stroke-linejoin="round"/>
</svg>
