<svg width="35" height="35" viewBox="0 0 35 35" fill="none" xmlns="http://www.w3.org/2000/svg">
<path d="M20.68 20.68C20.268 21.1221 19.7712 21.4767 19.2192 21.7227C18.6672 21.9686 18.0714 22.1009 17.4671 22.1115C16.8629 22.1222 16.2627 22.0111 15.7024 21.7847C15.1421 21.5584 14.6331 21.2215 14.2058 20.7942C13.7785 20.3669 13.4416 19.8579 13.2153 19.2976C12.9889 18.7373 12.8778 18.1371 12.8885 17.5329C12.8991 16.9286 13.0314 16.3328 13.2773 15.7808C13.5233 15.2288 13.8779 14.732 14.32 14.32M26.41 26.41C23.8459 28.3645 20.7237 29.4473 17.5 29.5C7 29.5 1 17.5 1 17.5C2.86583 14.0228 5.4537 10.9849 8.59 8.59L26.41 26.41ZM14.35 5.86C15.3825 5.61832 16.4396 5.49751 17.5 5.5C28 5.5 34 17.5 34 17.5C33.0895 19.2034 32.0036 20.8071 30.76 22.285L14.35 5.86Z" stroke="black" stroke-width="1.5" stroke-linecap="round" stroke-linejoin="round"/>
<path d="M1 1L34 34" stroke="black" stroke-width="1.5" stroke-linecap="round" stroke-linejoin="round"/>
</svg>
