<svg width="23" height="34" viewBox="0 0 23 34" fill="none" xmlns="http://www.w3.org/2000/svg">
<path d="M1 6.25C1 4.85761 1.55312 3.52226 2.53769 2.53769C3.52226 1.55312 4.85761 1 6.25 1H11.5V11.5H6.25C4.85761 11.5 3.52226 10.9469 2.53769 9.96231C1.55312 8.97774 1 7.64239 1 6.25Z" stroke="black" stroke-width="1.5" stroke-linecap="round" stroke-linejoin="round"/>
<path d="M11.5 1H16.75C17.4394 1 18.1221 1.1358 18.7591 1.39963C19.396 1.66347 19.9748 2.05018 20.4623 2.53769C20.9498 3.0252 21.3365 3.60395 21.6004 4.24091C21.8642 4.87787 22 5.56056 22 6.25C22 6.93944 21.8642 7.62213 21.6004 8.25909C21.3365 8.89605 20.9498 9.4748 20.4623 9.96231C19.9748 10.4498 19.396 10.8365 18.7591 11.1004C18.1221 11.3642 17.4394 11.5 16.75 11.5H11.5V1Z" stroke="black" stroke-width="1.5" stroke-linecap="round" stroke-linejoin="round"/>
<path d="M11.5 16.75C11.5 16.0606 11.6358 15.3779 11.8996 14.7409C12.1635 14.104 12.5502 13.5252 13.0377 13.0377C13.5252 12.5502 14.104 12.1635 14.7409 11.8996C15.3779 11.6358 16.0606 11.5 16.75 11.5C17.4394 11.5 18.1221 11.6358 18.7591 11.8996C19.396 12.1635 19.9748 12.5502 20.4623 13.0377C20.9498 13.5252 21.3365 14.104 21.6004 14.7409C21.8642 15.3779 22 16.0606 22 16.75C22 17.4394 21.8642 18.1221 21.6004 18.7591C21.3365 19.396 20.9498 19.9748 20.4623 20.4623C19.9748 20.9498 19.396 21.3365 18.7591 21.6004C18.1221 21.8642 17.4394 22 16.75 22C16.0606 22 15.3779 21.8642 14.7409 21.6004C14.104 21.3365 13.5252 20.9498 13.0377 20.4623C12.5502 19.9748 12.1635 19.396 11.8996 18.7591C11.6358 18.1221 11.5 17.4394 11.5 16.75V16.75Z" stroke="black" stroke-width="1.5" stroke-linecap="round" stroke-linejoin="round"/>
<path d="M1 27.25C1 25.8576 1.55312 24.5223 2.53769 23.5377C3.52226 22.5531 4.85761 22 6.25 22H11.5V27.25C11.5 28.6424 10.9469 29.9777 9.96231 30.9623C8.97774 31.9469 7.64239 32.5 6.25 32.5C4.85761 32.5 3.52226 31.9469 2.53769 30.9623C1.55312 29.9777 1 28.6424 1 27.25Z" stroke="black" stroke-width="1.5" stroke-linecap="round" stroke-linejoin="round"/>
<path d="M1 16.75C1 15.3576 1.55312 14.0223 2.53769 13.0377C3.52226 12.0531 4.85761 11.5 6.25 11.5H11.5V22H6.25C4.85761 22 3.52226 21.4469 2.53769 20.4623C1.55312 19.4777 1 18.1424 1 16.75Z" stroke="black" stroke-width="1.5" stroke-linecap="round" stroke-linejoin="round"/>
</svg>
