<svg width="32" height="32" viewBox="0 0 32 32" fill="none" xmlns="http://www.w3.org/2000/svg">
<path d="M28 16V31H4V16" stroke="black" stroke-width="1.5" stroke-linecap="round" stroke-linejoin="round"/>
<path d="M31 8.5H1V16H31V8.5Z" stroke="black" stroke-width="1.5" stroke-linecap="round" stroke-linejoin="round"/>
<path d="M16 31V8.5" stroke="black" stroke-width="1.5" stroke-linecap="round" stroke-linejoin="round"/>
<path d="M16 8.5H9.25C8.25544 8.5 7.30161 8.10491 6.59835 7.40165C5.89509 6.69839 5.5 5.74456 5.5 4.75C5.5 3.75544 5.89509 2.80161 6.59835 2.09835C7.30161 1.39509 8.25544 1 9.25 1C14.5 1 16 8.5 16 8.5Z" stroke="black" stroke-width="1.5" stroke-linecap="round" stroke-linejoin="round"/>
<path d="M16 8.5H22.75C23.7446 8.5 24.6984 8.10491 25.4017 7.40165C26.1049 6.69839 26.5 5.74456 26.5 4.75C26.5 3.75544 26.1049 2.80161 25.4017 2.09835C24.6984 1.39509 23.7446 1 22.75 1C17.5 1 16 8.5 16 8.5Z" stroke="black" stroke-width="1.5" stroke-linecap="round" stroke-linejoin="round"/>
</svg>
