<svg width="29" height="29" viewBox="0 0 29 29" fill="none" xmlns="http://www.w3.org/2000/svg">
<path d="M23.5 28C25.9853 28 28 25.9853 28 23.5C28 21.0147 25.9853 19 23.5 19C21.0147 19 19 21.0147 19 23.5C19 25.9853 21.0147 28 23.5 28Z" stroke="black" stroke-width="1.5" stroke-linecap="round" stroke-linejoin="round"/>
<path d="M5.5 10C7.98528 10 10 7.98528 10 5.5C10 3.01472 7.98528 1 5.5 1C3.01472 1 1 3.01472 1 5.5C1 7.98528 3.01472 10 5.5 10Z" stroke="black" stroke-width="1.5" stroke-linecap="round" stroke-linejoin="round"/>
<path d="M5.5 28V10C5.5 13.5804 6.92232 17.0142 9.45406 19.5459C11.9858 22.0777 15.4196 23.5 19 23.5" stroke="black" stroke-width="1.5" stroke-linecap="round" stroke-linejoin="round"/>
</svg>
