<svg width="29" height="29" viewBox="0 0 29 29" fill="none" xmlns="http://www.w3.org/2000/svg">
<path d="M5.5 1V19" stroke="black" stroke-width="1.5" stroke-linecap="round" stroke-linejoin="round"/>
<path d="M23.5 10C25.9853 10 28 7.98528 28 5.5C28 3.01472 25.9853 1 23.5 1C21.0147 1 19 3.01472 19 5.5C19 7.98528 21.0147 10 23.5 10Z" stroke="black" stroke-width="1.5" stroke-linecap="round" stroke-linejoin="round"/>
<path d="M5.5 28C7.98528 28 10 25.9853 10 23.5C10 21.0147 7.98528 19 5.5 19C3.01472 19 1 21.0147 1 23.5C1 25.9853 3.01472 28 5.5 28Z" stroke="black" stroke-width="1.5" stroke-linecap="round" stroke-linejoin="round"/>
<path d="M23.5 10C23.5 13.5804 22.0777 17.0142 19.5459 19.5459C17.0142 22.0777 13.5804 23.5 10 23.5" stroke="black" stroke-width="1.5" stroke-linecap="round" stroke-linejoin="round"/>
</svg>
