<svg width="31" height="34" viewBox="0 0 31 34" fill="none" xmlns="http://www.w3.org/2000/svg">
<path d="M11.5 28.0402C4 30.2902 4 24.2902 1 23.5402M22 32.5402V26.7352C22.0563 26.0199 21.9596 25.3009 21.7165 24.6259C21.4734 23.9509 21.0894 23.3353 20.59 22.8202C25.3 22.2952 30.25 20.5102 30.25 12.3202C30.2496 10.2259 29.444 8.21199 28 6.69519C28.6838 4.86295 28.6354 2.83771 27.865 1.04019C27.865 1.04019 26.095 0.51519 22 3.26019C18.562 2.32842 14.938 2.32842 11.5 3.26019C7.405 0.51519 5.635 1.04019 5.635 1.04019C4.86456 2.83771 4.81622 4.86295 5.5 6.69519C4.04519 8.22324 3.23878 10.2554 3.25 12.3652C3.25 20.4952 8.2 22.2802 12.91 22.8652C12.4165 23.3751 12.0359 23.9833 11.793 24.6501C11.55 25.3168 11.4502 26.0273 11.5 26.7352V32.5402" stroke="black" stroke-width="1.5" stroke-linecap="round" stroke-linejoin="round"/>
</svg>
