<svg width="35" height="33" viewBox="0 0 35 33" fill="none" xmlns="http://www.w3.org/2000/svg">
<path d="M33.4635 19.7538L17.4885 31.3638L1.5135 19.7538C1.29934 19.5963 1.14048 19.3751 1.05965 19.1218C0.978823 18.8685 0.980169 18.5962 1.0635 18.3438L2.8935 12.6738L6.5535 1.40876C6.589 1.31698 6.64551 1.23478 6.7185 1.16876C6.83736 1.0602 6.99252 1 7.1535 1C7.31448 1 7.46964 1.0602 7.5885 1.16876C7.66557 1.24326 7.72236 1.33619 7.7535 1.43876L11.4135 12.6738H23.5635L27.2235 1.40876C27.259 1.31698 27.3155 1.23478 27.3885 1.16876C27.5074 1.0602 27.6625 1 27.8235 1C27.9845 1 28.1396 1.0602 28.2585 1.16876C28.3356 1.24326 28.3924 1.33619 28.4235 1.43876L32.0835 12.7038L33.9885 18.3438C34.0643 18.604 34.0541 18.8817 33.9596 19.1357C33.865 19.3897 33.691 19.6065 33.4635 19.7538V19.7538Z" stroke="black" stroke-width="1.5" stroke-linecap="round" stroke-linejoin="round"/>
</svg>
