<svg width="29" height="29" viewBox="0 0 29 29" fill="none" xmlns="http://www.w3.org/2000/svg">
<path d="M1 23.5V14.5C1 10.9196 2.42232 7.4858 4.95406 4.95406C7.4858 2.42232 10.9196 1 14.5 1C18.0804 1 21.5142 2.42232 24.0459 4.95406C26.5777 7.4858 28 10.9196 28 14.5V23.5" stroke="black" stroke-width="1.5" stroke-linecap="round" stroke-linejoin="round"/>
<path d="M28 25C28 25.7956 27.6839 26.5587 27.1213 27.1213C26.5587 27.6839 25.7956 28 25 28H23.5C22.7044 28 21.9413 27.6839 21.3787 27.1213C20.8161 26.5587 20.5 25.7956 20.5 25V20.5C20.5 19.7044 20.8161 18.9413 21.3787 18.3787C21.9413 17.8161 22.7044 17.5 23.5 17.5H28V25ZM1 25C1 25.7956 1.31607 26.5587 1.87868 27.1213C2.44129 27.6839 3.20435 28 4 28H5.5C6.29565 28 7.05871 27.6839 7.62132 27.1213C8.18393 26.5587 8.5 25.7956 8.5 25V20.5C8.5 19.7044 8.18393 18.9413 7.62132 18.3787C7.05871 17.8161 6.29565 17.5 5.5 17.5H1V25Z" stroke="black" stroke-width="1.5" stroke-linecap="round" stroke-linejoin="round"/>
</svg>
