<svg width="34" height="30" viewBox="0 0 34 30" fill="none" xmlns="http://www.w3.org/2000/svg">
<path d="M29.9369 3.41774C29.1708 2.65124 28.2612 2.04321 27.26 1.62836C26.2588 1.21352 25.1857 1 24.1019 1C23.0182 1 21.9451 1.21352 20.9439 1.62836C19.9427 2.04321 19.0331 2.65124 18.2669 3.41774L16.6769 5.00774L15.0869 3.41774C13.5394 1.8702 11.4405 1.0008 9.25194 1.0008C7.06339 1.0008 4.96447 1.8702 3.41694 3.41774C1.8694 4.96528 1 7.06419 1 9.25274C1 11.4413 1.8694 13.5402 3.41694 15.0877L5.00694 16.6777L16.6769 28.3477L28.3469 16.6777L29.9369 15.0877C30.7034 14.3216 31.3115 13.412 31.7263 12.4108C32.1412 11.4096 32.3547 10.3365 32.3547 9.25274C32.3547 8.16901 32.1412 7.09589 31.7263 6.09471C31.3115 5.09352 30.7034 4.18387 29.9369 3.41774V3.41774Z" stroke="black" stroke-width="1.5" stroke-linecap="round" stroke-linejoin="round"/>
</svg>
