<svg width="32" height="32" viewBox="0 0 32 32" fill="none" xmlns="http://www.w3.org/2000/svg">
<path d="M16 31C24.2843 31 31 24.2843 31 16C31 7.71573 24.2843 1 16 1C7.71573 1 1 7.71573 1 16C1 24.2843 7.71573 31 16 31Z" stroke="black" stroke-width="1.5" stroke-linecap="round" stroke-linejoin="round"/>
<path d="M11.635 11.5C11.9877 10.4975 12.6837 9.65216 13.5999 9.1137C14.5161 8.57524 15.5934 8.37841 16.6408 8.55807C17.6882 8.73773 18.6382 9.28229 19.3226 10.0953C20.007 10.9083 20.3816 11.9373 20.38 13C20.38 16 15.88 17.5 15.88 17.5" stroke="black" stroke-width="1.5" stroke-linecap="round" stroke-linejoin="round"/>
<path d="M16 23.5H16.015" stroke="black" stroke-width="1.5" stroke-linecap="round" stroke-linejoin="round"/>
</svg>
