<svg width="29" height="29" viewBox="0 0 29 29" fill="none" xmlns="http://www.w3.org/2000/svg">
<path d="M25 1H4C2.34315 1 1 2.34315 1 4V25C1 26.6569 2.34315 28 4 28H25C26.6569 28 28 26.6569 28 25V4C28 2.34315 26.6569 1 25 1Z" stroke="black" stroke-width="1.5" stroke-linecap="round" stroke-linejoin="round"/>
<path d="M9.25 11.5C10.4926 11.5 11.5 10.4926 11.5 9.25C11.5 8.00736 10.4926 7 9.25 7C8.00736 7 7 8.00736 7 9.25C7 10.4926 8.00736 11.5 9.25 11.5Z" stroke="black" stroke-width="1.5" stroke-linecap="round" stroke-linejoin="round"/>
<path d="M28 19L20.5 11.5L4 28" stroke="black" stroke-width="1.5" stroke-linecap="round" stroke-linejoin="round"/>
</svg>
