<svg width="32" height="31" viewBox="0 0 32 31" fill="none" xmlns="http://www.w3.org/2000/svg">
<path d="M21.1479 9.25L26.3979 4M29.3979 1L26.3979 4L29.3979 1ZM14.9829 15.415C15.7574 16.1792 16.3731 17.0891 16.7945 18.0922C17.2159 19.0953 17.4348 20.1719 17.4384 21.2599C17.4421 22.348 17.2304 23.426 16.8157 24.432C16.401 25.4379 15.7915 26.3518 15.0221 27.1212C14.2527 27.8906 13.3388 28.5002 12.3328 28.9149C11.3269 29.3296 10.2489 29.5412 9.16082 29.5375C8.07277 29.5339 6.99619 29.3151 5.99306 28.8936C4.98993 28.4722 4.08007 27.8565 3.31587 27.082C1.81307 25.526 0.981515 23.4421 1.00031 21.2789C1.01911 19.1158 1.88675 17.0466 3.41637 15.517C4.94599 13.9874 7.01519 13.1197 9.17831 13.1009C11.3414 13.0821 13.4254 13.9137 14.9814 15.4165L14.9829 15.415ZM14.9829 15.415L21.1479 9.25L14.9829 15.415ZM21.1479 9.25L25.6479 13.75L30.8979 8.5L26.3979 4L21.1479 9.25Z" stroke="black" stroke-width="1.5" stroke-linecap="round" stroke-linejoin="round"/>
</svg>
