<svg width="32" height="32" viewBox="0 0 32 32" fill="none" xmlns="http://www.w3.org/2000/svg">
<path d="M12.9153 17.4003C13.5595 18.2615 14.3814 18.9741 15.3252 19.4897C16.269 20.0054 17.3126 20.312 18.3853 20.3888C19.458 20.4657 20.5347 20.3109 21.5424 19.935C22.55 19.5591 23.465 18.9709 24.2253 18.2103L28.7253 13.7103C30.0915 12.2958 30.8475 10.4013 30.8304 8.43483C30.8133 6.46835 30.0245 4.58726 28.634 3.1967C27.2434 1.80614 25.3623 1.01737 23.3959 1.00028C21.4294 0.983195 19.5349 1.73915 18.1203 3.10534L15.5403 5.67034" stroke="black" stroke-width="1.5" stroke-linecap="round" stroke-linejoin="round"/>
<path d="M18.9153 14.4003C18.2712 13.5391 17.4493 12.8266 16.5055 12.3109C15.5617 11.7953 14.5181 11.4887 13.4454 11.4118C12.3726 11.335 11.296 11.4898 10.2883 11.8657C9.28068 12.2415 8.36567 12.8297 7.60534 13.5903L3.10534 18.0903C1.73915 19.5048 0.983195 21.3994 1.00028 23.3658C1.01737 25.3323 1.80614 27.2134 3.1967 28.604C4.58726 29.9945 6.46835 30.7833 8.43483 30.8004C10.4013 30.8175 12.2958 30.0615 13.7103 28.6953L16.2753 26.1303" stroke="black" stroke-width="1.5" stroke-linecap="round" stroke-linejoin="round"/>
</svg>
