<svg width="35" height="17" viewBox="0 0 35 17" fill="none" xmlns="http://www.w3.org/2000/svg">
<path d="M13 16H8.5C7.51509 16 6.53982 15.806 5.62987 15.4291C4.71993 15.0522 3.89314 14.4997 3.1967 13.8033C1.79018 12.3968 1 10.4891 1 8.5C1 6.51088 1.79018 4.60322 3.1967 3.1967C4.60322 1.79018 6.51088 1 8.5 1H13M13 16H8.5C7.51509 16 6.53982 15.806 5.62987 15.4291C4.71993 15.0522 3.89314 14.4997 3.1967 13.8033C1.79018 12.3968 1 10.4891 1 8.5C1 6.51088 1.79018 4.60322 3.1967 3.1967C4.60322 1.79018 6.51088 1 8.5 1H13" stroke="black" stroke-width="1.5" stroke-linecap="round" stroke-linejoin="round"/>
<path d="M22 0.999999L26.5 0.999999C27.4849 0.999999 28.4602 1.19399 29.3701 1.5709C30.2801 1.94781 31.1069 2.50026 31.8033 3.1967C33.2098 4.60322 34 6.51088 34 8.5C34 10.4891 33.2098 12.3968 31.8033 13.8033C30.3968 15.2098 28.4891 16 26.5 16L22 16M22 0.999999L26.5 0.999999C27.4849 0.999999 28.4602 1.19399 29.3701 1.5709C30.2801 1.94781 31.1069 2.50026 31.8033 3.1967C33.2098 4.60322 34 6.51088 34 8.5C34 10.4891 33.2098 12.3968 31.8033 13.8033C30.3968 15.2098 28.4891 16 26.5 16L22 16" stroke="black" stroke-width="1.5" stroke-linecap="round" stroke-linejoin="round"/>
<path d="M11.5 8.5H23.5" stroke="black" stroke-width="1.5" stroke-linecap="round" stroke-linejoin="round"/>
</svg>
