<svg width="29" height="32" viewBox="0 0 29 32" fill="none" xmlns="http://www.w3.org/2000/svg">
<path d="M25 14.5H4C2.34315 14.5 1 15.8431 1 17.5V28C1 29.6569 2.34315 31 4 31H25C26.6569 31 28 29.6569 28 28V17.5C28 15.8431 26.6569 14.5 25 14.5Z" stroke="black" stroke-width="1.5" stroke-linecap="round" stroke-linejoin="round"/>
<path d="M7 14.5V8.5C7 6.51088 7.79018 4.60322 9.1967 3.1967C10.6032 1.79018 12.5109 1 14.5 1C16.4891 1 18.3968 1.79018 19.8033 3.1967C21.2098 4.60322 22 6.51088 22 8.5V14.5" stroke="black" stroke-width="1.5" stroke-linecap="round" stroke-linejoin="round"/>
</svg>
