<svg width="29" height="35" viewBox="0 0 29 35" fill="none" xmlns="http://www.w3.org/2000/svg">
<path d="M28 14.5C28 25 14.5 34 14.5 34C14.5 34 1 25 1 14.5C1 10.9196 2.42232 7.4858 4.95406 4.95406C7.4858 2.42232 10.9196 1 14.5 1C18.0804 1 21.5142 2.42232 24.0459 4.95406C26.5777 7.4858 28 10.9196 28 14.5Z" stroke="black" stroke-width="1.5" stroke-linecap="round" stroke-linejoin="round"/>
<path d="M14.5 19C16.9853 19 19 16.9853 19 14.5C19 12.0147 16.9853 10 14.5 10C12.0147 10 10 12.0147 10 14.5C10 16.9853 12.0147 19 14.5 19Z" stroke="black" stroke-width="1.5" stroke-linecap="round" stroke-linejoin="round"/>
</svg>
