<svg width="29" height="29" viewBox="0 0 29 29" fill="none" xmlns="http://www.w3.org/2000/svg">
<path d="M8.5 1H4C3.20435 1 2.44129 1.31607 1.87868 1.87868C1.31607 2.44129 1 3.20435 1 4V8.5L8.5 1ZM28 8.5V4C28 3.20435 27.6839 2.44129 27.1213 1.87868C26.5587 1.31607 25.7956 1 25 1H20.5L28 8.5ZM20.5 28H25C25.7956 28 26.5587 27.6839 27.1213 27.1213C27.6839 26.5587 28 25.7956 28 25V20.5L20.5 28ZM1 20.5V25C1 25.7956 1.31607 26.5587 1.87868 27.1213C2.44129 27.6839 3.20435 28 4 28H8.5" stroke="black" stroke-width="1.5" stroke-linecap="round" stroke-linejoin="round"/>
</svg>
