<svg width="35" height="35" viewBox="0 0 35 35" fill="none" xmlns="http://www.w3.org/2000/svg">
<path d="M1 1.00455L34 34.0045" stroke="black" stroke-width="1.5" stroke-linecap="round" stroke-linejoin="round"/>
<path d="M22 13.5145V5.50453C22.0011 4.38858 21.5875 3.31201 20.8396 2.48383C20.0916 1.65565 19.0626 1.13495 17.9522 1.02279C16.8419 0.910641 15.7296 1.21505 14.8311 1.87691C13.9326 2.53878 13.3121 3.51089 13.09 4.60453M13 13.0045V17.5045C13.0008 18.394 13.2651 19.2632 13.7596 20.0025C14.2542 20.7418 14.9567 21.318 15.7785 21.6583C16.6002 21.9985 17.5044 22.0876 18.3768 21.9143C19.2492 21.741 20.0507 21.3131 20.68 20.6845L13 13.0045Z" stroke="black" stroke-width="1.5" stroke-linecap="round" stroke-linejoin="round"/>
<path d="M25 24.9295C23.5357 26.4242 21.6582 27.4472 19.6084 27.8674C17.5586 28.2877 15.43 28.0859 13.4957 27.288C11.5614 26.4901 9.90961 25.1324 8.75223 23.3893C7.59485 21.6461 6.98467 19.5969 6.99998 17.5045V14.5045M28 14.5045V17.5045C27.9994 18.1232 27.9442 18.7406 27.835 19.3495" stroke="black" stroke-width="1.5" stroke-linecap="round" stroke-linejoin="round"/>
<path d="M17.5 28.0045V34.0045" stroke="black" stroke-width="1.5" stroke-linecap="round" stroke-linejoin="round"/>
<path d="M11.5 34.0045H23.5" stroke="black" stroke-width="1.5" stroke-linecap="round" stroke-linejoin="round"/>
</svg>
