<svg width="29" height="29" viewBox="0 0 29 29" fill="none" xmlns="http://www.w3.org/2000/svg">
<path d="M8.5 1V5.5C8.5 6.29565 8.18393 7.05871 7.62132 7.62132C7.05871 8.18393 6.29565 8.5 5.5 8.5H1L8.5 1ZM28 8.5H23.5C22.7044 8.5 21.9413 8.18393 21.3787 7.62132C20.8161 7.05871 20.5 6.29565 20.5 5.5V1L28 8.5ZM20.5 28V23.5C20.5 22.7044 20.8161 21.9413 21.3787 21.3787C21.9413 20.8161 22.7044 20.5 23.5 20.5H28L20.5 28ZM1 20.5H5.5C6.29565 20.5 7.05871 20.8161 7.62132 21.3787C8.18393 21.9413 8.5 22.7044 8.5 23.5V28" stroke="black" stroke-width="1.5" stroke-linecap="round" stroke-linejoin="round"/>
</svg>
