<svg width="29" height="29" viewBox="0 0 29 29" fill="none" xmlns="http://www.w3.org/2000/svg">
<path d="M27.9427 15.685C27.7068 18.2383 26.7485 20.6716 25.1801 22.7002C23.6117 24.7288 21.498 26.2687 19.0863 27.1398C16.6746 28.0109 14.0647 28.1772 11.562 27.6191C9.05925 27.0611 6.76721 25.8018 4.95406 23.9887C3.14091 22.1755 1.88163 19.8835 1.32358 17.3807C0.765536 14.878 0.931797 12.2681 1.80291 9.85645C2.67403 7.44476 4.21397 5.33105 6.24254 3.76263C8.27112 2.19421 10.7044 1.23596 13.2577 1C11.7628 3.0224 11.0435 5.51417 11.2305 8.02212C11.4175 10.5301 12.4985 12.8876 14.2768 14.6659C16.0551 16.4442 18.4127 17.5252 20.9206 17.7122C23.4286 17.8992 25.9203 17.1799 27.9427 15.685V15.685Z" stroke="black" stroke-width="1.5" stroke-linecap="round" stroke-linejoin="round"/>
</svg>
