<svg width="5" height="26" viewBox="0 0 5 26" fill="none" xmlns="http://www.w3.org/2000/svg">
<path d="M2.5 14.5C3.32843 14.5 4 13.8284 4 13C4 12.1716 3.32843 11.5 2.5 11.5C1.67157 11.5 1 12.1716 1 13C1 13.8284 1.67157 14.5 2.5 14.5Z" stroke="black" stroke-width="1.5" stroke-linecap="round" stroke-linejoin="round"/>
<path d="M2.5 4C3.32843 4 4 3.32843 4 2.5C4 1.67157 3.32843 1 2.5 1C1.67157 1 1 1.67157 1 2.5C1 3.32843 1.67157 4 2.5 4Z" stroke="black" stroke-width="1.5" stroke-linecap="round" stroke-linejoin="round"/>
<path d="M2.5 25C3.32843 25 4 24.3284 4 23.5C4 22.6716 3.32843 22 2.5 22C1.67157 22 1 22.6716 1 23.5C1 24.3284 1.67157 25 2.5 25Z" stroke="black" stroke-width="1.5" stroke-linecap="round" stroke-linejoin="round"/>
</svg>
