<svg width="26" height="5" viewBox="0 0 26 5" fill="none" xmlns="http://www.w3.org/2000/svg">
<path d="M13 4C13.8284 4 14.5 3.32843 14.5 2.5C14.5 1.67157 13.8284 1 13 1C12.1716 1 11.5 1.67157 11.5 2.5C11.5 3.32843 12.1716 4 13 4Z" stroke="black" stroke-width="1.5" stroke-linecap="round" stroke-linejoin="round"/>
<path d="M23.5 4C24.3284 4 25 3.32843 25 2.5C25 1.67157 24.3284 1 23.5 1C22.6716 1 22 1.67157 22 2.5C22 3.32843 22.6716 4 23.5 4Z" stroke="black" stroke-width="1.5" stroke-linecap="round" stroke-linejoin="round"/>
<path d="M2.5 4C3.32843 4 4 3.32843 4 2.5C4 1.67157 3.32843 1 2.5 1C1.67157 1 1 1.67157 1 2.5C1 3.32843 1.67157 4 2.5 4Z" stroke="black" stroke-width="1.5" stroke-linecap="round" stroke-linejoin="round"/>
</svg>
