<svg width="29" height="29" viewBox="0 0 29 29" fill="none" xmlns="http://www.w3.org/2000/svg">
<path d="M10 23.5V4L28 1V20.5" stroke="black" stroke-width="1.5" stroke-linecap="round" stroke-linejoin="round"/>
<path d="M5.5 28C7.98528 28 10 25.9853 10 23.5C10 21.0147 7.98528 19 5.5 19C3.01472 19 1 21.0147 1 23.5C1 25.9853 3.01472 28 5.5 28Z" stroke="black" stroke-width="1.5" stroke-linecap="round" stroke-linejoin="round"/>
<path d="M23.5 25C25.9853 25 28 22.9853 28 20.5C28 18.0147 25.9853 16 23.5 16C21.0147 16 19 18.0147 19 20.5C19 22.9853 21.0147 25 23.5 25Z" stroke="black" stroke-width="1.5" stroke-linecap="round" stroke-linejoin="round"/>
</svg>
