<svg width="29" height="32" viewBox="0 0 29 32" fill="none" xmlns="http://www.w3.org/2000/svg">
<path d="M21.25 12.0969L7.75 4.31192" stroke="black" stroke-width="1.5" stroke-linecap="round" stroke-linejoin="round"/>
<path d="M28 21.9969V9.99692C27.9995 9.47084 27.8606 8.95414 27.5973 8.49867C27.334 8.0432 26.9556 7.66497 26.5 7.40192L16 1.40192C15.5439 1.13862 15.0266 1 14.5 1C13.9734 1 13.4561 1.13862 13 1.40192L2.5 7.40192C2.04439 7.66497 1.66597 8.0432 1.40269 8.49867C1.13941 8.95414 1.00054 9.47084 1 9.99692V21.9969C1.00054 22.523 1.13941 23.0397 1.40269 23.4952C1.66597 23.9507 2.04439 24.3289 2.5 24.5919L13 30.5919C13.4561 30.8552 13.9734 30.9938 14.5 30.9938C15.0266 30.9938 15.5439 30.8552 16 30.5919L26.5 24.5919C26.9556 24.3289 27.334 23.9507 27.5973 23.4952C27.8606 23.0397 27.9995 22.523 28 21.9969Z" stroke="black" stroke-width="1.5" stroke-linecap="round" stroke-linejoin="round"/>
<path d="M1.40503 8.43692L14.5 16.0119L27.595 8.43692" stroke="black" stroke-width="1.5" stroke-linecap="round" stroke-linejoin="round"/>
<path d="M14.5 31.1169V15.9969" stroke="black" stroke-width="1.5" stroke-linecap="round" stroke-linejoin="round"/>
</svg>
