<svg width="31" height="33" viewBox="0 0 31 33" fill="none" xmlns="http://www.w3.org/2000/svg">
<path d="M30.1575 15.4933L16.3725 29.2783C14.6837 30.9671 12.3933 31.9158 10.005 31.9158C7.61673 31.9158 5.32627 30.9671 3.6375 29.2783C1.94874 27.5896 1 25.2991 1 22.9108C1 20.5226 1.94874 18.2321 3.6375 16.5433L17.4225 2.75834C18.5483 1.63249 20.0753 1 21.6675 1C23.2597 1 24.7867 1.63249 25.9125 2.75834C27.0384 3.88418 27.6708 5.41115 27.6708 7.00334C27.6708 8.59552 27.0384 10.1225 25.9125 11.2483L12.1125 25.0333C11.5496 25.5963 10.7861 25.9125 9.99001 25.9125C9.19391 25.9125 8.43043 25.5963 7.86751 25.0333C7.30458 24.4704 6.98834 23.7069 6.98834 22.9108C6.98834 22.1147 7.30458 21.3513 7.86751 20.7883L20.6025 8.06834" stroke="black" stroke-width="1.5" stroke-linecap="round" stroke-linejoin="round"/>
</svg>
