<svg width="34" height="34" viewBox="0 0 34 34" fill="none" xmlns="http://www.w3.org/2000/svg">
<path d="M32.3322 10V1H23.3322" stroke="black" stroke-width="1.5" stroke-linecap="round" stroke-linejoin="round"/>
<path d="M21.8322 11.5L32.3322 1" stroke="black" stroke-width="1.5" stroke-linecap="round" stroke-linejoin="round"/>
<path d="M30.8322 24.88V29.38C30.8339 29.7977 30.7483 30.2112 30.5809 30.594C30.4136 30.9768 30.1681 31.3204 29.8603 31.6028C29.5525 31.8852 29.189 32.1002 28.7933 32.2341C28.3976 32.3679 27.9782 32.4176 27.5622 32.38C22.9464 31.8785 18.5127 30.3012 14.6172 27.775C10.9929 25.472 7.92018 22.3993 5.61718 18.775C3.08214 14.8618 1.50454 10.4065 1.01218 5.76999C0.974691 5.35519 1.02399 4.93713 1.15693 4.54243C1.28986 4.14773 1.50353 3.78503 1.78432 3.47742C2.06512 3.16982 2.40688 2.92406 2.78786 2.75578C3.16884 2.58749 3.58069 2.50039 3.99718 2.49999H8.49718C9.22513 2.49283 9.93086 2.75061 10.4828 3.22529C11.0348 3.69997 11.3953 4.35916 11.4972 5.07999C11.6871 6.52009 12.0394 7.93408 12.5472 9.29499C12.749 9.83188 12.7927 10.4154 12.673 10.9763C12.5534 11.5373 12.2755 12.0522 11.8722 12.46L9.96718 14.365C12.1025 18.1203 15.2119 21.2297 18.9672 23.365L20.8722 21.46C21.28 21.0567 21.7949 20.7788 22.3559 20.6591C22.9168 20.5395 23.5003 20.5832 24.0372 20.785C25.3981 21.2928 26.8121 21.6451 28.2522 21.835C28.9808 21.9378 29.6463 22.3048 30.122 22.8662C30.5977 23.4277 30.8504 24.1444 30.8322 24.88Z" stroke="black" stroke-width="1.5" stroke-linecap="round" stroke-linejoin="round"/>
</svg>
