<svg width="35" height="35" viewBox="0 0 35 35" fill="none" xmlns="http://www.w3.org/2000/svg">
<path d="M7.28502 18.715C4.75881 14.8195 3.18156 10.3857 2.68002 5.76999C2.64254 5.35519 2.69183 4.93713 2.82477 4.54243C2.95771 4.14773 3.17138 3.78503 3.45217 3.47742C3.73296 3.16982 4.07473 2.92406 4.45571 2.75578C4.83669 2.58749 5.24853 2.50039 5.66502 2.49999H10.165C10.893 2.49283 11.5987 2.75061 12.1507 3.22529C12.7026 3.69997 13.0631 4.35916 13.165 5.07999C13.355 6.52009 13.7072 7.93408 14.215 9.29499C14.4168 9.83188 14.4605 10.4154 14.3409 10.9763C14.2212 11.5373 13.9433 12.0522 13.54 12.46L11.635 14.365M15.52 19.465C17.0423 20.9886 18.7628 22.3004 20.635 23.365L22.54 21.46C22.9479 21.0567 23.4628 20.7788 24.0237 20.6591C24.5846 20.5395 25.1681 20.5832 25.705 20.785C27.0659 21.2928 28.4799 21.6451 29.92 21.835C30.6409 21.9369 31.3 22.2974 31.7747 22.8494C32.2494 23.4013 32.5072 24.107 32.5 24.835V29.335C32.5017 29.7527 32.4161 30.1662 32.2488 30.549C32.0814 30.9318 31.836 31.2754 31.5281 31.5578C31.2203 31.8402 30.8569 32.0552 30.4611 32.1891C30.0654 32.3229 29.6461 32.3726 29.23 32.335C24.6143 31.8335 20.1805 30.2562 16.285 27.73C14.4779 26.5826 12.8028 25.2395 11.29 23.725L15.52 19.465Z" stroke="black" stroke-width="1.5" stroke-linecap="round" stroke-linejoin="round"/>
<path d="M34 1L1 34" stroke="black" stroke-width="1.5" stroke-linecap="round" stroke-linejoin="round"/>
</svg>
