<svg width="32" height="32" viewBox="0 0 32 32" fill="none" xmlns="http://www.w3.org/2000/svg">
<path d="M30.8322 23.3801V27.8801C30.8339 28.2979 30.7483 28.7114 30.5809 29.0942C30.4136 29.4769 30.1681 29.8205 29.8603 30.1029C29.5525 30.3854 29.189 30.6004 28.7933 30.7342C28.3976 30.868 27.9782 30.9177 27.5622 30.8801C22.9464 30.3786 18.5127 28.8014 14.6172 26.2751C10.9929 23.9721 7.92018 20.8994 5.61718 17.2751C3.08214 13.362 1.50454 8.90664 1.01218 4.27015C0.974691 3.85535 1.02399 3.43729 1.15693 3.04258C1.28986 2.64788 1.50353 2.28518 1.78432 1.97758C2.06512 1.66997 2.40688 1.42421 2.78786 1.25593C3.16884 1.08765 3.58069 1.00054 3.99718 1.00015H8.49718C9.22513 0.992981 9.93086 1.25076 10.4828 1.72544C11.0348 2.20013 11.3953 2.85932 11.4972 3.58015C11.6871 5.02025 12.0394 6.43424 12.5472 7.79515C12.749 8.33203 12.7927 8.91552 12.673 9.47647C12.5534 10.0374 12.2755 10.5523 11.8722 10.9601L9.96718 12.8651C12.1025 16.6205 15.2119 19.7298 18.9672 21.8651L20.8722 19.9601C21.28 19.5569 21.7949 19.2789 22.3559 19.1593C22.9168 19.0397 23.5003 19.0833 24.0372 19.2851C25.3981 19.793 26.8121 20.1452 28.2522 20.3351C28.9808 20.4379 29.6463 20.805 30.122 21.3664C30.5977 21.9278 30.8504 22.6445 30.8322 23.3801Z" stroke="black" stroke-width="1.5" stroke-linecap="round" stroke-linejoin="round"/>
</svg>
