<svg width="34" height="34" viewBox="0 0 34 34" fill="none" xmlns="http://www.w3.org/2000/svg">
<path d="M20.4072 7C21.8723 7.28585 23.2188 8.00239 24.2743 9.0579C25.3298 10.1134 26.0463 11.4599 26.3322 12.925M20.4072 1C23.4511 1.33815 26.2896 2.70126 28.4565 4.86551C30.6235 7.02976 31.9902 9.86651 32.3322 12.91M30.8322 24.88V29.38C30.8339 29.7978 30.7483 30.2113 30.5809 30.594C30.4136 30.9768 30.1681 31.3204 29.8603 31.6028C29.5525 31.8852 29.189 32.1002 28.7933 32.2341C28.3976 32.3679 27.9782 32.4176 27.5622 32.38C22.9464 31.8785 18.5127 30.3012 14.6172 27.775C10.9929 25.472 7.92018 22.3993 5.61718 18.775C3.08214 14.8618 1.50454 10.4065 1.01218 5.77C0.974691 5.3552 1.02399 4.93714 1.15693 4.54244C1.28986 4.14773 1.50353 3.78503 1.78432 3.47743C2.06512 3.16983 2.40688 2.92406 2.78786 2.75578C3.16884 2.5875 3.58069 2.50039 3.99718 2.5H8.49718C9.22514 2.49284 9.93086 2.75062 10.4828 3.2253C11.0348 3.69998 11.3953 4.35917 11.4972 5.08C11.6871 6.5201 12.0394 7.93409 12.5472 9.295C12.749 9.83189 12.7927 10.4154 12.673 10.9763C12.5534 11.5373 12.2755 12.0522 11.8722 12.46L9.96718 14.365C12.1025 18.1203 15.2119 21.2297 18.9672 23.365L20.8722 21.46C21.28 21.0567 21.7949 20.7788 22.3559 20.6591C22.9168 20.5395 23.5003 20.5832 24.0372 20.785C25.3981 21.2928 26.8121 21.6451 28.2522 21.835C28.9808 21.9378 29.6463 22.3048 30.122 22.8662C30.5977 23.4277 30.8504 24.1444 30.8322 24.88Z" stroke="black" stroke-width="1.5" stroke-linecap="round" stroke-linejoin="round"/>
</svg>
