<svg width="32" height="32" viewBox="0 0 32 32" fill="none" xmlns="http://www.w3.org/2000/svg">
<path d="M29.8156 21.835C28.8613 24.0917 27.3688 26.0803 25.4684 27.6269C23.5681 29.1736 21.3178 30.2311 18.9143 30.7072C16.5108 31.1832 14.0272 31.0632 11.6808 30.3577C9.33441 29.6522 7.19654 28.3826 5.45413 26.66C3.71173 24.9374 2.41783 22.8141 1.68556 20.4759C0.953289 18.1377 0.804947 15.6557 1.2535 13.2469C1.70206 10.8382 2.73385 8.57594 4.25867 6.65804C5.7835 4.74014 7.75493 3.22497 10.0006 2.245" stroke="black" stroke-width="1.5" stroke-linecap="round" stroke-linejoin="round"/>
<path d="M31.0006 16C31.0006 14.0302 30.6126 12.0796 29.8588 10.2597C29.105 8.43986 28.0001 6.78628 26.6072 5.3934C25.2143 4.00052 23.5607 2.89563 21.7409 2.14181C19.921 1.38799 17.9704 1 16.0006 1V16H31.0006Z" stroke="black" stroke-width="1.5" stroke-linecap="round" stroke-linejoin="round"/>
</svg>
