<svg width="32" height="29" viewBox="0 0 32 29" fill="none" xmlns="http://www.w3.org/2000/svg">
<path d="M4 1H28C28.7956 1 29.5587 1.31607 30.1213 1.87868C30.6839 2.44129 31 3.20435 31 4V13C31 16.9782 29.4196 20.7936 26.6066 23.6066C23.7936 26.4196 19.9782 28 16 28C14.0302 28 12.0796 27.612 10.2597 26.8582C8.43986 26.1044 6.78628 24.9995 5.3934 23.6066C2.58035 20.7936 1 16.9782 1 13V4C1 3.20435 1.31607 2.44129 1.87868 1.87868C2.44129 1.31607 3.20435 1 4 1V1Z" stroke="black" stroke-width="1.5" stroke-linecap="round" stroke-linejoin="round"/>
<path d="M10 11.5L16 17.5L22 11.5" stroke="black" stroke-width="1.5" stroke-linecap="round" stroke-linejoin="round"/>
</svg>
