<svg width="32" height="32" viewBox="0 0 32 32" fill="none" xmlns="http://www.w3.org/2000/svg">
<path d="M7 11.5V1H25V11.5" stroke="black" stroke-width="1.5" stroke-linecap="round" stroke-linejoin="round"/>
<path d="M7 25H4C3.20435 25 2.44129 24.6839 1.87868 24.1213C1.31607 23.5587 1 22.7956 1 22V14.5C1 13.7044 1.31607 12.9413 1.87868 12.3787C2.44129 11.8161 3.20435 11.5 4 11.5H28C28.7956 11.5 29.5587 11.8161 30.1213 12.3787C30.6839 12.9413 31 13.7044 31 14.5V22C31 22.7956 30.6839 23.5587 30.1213 24.1213C29.5587 24.6839 28.7956 25 28 25H25" stroke="black" stroke-width="1.5" stroke-linecap="round" stroke-linejoin="round"/>
<path d="M25 19H7V31H25V19Z" stroke="black" stroke-width="1.5" stroke-linecap="round" stroke-linejoin="round"/>
</svg>
