<svg width="32" height="23" viewBox="0 0 32 23" fill="none" xmlns="http://www.w3.org/2000/svg">
<path d="M15.9968 14.605C17.6537 14.605 18.9968 13.2618 18.9968 11.605C18.9968 9.94814 17.6537 8.605 15.9968 8.605C14.34 8.605 12.9968 9.94814 12.9968 11.605C12.9968 13.2618 14.34 14.605 15.9968 14.605Z" stroke="black" stroke-width="1.5" stroke-linecap="round" stroke-linejoin="round"/>
<path d="M22.3568 5.245C23.1936 6.08086 23.8574 7.07345 24.3103 8.16604C24.7633 9.25862 24.9964 10.4298 24.9964 11.6125C24.9964 12.7952 24.7633 13.9664 24.3103 15.059C23.8574 16.1515 23.1936 17.1441 22.3568 17.98M9.6368 17.965C8.80001 17.1291 8.13618 16.1365 7.68326 15.044C7.23034 13.9514 6.99722 12.7802 6.99722 11.5975C6.99722 10.4148 7.23034 9.24362 7.68326 8.15104C8.13618 7.05845 8.80001 6.06586 9.6368 5.23M26.6018 1C29.4139 3.81292 30.9936 7.62754 30.9936 11.605C30.9936 15.5825 29.4139 19.3971 26.6018 22.21M5.3918 22.21C2.57973 19.3971 1 15.5825 1 11.605C1 7.62754 2.57973 3.81292 5.3918 1" stroke="black" stroke-width="1.5" stroke-linecap="round" stroke-linejoin="round"/>
</svg>
