<svg width="35" height="29" viewBox="0 0 35 29" fill="none" xmlns="http://www.w3.org/2000/svg">
<path d="M1 2.49644V11.4964H10" stroke="black" stroke-width="1.5" stroke-linecap="round" stroke-linejoin="round"/>
<path d="M34 26.4965V17.4965H25" stroke="black" stroke-width="1.5" stroke-linecap="round" stroke-linejoin="round"/>
<path d="M30.235 9.99645C29.4742 7.84663 28.1813 5.92456 26.4768 4.40958C24.7723 2.8946 22.7118 1.8361 20.4876 1.33284C18.2633 0.829578 15.9479 0.897963 13.7572 1.53161C11.5666 2.16526 9.57212 3.34352 7.96 4.95645L1 11.4965M34 17.4965L27.04 24.0365C25.4279 25.6494 23.4334 26.8276 21.2428 27.4613C19.0521 28.0949 16.7367 28.1633 14.5124 27.6601C12.2882 27.1568 10.2277 26.0983 8.5232 24.5833C6.8187 23.0683 5.52575 21.1463 4.765 18.9965" stroke="black" stroke-width="1.5" stroke-linecap="round" stroke-linejoin="round"/>
</svg>
