<svg width="35" height="29" viewBox="0 0 35 29" fill="none" xmlns="http://www.w3.org/2000/svg">
<path d="M34 2.49645V11.4965H25" stroke="black" stroke-width="1.5" stroke-linecap="round" stroke-linejoin="round"/>
<path d="M1 26.4965V17.4965H10" stroke="black" stroke-width="1.5" stroke-linecap="round" stroke-linejoin="round"/>
<path d="M4.765 9.99645C5.52575 7.84663 6.8187 5.92456 8.5232 4.40958C10.2277 2.8946 12.2882 1.8361 14.5124 1.33284C16.7367 0.829578 19.0521 0.897963 21.2428 1.53161C23.4334 2.16526 25.4279 3.34352 27.04 4.95645L34 11.4965M1 17.4965L7.96 24.0365C9.57212 25.6494 11.5666 26.8276 13.7572 27.4613C15.9479 28.0949 18.2633 28.1633 20.4876 27.6601C22.7118 27.1568 24.7723 26.0983 26.4768 24.5833C28.1813 23.0683 29.4742 21.1463 30.235 18.9965" stroke="black" stroke-width="1.5" stroke-linecap="round" stroke-linejoin="round"/>
</svg>
