<svg width="28" height="29" viewBox="0 0 28 29" fill="none" xmlns="http://www.w3.org/2000/svg">
<path d="M5.5 10C7.98528 10 10 7.98528 10 5.5C10 3.01472 7.98528 1 5.5 1C3.01472 1 1 3.01472 1 5.5C1 7.98528 3.01472 10 5.5 10Z" stroke="black" stroke-width="1.5" stroke-linecap="round" stroke-linejoin="round"/>
<path d="M5.5 28C7.98528 28 10 25.9853 10 23.5C10 21.0147 7.98528 19 5.5 19C3.01472 19 1 21.0147 1 23.5C1 25.9853 3.01472 28 5.5 28Z" stroke="black" stroke-width="1.5" stroke-linecap="round" stroke-linejoin="round"/>
<path d="M26.5 2.5L8.67999 20.32" stroke="black" stroke-width="1.5" stroke-linecap="round" stroke-linejoin="round"/>
<path d="M18.205 18.22L26.5 26.5" stroke="black" stroke-width="1.5" stroke-linecap="round" stroke-linejoin="round"/>
<path d="M8.67999 8.68L14.5 14.5" stroke="black" stroke-width="1.5" stroke-linecap="round" stroke-linejoin="round"/>
</svg>
