<svg width="32" height="32" viewBox="0 0 32 32" fill="none" xmlns="http://www.w3.org/2000/svg">
<path d="M28 1H4C2.34315 1 1 2.34315 1 4V10C1 11.6569 2.34315 13 4 13H28C29.6569 13 31 11.6569 31 10V4C31 2.34315 29.6569 1 28 1Z" stroke="black" stroke-width="1.5" stroke-linecap="round" stroke-linejoin="round"/>
<path d="M28 19H4C2.34315 19 1 20.3431 1 22V28C1 29.6569 2.34315 31 4 31H28C29.6569 31 31 29.6569 31 28V22C31 20.3431 29.6569 19 28 19Z" stroke="black" stroke-width="1.5" stroke-linecap="round" stroke-linejoin="round"/>
<path d="M7 7H7.015" stroke="black" stroke-width="1.5" stroke-linecap="round" stroke-linejoin="round"/>
<path d="M7 25H7.015" stroke="black" stroke-width="1.5" stroke-linecap="round" stroke-linejoin="round"/>
</svg>
