<svg width="29" height="32" viewBox="0 0 29 32" fill="none" xmlns="http://www.w3.org/2000/svg">
<path d="M23.5 10C25.9853 10 28 7.98528 28 5.5C28 3.01472 25.9853 1 23.5 1C21.0147 1 19 3.01472 19 5.5C19 7.98528 21.0147 10 23.5 10Z" stroke="black" stroke-width="1.5" stroke-linecap="round" stroke-linejoin="round"/>
<path d="M5.5 20.5C7.98528 20.5 10 18.4853 10 16C10 13.5147 7.98528 11.5 5.5 11.5C3.01472 11.5 1 13.5147 1 16C1 18.4853 3.01472 20.5 5.5 20.5Z" stroke="black" stroke-width="1.5" stroke-linecap="round" stroke-linejoin="round"/>
<path d="M23.5 31C25.9853 31 28 28.9853 28 26.5C28 24.0147 25.9853 22 23.5 22C21.0147 22 19 24.0147 19 26.5C19 28.9853 21.0147 31 23.5 31Z" stroke="black" stroke-width="1.5" stroke-linecap="round" stroke-linejoin="round"/>
<path d="M9.38499 18.265L19.63 24.235" stroke="black" stroke-width="1.5" stroke-linecap="round" stroke-linejoin="round"/>
<path d="M19.615 7.765L9.38499 13.735" stroke="black" stroke-width="1.5" stroke-linecap="round" stroke-linejoin="round"/>
</svg>
