<svg width="35" height="34" viewBox="0 0 35 34" fill="none" xmlns="http://www.w3.org/2000/svg">
<path d="M13 32.5C13.8284 32.5 14.5 31.8284 14.5 31C14.5 30.1716 13.8284 29.5 13 29.5C12.1716 29.5 11.5 30.1716 11.5 31C11.5 31.8284 12.1716 32.5 13 32.5Z" stroke="black" stroke-width="1.5" stroke-linecap="round" stroke-linejoin="round"/>
<path d="M29.5 32.5C30.3284 32.5 31 31.8284 31 31C31 30.1716 30.3284 29.5 29.5 29.5C28.6716 29.5 28 30.1716 28 31C28 31.8284 28.6716 32.5 29.5 32.5Z" stroke="black" stroke-width="1.5" stroke-linecap="round" stroke-linejoin="round"/>
<path d="M1 1H7L11.02 21.085C11.1572 21.7756 11.5329 22.3959 12.0813 22.8374C12.6298 23.279 13.316 23.5135 14.02 23.5H28.6C29.304 23.5135 29.9902 23.279 30.5387 22.8374C31.0871 22.3959 31.4628 21.7756 31.6 21.085L34 8.5H8.5" stroke="black" stroke-width="1.5" stroke-linecap="round" stroke-linejoin="round"/>
</svg>
