<svg width="29" height="32" viewBox="0 0 29 32" fill="none" xmlns="http://www.w3.org/2000/svg">
<path d="M5.5 1L1 7V28C1 28.7956 1.31607 29.5587 1.87868 30.1213C2.44129 30.6839 3.20435 31 4 31H25C25.7956 31 26.5587 30.6839 27.1213 30.1213C27.6839 29.5587 28 28.7956 28 28V7L23.5 1H5.5Z" stroke="black" stroke-width="1.5" stroke-linecap="round" stroke-linejoin="round"/>
<path d="M1 7H28" stroke="black" stroke-width="1.5" stroke-linecap="round" stroke-linejoin="round"/>
<path d="M20.5 13C20.5 14.5913 19.8679 16.1174 18.7426 17.2426C17.6174 18.3679 16.0913 19 14.5 19C12.9087 19 11.3826 18.3679 10.2574 17.2426C9.13214 16.1174 8.5 14.5913 8.5 13" stroke="black" stroke-width="1.5" stroke-linecap="round" stroke-linejoin="round"/>
</svg>
