<svg width="26" height="32" viewBox="0 0 26 32" fill="none" xmlns="http://www.w3.org/2000/svg">
<path d="M22 1H4C2.34315 1 1 2.34315 1 4V28C1 29.6569 2.34315 31 4 31H22C23.6569 31 25 29.6569 25 28V4C25 2.34315 23.6569 1 22 1Z" stroke="black" stroke-width="1.5" stroke-linecap="round" stroke-linejoin="round"/>
<path d="M13 25C16.3137 25 19 22.3137 19 19C19 15.6863 16.3137 13 13 13C9.68629 13 7 15.6863 7 19C7 22.3137 9.68629 25 13 25Z" stroke="black" stroke-width="1.5" stroke-linecap="round" stroke-linejoin="round"/>
<path d="M13 7H13.015" stroke="black" stroke-width="1.5" stroke-linecap="round" stroke-linejoin="round"/>
</svg>
