<svg width="16" height="35" viewBox="0 0 16 35" fill="none" xmlns="http://www.w3.org/2000/svg">
<path d="M11.5 21.64V4.75C11.5 3.75544 11.1049 2.80161 10.4017 2.09835C9.69839 1.39509 8.74456 1 7.75 1C6.75544 1 5.80161 1.39509 5.09835 2.09835C4.39509 2.80161 4 3.75544 4 4.75V21.64C2.79592 22.4445 1.88248 23.6149 1.39461 24.9784C0.906732 26.3419 0.87028 27.8261 1.29064 29.2118C1.71099 30.5976 2.56587 31.8115 3.72901 32.6741C4.89214 33.5368 6.30188 34.0025 7.75 34.0025C9.19812 34.0025 10.6079 33.5368 11.771 32.6741C12.9341 31.8115 13.789 30.5976 14.2094 29.2118C14.6297 27.8261 14.5933 26.3419 14.1054 24.9784C13.6175 23.6149 12.7041 22.4445 11.5 21.64Z" stroke="black" stroke-width="1.5" stroke-linecap="round" stroke-linejoin="round"/>
</svg>
