<svg width="32" height="32" viewBox="0 0 32 32" fill="none" xmlns="http://www.w3.org/2000/svg">
<path d="M23.024 1.00054H27.029C27.8779 0.985529 28.7028 1.28274 29.3471 1.83577C29.9914 2.3888 30.4102 3.15913 30.524 4.00054V14.5005C30.4102 15.342 29.9914 16.1123 29.3471 16.6653C28.7028 17.2183 27.8779 17.5156 27.029 17.5005H23.024M12.524 20.5005V26.5005C12.524 27.694 12.9981 28.8386 13.842 29.6825C14.6859 30.5264 15.8305 31.0005 17.024 31.0005L23.024 17.5005V1.00054H6.10397C5.38048 0.992363 4.67841 1.24593 4.12711 1.71453C3.57582 2.18313 3.21246 2.83518 3.10397 3.55054L1.03397 17.0505C0.96871 17.4805 0.99771 17.9195 1.11896 18.3372C1.24021 18.7548 1.45082 19.1411 1.73618 19.4693C2.02155 19.7974 2.37485 20.0596 2.77161 20.2377C3.16838 20.4158 3.59911 20.5055 4.03397 20.5005H12.524Z" stroke="black" stroke-width="1.5" stroke-linecap="round" stroke-linejoin="round"/>
</svg>
