<svg width="32" height="32" viewBox="0 0 32 32" fill="none" xmlns="http://www.w3.org/2000/svg">
<path d="M8.5 31H4C3.20435 31 2.44129 30.6839 1.87868 30.1213C1.31607 29.5587 1 28.7956 1 28V17.5C1 16.7044 1.31607 15.9413 1.87868 15.3787C2.44129 14.8161 3.20435 14.5 4 14.5H8.5M19 11.5V5.5C19 4.30653 18.5259 3.16193 17.682 2.31802C16.8381 1.47411 15.6935 1 14.5 1L8.5 14.5V31H25.42C26.1435 31.0082 26.8456 30.7546 27.3969 30.286C27.9482 29.8174 28.3115 29.1654 28.42 28.45L30.49 14.95C30.5553 14.52 30.5263 14.081 30.405 13.6634C30.2838 13.2457 30.0732 12.8594 29.7878 12.5313C29.5024 12.2031 29.1491 11.9409 28.7524 11.7628C28.3556 11.5848 27.9249 11.4951 27.49 11.5H19Z" stroke="black" stroke-width="1.5" stroke-linecap="round" stroke-linejoin="round"/>
</svg>
