<svg width="31" height="31" viewBox="0 0 31 31" fill="none" xmlns="http://www.w3.org/2000/svg">
<path d="M18.552 7.45546C18.2771 7.73586 18.1232 8.11283 18.1232 8.50546C18.1232 8.89809 18.2771 9.27507 18.552 9.55546L20.952 11.9555C21.2324 12.2303 21.6094 12.3842 22.002 12.3842C22.3946 12.3842 22.7716 12.2303 23.052 11.9555L28.707 6.30046C29.4612 7.96725 29.6896 9.82431 29.3617 11.6242C29.0337 13.424 28.165 15.0812 26.8714 16.3749C25.5777 17.6685 23.9206 18.5372 22.1207 18.8651C20.3208 19.1931 18.4638 18.9647 16.797 18.2105L6.43198 28.5755C5.83524 29.1722 5.02589 29.5074 4.18198 29.5074C3.33807 29.5074 2.52872 29.1722 1.93198 28.5755C1.33524 27.9787 1 27.1694 1 26.3255C1 25.4815 1.33524 24.6722 1.93198 24.0755L12.297 13.7105C11.5427 12.0437 11.3144 10.1866 11.6423 8.38674C11.9702 6.58688 12.8389 4.9297 14.1326 3.63604C15.4262 2.34239 17.0834 1.47372 18.8833 1.14578C20.6831 0.817836 22.5402 1.04621 24.207 1.80046L18.567 7.44046L18.552 7.45546Z" stroke="black" stroke-width="1.5" stroke-linecap="round" stroke-linejoin="round"/>
</svg>
