<svg width="34" height="29" viewBox="0 0 34 29" fill="none" xmlns="http://www.w3.org/2000/svg">
<path d="M14.107 2.44412L1.40203 23.6541C1.14008 24.1078 1.00148 24.6221 1.00001 25.1459C0.998545 25.6697 1.13426 26.1848 1.39367 26.6399C1.65307 27.095 2.02712 27.4742 2.47859 27.7399C2.93006 28.0055 3.44323 28.1484 3.96703 28.1541H29.377C29.9008 28.1484 30.414 28.0055 30.8655 27.7399C31.3169 27.4742 31.691 27.095 31.9504 26.6399C32.2098 26.1848 32.3455 25.6697 32.344 25.1459C32.3426 24.6221 32.204 24.1078 31.942 23.6541L19.237 2.44412C18.9696 2.00328 18.5931 1.6388 18.1438 1.38584C17.6945 1.13289 17.1876 1 16.672 1C16.1564 1 15.6495 1.13289 15.2002 1.38584C14.7509 1.6388 14.3744 2.00328 14.107 2.44412V2.44412Z" stroke="black" stroke-width="1.5" stroke-linecap="round" stroke-linejoin="round"/>
</svg>
