<svg width="35" height="29" viewBox="0 0 35 29" fill="none" xmlns="http://www.w3.org/2000/svg">
<path d="M23.5 1H1V20.5H23.5V1Z" stroke="black" stroke-width="1.5" stroke-linecap="round" stroke-linejoin="round"/>
<path d="M23.5 8.5H29.5L34 13V20.5H23.5V8.5Z" stroke="black" stroke-width="1.5" stroke-linecap="round" stroke-linejoin="round"/>
<path d="M7.75 28C9.82107 28 11.5 26.3211 11.5 24.25C11.5 22.1789 9.82107 20.5 7.75 20.5C5.67893 20.5 4 22.1789 4 24.25C4 26.3211 5.67893 28 7.75 28Z" stroke="black" stroke-width="1.5" stroke-linecap="round" stroke-linejoin="round"/>
<path d="M27.25 28C29.3211 28 31 26.3211 31 24.25C31 22.1789 29.3211 20.5 27.25 20.5C25.1789 20.5 23.5 22.1789 23.5 24.25C23.5 26.3211 25.1789 28 27.25 28Z" stroke="black" stroke-width="1.5" stroke-linecap="round" stroke-linejoin="round"/>
</svg>
