<svg width="35" height="29" viewBox="0 0 35 29" fill="none" xmlns="http://www.w3.org/2000/svg">
<path d="M34 1.01508C32.5636 2.0283 30.9732 2.80325 29.29 3.31008C28.3866 2.27135 27.186 1.53512 25.8506 1.20097C24.5151 0.866824 23.1092 0.950877 21.8231 1.44176C20.537 1.93265 19.4327 2.80669 18.6595 3.94566C17.8863 5.08463 17.4815 6.43359 17.5 7.81008V9.31008C14.864 9.37844 12.2519 8.7938 9.89651 7.60825C7.54112 6.4227 5.51548 4.67304 4 2.51508C4 2.51508 -2 16.0151 11.5 22.0151C8.41079 24.112 4.73074 25.1635 1 25.0151C14.5 32.5151 31 25.0151 31 7.76508C30.9986 7.34726 30.9584 6.93048 30.88 6.52008C32.4109 5.01032 33.4912 3.10415 34 1.01508V1.01508Z" stroke="black" stroke-width="1.5" stroke-linecap="round" stroke-linejoin="round"/>
</svg>
