<svg width="35" height="29" viewBox="0 0 35 29" fill="none" xmlns="http://www.w3.org/2000/svg">
<path d="M23.508 20.4963L17.508 14.4963L11.508 20.4963" stroke="black" stroke-width="1.5" stroke-linecap="round" stroke-linejoin="round"/>
<path d="M17.508 14.4963V27.9963" stroke="black" stroke-width="1.5" stroke-linecap="round" stroke-linejoin="round"/>
<path d="M30.093 24.0813C31.556 23.2837 32.7117 22.0216 33.3778 20.4943C34.0439 18.9669 34.1823 17.2612 33.7713 15.6463C33.3603 14.0315 32.4232 12.5996 31.108 11.5765C29.7928 10.5534 28.1743 9.99741 26.508 9.99631H24.618C24.164 8.24018 23.3177 6.60982 22.1429 5.2278C20.9681 3.84579 19.4953 2.74809 17.8351 2.01722C16.175 1.28636 14.3708 0.941352 12.5582 1.00814C10.7455 1.07492 8.9716 1.55176 7.36976 2.40281C5.76793 3.25386 4.37986 4.45697 3.30993 5.92169C2.24 7.3864 1.51603 9.07462 1.19247 10.8594C0.868902 12.6442 0.954155 14.4791 1.44182 16.2262C1.92948 17.9733 2.80686 19.5871 4.008 20.9463" stroke="black" stroke-width="1.5" stroke-linecap="round" stroke-linejoin="round"/>
<path d="M23.508 20.4963L17.508 14.4963L11.508 20.4963" stroke="black" stroke-width="1.5" stroke-linecap="round" stroke-linejoin="round"/>
</svg>
