<svg width="35" height="29" viewBox="0 0 35 29" fill="none" xmlns="http://www.w3.org/2000/svg">
<path d="M25 28V25C25 23.4087 24.3679 21.8826 23.2426 20.7574C22.1174 19.6321 20.5913 19 19 19H7C5.4087 19 3.88258 19.6321 2.75736 20.7574C1.63214 21.8826 1 23.4087 1 25V28" stroke="black" stroke-width="1.5" stroke-linecap="round" stroke-linejoin="round"/>
<path d="M13 13C16.3137 13 19 10.3137 19 7C19 3.68629 16.3137 1 13 1C9.68629 1 7 3.68629 7 7C7 10.3137 9.68629 13 13 13Z" stroke="black" stroke-width="1.5" stroke-linecap="round" stroke-linejoin="round"/>
<path d="M34 28V25C33.999 23.6706 33.5565 22.3792 32.742 21.3285C31.9276 20.2778 30.7872 19.5274 29.5 19.195" stroke="black" stroke-width="1.5" stroke-linecap="round" stroke-linejoin="round"/>
<path d="M23.5 1.19501C24.7906 1.52546 25.9346 2.27606 26.7515 3.32847C27.5684 4.38089 28.0118 5.67525 28.0118 7.00751C28.0118 8.33976 27.5684 9.63413 26.7515 10.6865C25.9346 11.739 24.7906 12.4896 23.5 12.82" stroke="black" stroke-width="1.5" stroke-linecap="round" stroke-linejoin="round"/>
</svg>
