<svg width="35" height="29" viewBox="0 0 35 29" fill="none" xmlns="http://www.w3.org/2000/svg">
<path d="M23.5 28V25C23.5 23.4087 22.8679 21.8826 21.7426 20.7574C20.6174 19.6321 19.0913 19 17.5 19H7C5.4087 19 3.88258 19.6321 2.75736 20.7574C1.63214 21.8826 1 23.4087 1 25V28" stroke="black" stroke-width="1.5" stroke-linecap="round" stroke-linejoin="round"/>
<path d="M12.25 13C15.5637 13 18.25 10.3137 18.25 7C18.25 3.68629 15.5637 1 12.25 1C8.93629 1 6.25 3.68629 6.25 7C6.25 10.3137 8.93629 13 12.25 13Z" stroke="black" stroke-width="1.5" stroke-linecap="round" stroke-linejoin="round"/>
<path d="M26.5 8.5L34 16" stroke="black" stroke-width="1.5" stroke-linecap="round" stroke-linejoin="round"/>
<path d="M34 8.5L26.5 16" stroke="black" stroke-width="1.5" stroke-linecap="round" stroke-linejoin="round"/>
</svg>
