<svg width="35" height="35" viewBox="0 0 35 35" fill="none" xmlns="http://www.w3.org/2000/svg">
<path d="M15.49 7H20.5C21.2956 7 22.0587 7.31607 22.6213 7.87868C23.1839 8.44129 23.5 9.20435 23.5 10V15.01L25 16.51L34 10V25M23.5 23.5V25C23.5 25.7956 23.1839 26.5587 22.6213 27.1213C22.0587 27.6839 21.2956 28 20.5 28H4C3.20435 28 2.44129 27.6839 1.87868 27.1213C1.31607 26.5587 1 25.7956 1 25V10C1 9.20435 1.31607 8.44129 1.87868 7.87868C2.44129 7.31607 3.20435 7 4 7H7L23.5 23.5Z" stroke="black" stroke-width="1.5" stroke-linecap="round" stroke-linejoin="round"/>
<path d="M1 1L34 34" stroke="black" stroke-width="1.5" stroke-linecap="round" stroke-linejoin="round"/>
</svg>
