<svg width="23" height="35" viewBox="0 0 23 35" fill="none" xmlns="http://www.w3.org/2000/svg">
<path d="M11.5 28C17.299 28 22 23.299 22 17.5C22 11.701 17.299 7.00003 11.5 7.00003C5.70101 7.00003 1 11.701 1 17.5C1 23.299 5.70101 28 11.5 28Z" stroke="black" stroke-width="1.5" stroke-linecap="round" stroke-linejoin="round"/>
<path d="M11.5 13V17.5L13.75 19.75" stroke="black" stroke-width="1.5" stroke-linecap="round" stroke-linejoin="round"/>
<path d="M18.265 25.525L17.74 31.27C17.6724 32.018 17.3267 32.7134 16.7713 33.2189C16.2158 33.7243 15.491 34.0031 14.74 34H8.245C7.49399 34.0031 6.76916 33.7243 6.21371 33.2189C5.65825 32.7134 5.31259 32.018 5.245 31.27L4.72 25.525M4.735 9.47503L5.26 3.73002C5.32736 2.98464 5.6709 2.29135 6.22317 1.78625C6.77545 1.28116 7.49658 1.00073 8.245 1.00002H14.77C15.521 0.996977 16.2458 1.27572 16.8013 1.78118C17.3568 2.28665 17.7024 2.98206 17.77 3.73002L18.295 9.47503" stroke="black" stroke-width="1.5" stroke-linecap="round" stroke-linejoin="round"/>
</svg>
