<svg width="35" height="35" viewBox="0 0 35 35" fill="none" xmlns="http://www.w3.org/2000/svg">
<path d="M1 1L34 34" stroke="black" stroke-width="1.5" stroke-linecap="round" stroke-linejoin="round"/>
<path d="M24.58 16.09C25.8086 16.6896 26.9575 17.4404 28 18.325" stroke="black" stroke-width="1.5" stroke-linecap="round" stroke-linejoin="round"/>
<path d="M7 18.325C9.22312 16.4662 11.8988 15.2293 14.755 14.74" stroke="black" stroke-width="1.5" stroke-linecap="round" stroke-linejoin="round"/>
<path d="M15.565 7.075C18.7786 6.81606 22.0115 7.20725 25.0706 8.22524C28.1297 9.24322 30.9523 10.8671 33.37 13" stroke="black" stroke-width="1.5" stroke-linecap="round" stroke-linejoin="round"/>
<path d="M1.63 13C3.71075 11.1608 6.09655 9.69883 8.68 8.67999" stroke="black" stroke-width="1.5" stroke-linecap="round" stroke-linejoin="round"/>
<path d="M12.295 23.665C13.8178 22.5831 15.6395 22.0019 17.5075 22.0019C19.3755 22.0019 21.1972 22.5831 22.72 23.665" stroke="black" stroke-width="1.5" stroke-linecap="round" stroke-linejoin="round"/>
<path d="M17.5 29.5H17.515" stroke="black" stroke-width="1.5" stroke-linecap="round" stroke-linejoin="round"/>
</svg>
