<svg width="32" height="26" viewBox="0 0 32 26" fill="none" xmlns="http://www.w3.org/2000/svg">
<path d="M12.385 1.88497C12.7335 1.53444 13.1631 1.27544 13.6358 1.13099C14.1085 0.986532 14.6095 0.961103 15.0944 1.05696C15.5793 1.15282 16.033 1.36699 16.4151 1.68044C16.7973 1.99389 17.0961 2.39691 17.2849 2.85366C17.4738 3.31042 17.5469 3.80676 17.4977 4.29857C17.4485 4.79038 17.2786 5.26241 17.003 5.67271C16.7274 6.08301 16.3547 6.41887 15.918 6.65042C15.4814 6.88197 14.9943 7.00205 14.5 6.99997H1M18.1358 24.869C18.6085 25.0134 19.1095 25.0388 19.5944 24.943C20.0793 24.8471 20.533 24.633 20.9151 24.3195C21.2973 24.0061 21.5961 23.603 21.7849 23.1463C21.9738 22.6895 22.0469 22.1932 21.9977 21.7014C21.9485 21.2096 21.7786 20.7375 21.503 20.3272C21.2274 19.9169 20.8547 19.5811 20.418 19.3495C19.9814 19.118 19.4943 18.9979 19 19H1M24.595 6.59497C25.0313 6.1598 25.5681 5.83885 26.1579 5.66049C26.7477 5.48214 27.3724 5.45188 27.9767 5.5724C28.581 5.69292 29.1463 5.9605 29.6226 6.35148C30.0989 6.74245 30.4715 7.24477 30.7075 7.81401C30.9434 8.38325 31.0355 9.00186 30.9755 9.61514C30.9155 10.2284 30.7053 10.8175 30.3634 11.3302C30.0216 11.8429 29.5587 12.2635 29.0157 12.5547C28.4726 12.8459 27.8662 12.9989 27.25 13H1" stroke="black" stroke-width="1.5" stroke-linecap="round" stroke-linejoin="round"/>
</svg>
