<svg width="35" height="25" viewBox="0 0 35 25" fill="none" xmlns="http://www.w3.org/2000/svg">
<path d="M33.3109 4.63C33.1327 3.91811 32.7698 3.26586 32.2588 2.73911C31.7479 2.21236 31.107 1.82978 30.4009 1.63C27.8209 1 17.5009 1 17.5009 1C17.5009 1 7.18086 1 4.60086 1.69C3.89473 1.88978 3.25382 2.27236 2.74288 2.79911C2.23193 3.32586 1.86904 3.97811 1.69086 4.69C1.21868 7.30833 0.987711 9.96446 1.00086 12.625C0.984026 15.3056 1.21501 17.982 1.69086 20.62C1.8873 21.3098 2.25832 21.9372 2.76807 22.4417C3.27783 22.9462 3.90909 23.3107 4.60086 23.5C7.18086 24.19 17.5009 24.19 17.5009 24.19C17.5009 24.19 27.8209 24.19 30.4009 23.5C31.107 23.3002 31.7479 22.9176 32.2588 22.3909C32.7698 21.8641 33.1327 21.2119 33.3109 20.5C33.7794 17.9014 34.0103 15.2655 34.0009 12.625C34.0177 9.94443 33.7867 7.26805 33.3109 4.63V4.63Z" stroke="black" stroke-width="1.5" stroke-linecap="round" stroke-linejoin="round"/>
<path d="M14.1259 17.53L22.7509 12.625L14.1259 7.72V17.53Z" stroke="black" stroke-width="1.5" stroke-linecap="round" stroke-linejoin="round"/>
</svg>
