<svg id="Layer_1" data-name="Layer 1" xmlns="http://www.w3.org/2000/svg" viewBox="0 0 99.8906 99.8906">
  <g id="logoMark">
    <path id="logoMark_PathItem_" data-name="logoMark &lt;PathItem&gt;" d="M24.7419,99.8906A24.7419,24.7419,0,0,0,0,75.1487V99.8906Z" style="fill: #fff"/>
    <path id="logoMark_PathItem_2" data-name="logoMark &lt;PathItem&gt;" d="M0,24.7419A24.7419,24.7419,0,0,0,24.7419,0H0Z" style="fill: #fff"/>
    <path id="logoMark_PathItem_3" data-name="logoMark &lt;PathItem&gt;" d="M75.1486,99.8906A24.7419,24.7419,0,0,1,99.8905,75.1487V99.8906Z" style="fill: #fff"/>
    <path id="logoMark_PathItem_4" data-name="logoMark &lt;PathItem&gt;" d="M99.8905,24.7419A24.7418,24.7418,0,0,1,75.1487,0H99.8905Z" style="fill: #fff"/>
    <path id="logoMark_PathItem_5" data-name="logoMark &lt;PathItem&gt;" d="M41.2791,58.6113a58.2946,58.2946,0,0,0-11.0518-8.6659A58.3739,58.3739,0,0,1,0,58.35,41.43,41.43,0,0,1,29.3872,70.5034,41.43,41.43,0,0,1,41.54,99.8906a58.3735,58.3735,0,0,1,8.4051-30.2273A58.3038,58.3038,0,0,0,41.2791,58.6113Z" style="fill: #fff"/>
    <path id="logoMark_PathItem_6" data-name="logoMark &lt;PathItem&gt;" d="M41.2791,41.2792a58.3007,58.3007,0,0,0,8.6662-11.052A58.3729,58.3729,0,0,1,41.54,0a41.43,41.43,0,0,1-12.153,29.3872A41.43,41.43,0,0,1,0,41.54a58.3722,58.3722,0,0,1,30.2272,8.4051A58.3,58.3,0,0,0,41.2791,41.2792Z" style="fill: #fff"/>
    <path id="logoMark_PathItem_7" data-name="logoMark &lt;PathItem&gt;" d="M0,41.54V58.35a58.3739,58.3739,0,0,0,30.2272-8.4049A58.3722,58.3722,0,0,0,0,41.54Z" style="fill: #fff"/>
    <path id="logoMark_PathItem_8" data-name="logoMark &lt;PathItem&gt;" d="M58.6114,58.6113a58.2992,58.2992,0,0,0-8.6661,11.052A58.3744,58.3744,0,0,1,58.35,99.8906a41.4932,41.4932,0,0,1,41.54-41.54,58.3749,58.3749,0,0,1-30.2274-8.4049A58.2946,58.2946,0,0,0,58.6114,58.6113Z" style="fill: #fff"/>
    <path id="logoMark_PathItem_9" data-name="logoMark &lt;PathItem&gt;" d="M41.54,99.8906H58.35a58.3744,58.3744,0,0,0-8.405-30.2273A58.3735,58.3735,0,0,0,41.54,99.8906Z" style="fill: #fff"/>
    <path id="logoMark_PathItem_10" data-name="logoMark &lt;PathItem&gt;" d="M58.6114,41.2792a58.3,58.3,0,0,0,11.0518,8.6662A58.3732,58.3732,0,0,1,99.8906,41.54,41.43,41.43,0,0,1,70.5033,29.3872,41.4313,41.4313,0,0,1,58.35,0a58.3738,58.3738,0,0,1-8.405,30.2272A58.2961,58.2961,0,0,0,58.6114,41.2792Z" style="fill: #fff"/>
    <path id="logoMark_PathItem_11" data-name="logoMark &lt;PathItem&gt;" d="M58.35,0H41.54a58.3729,58.3729,0,0,0,8.4051,30.2272A58.3738,58.3738,0,0,0,58.35,0Z" style="fill: #fff"/>
    <path id="logoMark_PathItem_12" data-name="logoMark &lt;PathItem&gt;" d="M69.6632,49.9454A58.3749,58.3749,0,0,0,99.8906,58.35V41.54A58.3732,58.3732,0,0,0,69.6632,49.9454Z" style="fill: #fff"/>
  </g>
</svg>
